<?xml version="1.0" encoding="UTF-8" standalone="no"?>
<svg
   xmlns:dc="http://purl.org/dc/elements/1.1/"
   xmlns:cc="http://creativecommons.org/ns#"
   xmlns:rdf="http://www.w3.org/1999/02/22-rdf-syntax-ns#"
   xmlns:svg="http://www.w3.org/2000/svg"
   xmlns="http://www.w3.org/2000/svg"
   xmlns:sodipodi="http://sodipodi.sourceforge.net/DTD/sodipodi-0.dtd"
   xmlns:inkscape="http://www.inkscape.org/namespaces/inkscape"
   width="1082.6562"
   height="1082.6562"
   viewBox="0 0 866.125 866.125"
   version="1.1"
   id="svg7719"
   inkscape:version="0.48.5 r10040"
   sodipodi:docname="share_tmp.svg">
  <metadata
     id="metadata7839">
    <rdf:RDF>
      <cc:Work
         rdf:about="">
        <dc:format>image/svg+xml</dc:format>
        <dc:type
           rdf:resource="http://purl.org/dc/dcmitype/StillImage" />
        <dc:title></dc:title>
      </cc:Work>
    </rdf:RDF>
  </metadata>
  <defs
     id="defs7837" />
  <sodipodi:namedview
     pagecolor="#ffffff"
     bordercolor="#666666"
     borderopacity="1"
     objecttolerance="10"
     gridtolerance="10"
     guidetolerance="10"
     inkscape:pageopacity="0"
     inkscape:pageshadow="2"
     inkscape:window-width="1531"
     inkscape:window-height="1095"
     id="namedview7835"
     showgrid="false"
     fit-margin-top="0"
     fit-margin-left="0"
     fit-margin-right="0"
     fit-margin-bottom="0"
     units="pt"
     inkscape:zoom="0.46234376"
     inkscape:cx="757.61741"
     inkscape:cy="275.15167"
     inkscape:window-x="0"
     inkscape:window-y="0"
     inkscape:window-maximized="0"
     inkscape:current-layer="svg7719" />
  <path
     d="m 0.0625,0.15628282 539.58,0 c -2.25,2.70999998 -1.07,6.10999998 0.55,8.77999998 -2.33,2.3900002 -4.54,4.9000002 -6.84,7.3200002 -1.64,-2.94 -3.9,-5.6 -7.25,-6.5300002 -5,1.0300002 -8.72,4.5900002 -12.34,7.9200002 -0.39,-4.26 -0.83,-9.0100002 -4,-12.2200002 -1.88,-2.15 -5.02,-3.2 -7.76,-2.27 -3.74,1.09 -6.31,4.2 -8.94,6.8600002 -0.71,-2.4500002 -2.16,-5.1300002 -4.93,-5.5400002 -4.77,-0.7 -9.16,2.1 -12.59,5.1 -4.43,4.2900002 -8.09,9.2800002 -11.77,14.2100002 -3.98,-5.28 -1.94,-13.04 -6.88,-17.6600002 -2.97,-2.93 -7.33,0.02 -10.63,-1.89 -2.53,-1.49 -5.45,-1.53 -8.26,-1.05 -2.48,-1.28 -4.96,-3.16999998 -7.91,-2.77999998 -3.37,0.57 -6.03,2.86999998 -9.08,4.22999998 -2.4,0.55 -4.91,0.51 -7.25,1.28 -1.85,0.86 -3.25,2.37 -4.72,3.73 -2.58,-3.29 -5.4,-7.13 -9.87,-7.73 -5.27,-0.5 -9.9,2.74 -14.08,5.51 -2.11,-5.27 -8.13,-6.15 -13.12,-5.54 -9.17,-0.07 -16.76,5.49 -24.4,9.7800002 -6.32,3.84 -12.22,8.81 -15.99,15.27 0.16,-4.94 0.43,-9.89 0.08,-14.83 -0.27,-3.7200002 -5.27,-5.5500002 -8.07,-3.2000002 -3.83,3.0600002 -6.06,7.6400002 -9.75,10.8700002 -5.69,5.09 -9.42,11.87 -12.23,18.88 -0.07,-5.14 0.73,-10.32 -0.05,-15.43 -0.53,-2.96 -3.73,-4.74 -6.57,-4.47 -2.49,0.58 -4.27,2.56 -5.88,4.41 -5.44,6.37 -8.95,14.05 -12.71,21.45 -3.7,7.52 -6.22,15.65 -6.58,24.05 -0.73,-6.96 0.06,-15.36 -5.73,-20.45 -4.23,-2.31 -9.36,0.45 -11.8,4.14 -4.65,6.96 -8.84,14.42 -10.79,22.63 -1.88,7.1 -6.16,13.6 -6.19,21.13 -0.08,4.149997 -0.34,8.339997 0.13,12.479997 0.87,4.57 3.09,8.76 5.63,12.61 1.91,3.25 5.59,4.72 7.91,7.61 -3.16,7.73 1.64,15.10997 3.5,22.42997 -2.48,5.22 -10.08,7.37 -10.03,14 -0.6,5.39 3.3,9.44 6.91,12.8 -4.68,2.36 -11.05,4.21 -12.53,9.93 -0.74,6.45 5.27,10.26 9.13,14.34 4.22,4.26 1.06,10.95 4.3,15.63 1.79,3.18 4.84,5.65 5.87,9.23 -0.02,3.71 -1.44,7.25 -1.83,10.93 -1.7,10.52 0.53,21.64 6.36,30.58 3.32,7.38 6.43,14.98 11.46,21.42 1.43,2.02 4.17,1.82 6.32,2.48 -1.11,6.18 -2.82,12.21 -4.28,18.31 -1.9,7.25 -2.02,14.94 -0.75,22.3 0.81,6.23 6.03,10.82 6.48,17.14 2.42,8.76 5.73,17.58 4.84,26.84 0.09,7.54 -3.09,14.57 -3.4,22.05 -0.43,4.03 -2.28,7.77 -2.43,11.85 -0.7,14.29 -0.3,28.63 0.08,42.92 1.43,8.87 1.49,17.88 3.16,26.71 0.59,5.81 1.9,11.57 1.74,17.44 -0.22,6.68 1.63,13.2 1.75,19.86 0.16,7.14 2.15,14.14 5.04,20.63 1.17,2.43 4.13,2.11 6.37,2.23 4.99,8.34 8.57,17.42 12.25,26.39 1.75,6.6 5.97,12.11 10.43,17.13 3.64,4.03 4.46,9.55 6.87,14.25 1.94,3.73 2.99,7.81 4.31,11.78 -5.93,3.37 -10.21,8.81 -14.61,13.88 -9.48,14.04 -16.61,29.75 -20.15,46.36 -5,0.63 -10.48,0.7 -14.74,3.74 -3.41,2.41 -5.28,6.24 -6.96,9.93 -9.34,-0.29 -19.54,2.04 -26.01,9.24 -4.74,4.98 -6.32,11.88 -7.95,18.34 -6.62,-0.48 -14.01,-0.02 -19.43,4.27 -6.37,6.03 -10.68,13.89 -13.92,21.97 -1.68,4.92 -7.38,6.75 -9.29,11.52 -0.89,2.74 -0.52,5.69 -0.5,8.53 -5.5,2.59 -10.01,6.74 -14.28,10.99 -0.22,-6.76 -2.87,-13.19 -2.58,-19.98 0.16,-9.53 -0.07,-19.04 -1.32,-28.5 -0.79,-4.68 0.45,-9.7 -1.56,-14.15 -1.3,-3.1 -1.15,-7.12 0.98,-9.79 3.4,-2.88 7.24,-5.36 9.74,-9.15 2.19,-3.47 5.51,-5.92 8.52,-8.61 6.25,-5.61 9.65,-13.58 15.69,-19.37 5.53,-5.43 7.11,-13.87 13.63,-18.41 5.46,-3.78 10.17,-8.58 16.04,-11.75 5.57,-2.99 9.37,-8.22 14.46,-11.86 7.31,-5.38 12.71,-13.08 16.32,-21.34 2.42,-5.57 2.96,-12.85 -1.34,-17.66 -4.35,-5.64 -11.88,-6.94 -18.57,-7.19 -6.62,-0.74 -12.66,2.51 -18.86,4.24 -7.41,3.66 -14.69,7.64 -22.3,10.88 -6.58,2.73 -14.1,4.58 -21.12,2.88 -4.64,-4.01 -9.52,-7.71 -14.55,-11.21 0.76,-1.27 1.72,-2.46 2.12,-3.9 -1.62,-14.31 0.44,-28.79 -1.31,-43.09 -0.67,-10.59 -1.68,-21.73 -7.18,-31.06 0.75,-4.7 -3.23,-7.83 -6.41,-10.49 -5.05,-3.45 -10.64,-6.2 -16.56,-7.78 -4.58,-0.78 -9.29,-0.55 -13.89,-0.06 -5.49,0.56 -10.37,3.81 -15.96,3.75 -6.25,0.32 -11.78,-3.19 -17.84,-4.02 -3.89,-0.36 -7.86,-0.49 -11.74,0.09 -5.4,1.1 -8.86,5.79 -13.5,8.31 -5.94,2.61 -12.54,1.08 -18.77,1.84 -3.7,1 -6.17,4.29 -9.63,5.75 -3.8,0.56 -7.91,-0.25 -11.45,1.64 -5.3,2.87 -9.71,7.49 -12.02,13.09 -3.2,7.88 -5.37,16.13 -8.58,24 -2,4.75 -3.52,9.71 -4.39,14.79 -2.36,14.25 -3.28,28.66 -5.21,42.96 -0.75,5.68 -1.72,11.36 -1.52,17.11 -0.1,2.96 0.72,5.99 -0.09,8.91 -0.52,-4.75 -1.28,-9.45 -2.25,-14.12 l 0,-605.77996718 z"
     id="path7721"
     inkscape:connector-curvature="0"
     style="fill:#ffffff" />
  <path
     d="m 539.6425,0.15628282 9.08,0 -0.11,0.21 c 0.11,-0.05 0.33,-0.16 0.44,-0.21 l 13.42,0 c 0.72,3.17999998 -0.44,6.06999998 -3.16,7.84999998 0.52,0.68 1.04,1.37 1.58,2.0500002 3.86,-1.8500002 7.52,-4.1000002 11.41,-5.9000002 2.81,-1.36 6.79,-0.57 8.11,2.49 0.79,3.23 0.29,6.6200002 0.02,9.8900002 3.81,1.67 8.23,2.84 10.82,6.34 2.37,2.87 1.28,6.79 0.92,10.13 7.48,-2.99 15.96,-3.72 23.65,-1.06 9.84,3.42 20.5,5.24 29.2,11.27 4.99,3.32 6.5,9.38 9.87,14.02 7.67,0.36 15.4,2.03 22.06,5.98 5.16,3.03 11.16,5.98 13.52,11.88 2,6.15 2.28,12.85 0.52,19.1 -1.24,4.13 -0.97,9.489997 -4.77,12.269997 -1.95,1.62 -4.48,0.78 -6.66,0.27 3.16,2.53 6.59,4.76 9.54,7.55 2.53,2.5 2.36,6.29 2.25,9.58 4.43,2.68 6.35,7.67 9.92,11.22 2.83,2.77 1.86,6.96997 2.54,10.48997 2.28,4.35 5.9,8.41 5.79,13.62 -0.1,4.89 -0.37,10.04 2.02,14.51 2.02,3.94 6.5,6.16 7.87,10.52 2.07,6.25 -0.23,12.7 -0.96,18.96 -0.54,4.52 4.18,7.41 4.3,11.82 0.73,6.39 -2.48,12.19 -3.93,18.22 -1.15,3.71 1.45,7.04 2.22,10.54 1.2,5.35 0.74,11.11 -1.32,16.2 -0.97,2.48 -2.61,4.64 -3.48,7.15 0.17,7.34 0.43,14.7 0.05,22.04 -0.17,4.42 -2.93,9.09 -0.52,13.32 2.83,5.01 5.75,10.63 4.68,16.59 -0.56,2.84 -3.18,4.48 -4.61,6.81 1.21,4.64 0.89,9.41 0.84,14.13 3.57,6.63 3.38,14.42 0.88,21.38 2.04,6.41 4.49,12.8 5.23,19.56 10.39,-0.41 20.76,-1.8 31.17,-1.14 5.68,0.54 11.05,2.74 15.99,5.51 5.93,3.11 9.8,8.79 14.02,13.78 4.6,5.38 7.44,11.95 9.84,18.54 2.03,4.93 3.49,10.06 4.62,15.26 5.32,-3.3 11.48,-4.73 17.48,-6.24 8.83,-2.35 18.2,-2.29 27.15,-0.71 8.95,2.56 18.07,9.4 18.89,19.35 -0.07,5.34 3.65,9.65 4.03,14.91 l 0,21.43 c -3.32,14.2 -7.58,28.5 -15.74,40.75 -5.05,6.9 -10.33,13.64 -16.02,20.03 -2.79,3.21 -5.01,6.92 -8.27,9.71 -4.85,4.4 -11.43,5.86 -17.05,8.96 -9.97,4.73 -18.51,11.97 -28.6,16.46 -9.77,4.73 -19.17,10.32 -27.38,17.46 -5.64,5.07 -11.71,9.65 -17.18,14.91 -6.37,5.8 -14.29,9.55 -20.8,15.2 -5.11,4.23 -9.2,9.58 -14.71,13.34 -7.2,5.01 -13.98,10.78 -19.18,17.89 -3.55,4.82 -7.32,9.49 -11.38,13.9 -6.15,6.45 -12.95,12.69 -16.65,20.97 -4.16,9.7 -7.28,19.98 -13.25,28.8 -4,5.98 -8.43,11.69 -12.01,17.95 -4.48,7.62 -7.65,15.9 -11.61,23.78 2.02,2.14 3.88,5.52 1.63,8.21 -2.35,1.85 -5.59,2.22 -7.89,4.22 2.71,1.68 5.3,4.91 3.25,8.14 -5.98,4.61 -11.92,9.38 -16.92,15.09 -5.93,6.69 -11.48,13.92 -18.92,19.05 -6.05,4.17 -12.08,8.45 -17.33,13.63 -5.55,5.58 -12.15,9.92 -18.57,14.43 -4.46,3.13 -8.33,7.01 -12.57,10.42 -6.42,5.31 -13.46,9.9 -19.29,15.89 -3.28,3.36 -6.71,6.58 -10.18,9.74 -5.09,4.65 -11.45,7.48 -17.51,10.61 -6.96,3.71 -12.29,9.79 -19.22,13.57 -4.48,2.75 -8.59,6.1 -12.44,9.68 -7.45,7.5 -9.73,18.13 -13.41,27.67 -1.78,4.94 -2.34,10.21 -3.66,15.28 -1.66,7.23 -4.34,14.27 -4.82,21.73 -0.52,7.65 -2.66,15.46 -0.54,23.04995 1.25,6.06 4.92,11.62 4.45,18 0.03,2.15 -1.3,3.93 -2.28,5.7401 -2.45,0.38 -5.49,0.76 -7,-1.73 -1.16,-2.9601 -0.7,-6.31 -1.67,-9.3301 -1.36,-4.34 -3.1,-8.58 -3.85,-13.08 -1.48,-7.07995 0.01,-14.25995 0.69,-21.32995 0.84,-12.76 5.75,-24.75 7.88,-37.29 4.31,-12.49 7.57,-26.15 17.14,-35.87 5.05,-4.73 10.56,-9.03 16.55,-12.53 5.97,-3.93 11.1,-9.09 17.46,-12.45 4.33,-2.26 8.86,-4.21 12.83,-7.08 7.41,-5.54 13.14,-12.95 20.46,-18.6 5.94,-4.73 12.12,-9.17 17.74,-14.3 7.19,-6.64 16.05,-11.14 23.16,-17.88 3.74,-3.57 7.57,-7.07 11.74,-10.14 4.45,-3.48 9.59,-6.13 13.34,-10.43 -12.13,6.21 -23.58,13.66 -35.63,20.06 -3.8,2.13 -7.19,4.9 -11.01,6.99 -6.42,3.45 -13.13,6.3 -19.73,9.39 -10.02,6.12 -18.97,13.86 -29.1,19.84 -6.28,3.93 -10.22,10.4 -15.45,15.48 -5.43,5.27 -11.08,10.32 -16.74,15.35 -4.74,4.25 -7.05,10.34 -10.52,15.54 -6.21,9.47 -14.55,17.71 -18.17,28.68 -2.5,6.18 -5.55,12.29 -6.33,19.01 -0.83,6.43 -0.95,12.94 -2.18,19.33 -1.47,7.77 -1.74,15.79 -0.4,23.61 1.22,7.23995 1.78,14.65995 4.18,21.65995 0.97,3.08 2.15,6.4701 0.96,9.6801 -0.53,1.8399 -2.72,1.7 -4.21,2.19 -2.01,-1.46 -4.27,-2.91 -5.17,-5.34 -3.41,-8.4 -4.2,-17.54 -5.64,-26.42005 -1.46,-8.83 -1.32,-17.88 0.33,-26.67 1.41,-7.32 1.34,-14.81 2.61,-22.14 1,-5.93 3.6,-11.4 5.81,-16.94 2.55,-6.16 5.05,-12.47 9.29,-17.71 4.8,-6.58 9.98,-12.93 13.9,-20.1 2.34,-4.17 4.85,-8.34 8.48,-11.52 4.99,-4.34 9.79,-8.87 14.69,-13.31 6.79,-6.19 11.6,-14.54 19.73,-19.21 7.43,-4.47 14.29,-9.76 21.36,-14.77 9.29,-7.47 21.39,-9.95 31.13,-16.71 7.53,-5.46 16.19,-9.02 23.87,-14.22 15.31,-7.91 29.93,-17.55 41.72,-30.22 4.98,-4.62 8.17,-10.67 11.7,-16.36 4.72,-7.58 7.5,-16.16 11.96,-23.89 4,-7.45 9.21,-14.15 13.9,-21.16 6.29,-9.52 8.83,-20.86 14.15,-30.86 4.64,-8.69 12.68,-14.74 18.42,-22.59 2.72,-4.18 6.69,-7.32 9.6,-11.36 5.61,-7.73 13.2,-13.72 20.89,-19.25 5,-3.59 8.88,-8.42 13.55,-12.38 6.34,-5.46 13.83,-9.36 20.25,-14.7 8.08,-7.32 16.35,-14.44 24.94,-21.15 8.56,-6.58 18.42,-11.1 28.01,-15.95 9.92,-6.28 19.74,-12.91 30.67,-17.34 3.59,-1.4 7.19,-3.22 9.51,-6.41 5.09,-6.89 11.19,-12.93 16.16,-19.91 5.49,-6.36 9.13,-14.01 12.24,-21.75 4.01,-10.37 6.57,-21.48 6.13,-32.66 -3.58,3.99 -6.68,8.42 -10.78,11.91 -10.41,9.08 -23.41,14.2 -35.47,20.61 -9.92,5.28 -20.55,8.95 -30.87,13.32 -3.46,1.3 -5.91,4.18 -9,6.08 -2.07,1.15 -3.25,3.33 -5.19,4.62 -2.11,0.56 -4.5,0.23 -6.36,1.52 -5.7,3.85 -10.68,8.63 -15.52,13.48 -5.96,5.9 -13.05,10.45 -19.94,15.13 -9.73,7.12 -17.73,16.3 -27.28,23.63 -6.79,5.15 -12.81,11.21 -18.56,17.46 -5.79,6.26 -9.11,14.23 -13.79,21.27 -4.08,6.8 -9.54,12.67 -13.34,19.65 -4.05,6.81 -6.75,14.3 -9.32,21.77 -3.22,11.88 -5.51,24.29 -11.78,35.06 -1.98,3.59 -4.81,6.6 -7.16,9.94 -3.26,4.43 -5.19,9.82 -9.38,13.55 -4.66,5.33 -9.91,10.07 -15.03,14.95 -5.31,4.47 -11.64,7.56 -16.8,12.24 -9.48,7.4 -12.89,19.46 -18.44,29.62 -1.42,2.85 -5.85,4.09 -8.15,1.6 -1.15,-1.58 -1.77,-3.78 -0.85,-5.61 2.76,-6.69 6.17,-13.09 9.54,-19.48 4.58,-8.99 12.73,-15.44 20.99,-20.89 7.96,-4.81 14.24,-11.82 20.65,-18.45 4.9,-4.72 7.16,-11.35 11.59,-16.45 9.36,-10.82 11.45,-25.46 15.13,-38.78 2.82,-8.19 5.79,-16.39 10.21,-23.88 3.72,-7.05 9.18,-12.93 13.34,-19.69 5.04,-7.65 8.71,-16.24 15,-23.01 5.92,-6.37 12.01,-12.65 18.92,-17.96 7.57,-5.7 14.12,-12.57 21.27,-18.76 7.9,-7.31 17.84,-11.98 25.58,-19.49 5.17,-5.26 10.59,-10.26 16.54,-14.62 0.19,-2.68 0.01,-5.69 2.14,-7.69 7.82,-8.55 13.02,-18.97 19.56,-28.45 4.18,-5.96 6.38,-12.98 9.4,-19.54 2.06,-4.91 5.37,-9.57 5.3,-15.11 0.02,-6.59 0.61,-13.41 -1.7,-19.71 -2.72,-7.56 -5.14,-15.5 -10.31,-21.81 -4.04,-4.96 -7.9,-10.56 -14.06,-13.06 -6.85,-3.74 -14.85,-3.06 -22.36,-2.72 -4.69,0.33 -9.38,0.63 -14.07,0.89 -4.15,0.11 -7.73,2.42 -11.41,4.05 0.73,5.52 1.42,11.49 -1.24,16.64 -1.26,2.61 -4.24,3.65 -5.97,5.84 -1.38,2.38 -2.22,5.04 -3.7,7.37 -2.17,3.43 -5.23,6.2 -7.28,9.72 -1.45,2.14 -2.62,4.81 -5.18,5.84 -2.66,1.03 -5.56,0.23 -8.29,0 -3.02,10.75 -7,22.06 -16.27,29.05 0.61,2.12 2.25,4.77 0.41,6.72 -1.56,1.79 -3.33,3.57 -3.4,6.12 -2.12,14.01 -7.03,27.46 -13.71,39.92 -7.78,14.61 -15.73,29.15 -22.84,44.11 -2.86,6.11 -7.4,11.18 -11.89,16.13 -5.69,6.02 -10.22,13.07 -16.53,18.5 -5.53,5.51 -13.54,8.41 -17.5,15.45 -2.73,5.12 -6.52,9.92 -7.26,15.85 -1.35,8.87 -4.32,17.37 -6.91,25.93 -1.58,5.3 -4.55,10 -7.17,14.83 -3.66,6.68 -4.67,14.38 -7.8,21.28 -3.75,8.14 -9.92,14.84 -14.13,22.71 -4.61,9.72 -12.33,17.63 -16.36,27.67 -2.17,5.17 -3.34,10.67 -5.02,16.01 -1.33,4.74 -3.31,9.56 -2.51,14.59 0.07,2.4 0.96,5.2 -0.77,7.25 -1.79,2.45 -5.09,1.24 -7.6,1.16 -1.67,-5.42 -2.51,-11.07 -4.55,-16.38 -3.52,-9.97 -3.74,-20.79 -7.76,-30.6 -2.4,-6.11 -4.3,-12.42 -7.31,-18.26 -6.29,9.52 -11.48,19.71 -17.29,29.53 -9.1,15.36 -15.77,32.15 -26.43,46.57 -7.86,10.82 -16.35,21.21 -23.13,32.77 -10.09,17.28 -19.63,34.91 -27.8,53.18 -3.77,8.07 -9,15.35 -12.83,23.39 -2.81,5.87 -6.12,11.54 -8.2,17.74 -2.84,8.72 -4.63,17.74 -6.27,26.75 -2.39,10.12 -4.37,20.41 -4.77,30.83 -0.28,8.39 -1.98,16.72 -1.5,25.14995 0.25,4.78 2.84,9.09 3.05,13.88 0.22,2.69 -2.68,3.65 -4.5,4.88 0.09,4.05 0.08,8.11 -0.33,12.15 -1.3,11.99 -0.26,24.08 -1.36,36.08 -0.35,27.98 -0.03,55.97 -0.16,83.95 l -9.61,0 c -0.77,-11.31 -0.22,-22.66 -0.38,-33.98 0.09,-17.37 -0.22,-34.76 0.22,-52.13 1.03,-11.28 0.02,-22.65 1.22,-33.93 0.83,-7.29 0.27,-14.64 0.82,-21.93 1.74,-11.81 -1.11,-23.61995 -3.76,-35.06995 -0.77,-3.31 -1.32,-6.81 -3.45,-9.56 -5.91,-8.25 -6.04,-19.37 -12.68,-27.19 -4.06,-4.8 -7.61,-9.99 -11.33,-15.05 -5.69,-4.36 -13.42,-4.36 -19.42,-8.2 -3.4,6.21 -9.97,10.58 -17.15,10.55 -4.59,0.7 -9.02,-0.98 -13.51,-1.25 -1.79,3.49 -3.15,7.28 -5.9,10.2 -7.34,7.96 -18.14,10.65 -27.69,14.94 -3.58,0.86 -6.24,3.43 -8.9,5.8 -0.32,1.79 0.14,4.09 -1.47,5.39 -1.19,0.89 -2.62,1.39 -3.97,2.02 2.43,5.37 4.99,10.69 8.22,15.64 3.17,5.43 4.98,11.49 7.59,17.18 4.14,8.22995 7.75,16.73995 12.68,24.54995 2.67,6.25 5.18,12.6 7.34,19.06 2.93,11.61 8.97,22.06 13.41,33.11 5.52,11.35 10.44,22.99 15.73,34.44 9.06,16.39 19.78,32.04 32.95,45.41 l -13.66,0 c -6.71,-7.69 -12.96,-15.8 -18.39,-24.43 -4.19,-6.65 -8.57,-13.24 -11.76,-20.44 -8.12,-18.78 -17.14,-37.16 -25.03,-56.03 -2.91,-9.33 -5.86,-18.7 -10.08,-27.52 -4.68,-7.36 -7.99,-15.45 -11.93,-23.21 -2.87,-5.85995 -4.59,-12.25995 -7.98,-17.86995 -7.26,-11.39 -11.43,-24.34 -16.49,-36.76 -2.98,-6.11 -5.63,-12.37 -8.3,-18.62 -1.89,-4.44 -1.46,-9.39 -1.6,-14.1 0.16,-10.49 -0.14,-21.13 -3.06,-31.28 -1.65,-5.72 -1.3,-11.72 -2.12,-17.56 -1.4,-7.41 -2.09,-14.93 -4.04,-22.23 -2.14,-13.85 -3.77,-27.87 -3.32,-41.91 0.35,-7.53 -2.48,-14.65 -3.37,-22.03 -1.06,-6.65 -1.02,-13.43 -2.58,-19.99 -2.49,-10.04 -0.46,-20.46 -1.75,-30.62 -0.67,-6.62 -0.91,-13.32 -2.74,-19.75 -0.81,-5.9 -1.07,-12.35 1.71,-17.8 2.5,-5.01 8.4,-6.83 11.35,-11.48 2.59,-4.04 6.45,-6.94 9.91,-10.16 4.24,-3.95 6.96,-9.12 10.55,-13.6 2.3,-2.97 5.25,-5.42 7.2,-8.67 2.44,-4.08 4.57,-8.38 7.65,-12.03 4.17,-4.01 9.13,-7.05 13.46,-10.85 4.14,-3.68 9.55,-5.57 13.46,-9.52 2.52,-2.54 5.16,-4.95 8.04,-7.07 4.79,-3.5 8.42,-8.34 11.32,-13.46 1.6,-3.05 3.37,-6.39 2.71,-9.94 -1.07,-2.66 -4.05,-3.78 -6.66,-4.24 -3.73,-0.54 -7.71,-1.15 -11.32,0.28 -3.12,1.06 -6.37,1.73 -9.39,3.09 -8.79,4.38 -17.43,9.23 -26.76,12.42 -6.51,2.27 -13.54,2.68 -20.35,1.99 -5.25,-0.8 -8.51,-5.33 -12.59,-8.21 -3.86,-2.77 -7.8,-5.47 -11.22,-8.79 -3.44,-3.33 -7.87,-5.32 -11.58,-8.28 -3.32,-2.92 -5.57,-6.78 -8.31,-10.19 -2,-2.8 -4.06,-5.7 -4.96,-9.06 -1.43,-4.91 -0.94,-10.07 -0.81,-15.1 0.08,-2.16 0.34,-4.72 2.32,-6.02 1.99,-1.52 4.52,-0.47 6.65,0.14 2.94,6.33 -1.04,13.77 2.24,20.06 4.23,6.46 8.61,13.31 15.8,16.81 -0.16,-16.75 0.97,-33.64 -1.67,-50.25 -1.05,-5.59 -1.72,-11.69 -5.51,-16.21 -2.29,-2.92 -6.5,-4.67 -6.46,-8.92 -7.32,-4.99 -16.9,-5.54 -25.1,-2.52 -3.79,1.44 -7.8,2.42 -11.89,2.36 -9.64,0.64 -18.28,-6.31 -28.01,-3.95 -4.19,2.22 -7.3,6.13 -11.76,7.9 -5.5,2.09 -11.46,2.16 -17.26,2.03 -4.24,-0.31 -6.63,4.13 -10.46,5.24 -4.11,2.07 -9.39,-0.46 -13.02,2.73 -6.09,4.53 -7.04,12.6 -9.67,19.21 -2.14,7.3 -5.73,14.11 -7.39,21.56 -2.39,11.81 -2.89,23.88 -4.58,35.79 -0.55,6.76 -1.83,13.43 -2.4,20.19 -0.44,13.6 0.52,27.26 -0.96,40.82 -0.88,8.64 0.84,17.69 -2.42,25.94 1.11,7 4.74,13.31 6.49,20.16 1.52,5.95 5.01,11.07 8.01,16.35 4.05,7.07 10.17,12.93 12.82,20.79 2.7,6.6 2.58,14.05 6,20.4 3.29,6.47 4.51,13.69 6.71,20.55 1.21,3.88 2.84,7.71 3.03,11.84 0.29,8.7 0.07,17.43 -0.78,26.1 -0.27,17.66 0.19,35.33 -0.25,52.99 -1.27,10.08 -5.27,19.74 -5.43,29.99 -0.07,4.34 -1.2,8.56 -1.76,12.85 -1.18,8.71 -0.13,17.63 -2.16,26.24 -2.29,9.14 -2.53,18.61 -4.13,27.87 -2.87,11.1 -1.5,22.74 -3.87,33.94 -1.91,8.18995 -3.34,16.55995 -3.17,24.99995 0.08,17.67 -0.09,35.34 0.21,53.01 0.81,10.51 0.49,21.25 3.45,31.47 4.67,17.33 6.06,35.38 11.3,52.56 l -11.45,0 0.89,-0.01 c -3.38,-12.84 -5.3,-25.99 -7.88,-38.99 -1.53,-8.05 -4.32,-15.86 -4.99,-24.06 -2.34,-25.27 -1.25,-50.68 -1.54,-76.02 -0.29,-12.18 3.93,-23.80995 4.67,-35.87995 0.69,-6.27 0.25,-12.65 1.69,-18.83 2.31,-9.95 2.19,-20.29 4.6,-30.22 2.63,-10.12 0.92,-20.71 2.96,-30.91 0.87,-3.98 1.23,-8.03 1.33,-12.09 0.77,-9.14 4.03,-17.85 5.27,-26.91 0.44,-17.69 -0.03,-35.4 0.26,-53.1 0.74,-8.65 1.35,-17.39 0.52,-26.05 -1.71,-6.29 -3.91,-12.45 -5.43,-18.8 -1.47,-5.92 -5.1,-11.03 -6.34,-17.01 -1.07,-4.53 -1.68,-9.2 -3.51,-13.5 -2.63,-6.38 -7.75,-11.24 -11.1,-17.2 -3.38,-5.97 -7.39,-11.73 -9.21,-18.43 -1.67,-6.26 -4.51,-12.12 -6.29,-18.34 l 0,-72.87 c 0.97,4.67 1.73,9.37 2.25,14.12 0.81,-2.92 -0.01,-5.95 0.09,-8.91 -0.2,-5.75 0.77,-11.43 1.52,-17.11 1.93,-14.3 2.85,-28.71 5.21,-42.96 0.87,-5.08 2.39,-10.04 4.39,-14.79 3.21,-7.87 5.38,-16.12 8.58,-24 2.31,-5.6 6.72,-10.22 12.02,-13.09 3.54,-1.89 7.65,-1.08 11.45,-1.64 3.46,-1.46 5.93,-4.75 9.63,-5.75 6.23,-0.76 12.83,0.77 18.77,-1.84 4.64,-2.52 8.1,-7.21 13.5,-8.31 3.88,-0.58 7.85,-0.45 11.74,-0.09 6.06,0.83 11.59,4.34 17.84,4.02 5.59,0.06 10.47,-3.19 15.96,-3.75 4.6,-0.49 9.31,-0.72 13.89,0.06 5.92,1.58 11.51,4.33 16.56,7.78 3.18,2.66 7.16,5.79 6.41,10.49 5.5,9.33 6.51,20.47 7.18,31.06 1.75,14.3 -0.31,28.78 1.31,43.09 -0.4,1.44 -1.36,2.63 -2.12,3.9 5.03,3.5 9.91,7.2 14.55,11.21 7.02,1.7 14.54,-0.15 21.12,-2.88 7.61,-3.24 14.89,-7.22 22.3,-10.88 6.2,-1.73 12.24,-4.98 18.86,-4.24 6.69,0.25 14.22,1.55 18.57,7.19 4.3,4.81 3.76,12.09 1.34,17.66 -3.61,8.26 -9.01,15.96 -16.32,21.34 -5.09,3.64 -8.89,8.87 -14.46,11.86 -5.87,3.17 -10.58,7.97 -16.04,11.75 -6.52,4.54 -8.1,12.98 -13.63,18.41 -6.04,5.79 -9.44,13.76 -15.69,19.37 -3.01,2.69 -6.33,5.14 -8.52,8.61 -2.5,3.79 -6.34,6.27 -9.74,9.15 -2.13,2.67 -2.28,6.69 -0.98,9.79 2.01,4.45 0.77,9.47 1.56,14.15 1.25,9.46 1.48,18.97 1.32,28.5 -0.29,6.79 2.36,13.22 2.58,19.98 4.27,-4.25 8.78,-8.4 14.28,-10.99 -0.02,-2.84 -0.39,-5.79 0.5,-8.53 1.91,-4.77 7.61,-6.6 9.29,-11.52 3.24,-8.08 7.55,-15.94 13.92,-21.97 5.42,-4.29 12.81,-4.75 19.43,-4.27 1.63,-6.46 3.21,-13.36 7.95,-18.34 6.47,-7.2 16.67,-9.53 26.01,-9.24 1.68,-3.69 3.55,-7.52 6.96,-9.93 4.26,-3.04 9.74,-3.11 14.74,-3.74 3.54,-16.61 10.67,-32.32 20.15,-46.36 4.4,-5.07 8.68,-10.51 14.61,-13.88 -1.32,-3.97 -2.37,-8.05 -4.31,-11.78 -2.41,-4.7 -3.23,-10.22 -6.87,-14.25 -4.46,-5.02 -8.68,-10.53 -10.43,-17.13 -3.68,-8.97 -7.26,-18.05 -12.25,-26.39 -2.24,-0.12 -5.2,0.2 -6.37,-2.23 -2.89,-6.49 -4.88,-13.49 -5.04,-20.63 -0.12,-6.66 -1.97,-13.18 -1.75,-19.86 0.16,-5.87 -1.15,-11.63 -1.74,-17.44 -1.67,-8.83 -1.73,-17.84 -3.16,-26.71 -0.38,-14.29 -0.78,-28.63 -0.08,-42.92 0.15,-4.08 2,-7.82 2.43,-11.85 0.31,-7.48 3.49,-14.51 3.4,-22.05 0.89,-9.26 -2.42,-18.08 -4.84,-26.84 -0.45,-6.32 -5.67,-10.91 -6.48,-17.14 -1.27,-7.36 -1.15,-15.05 0.75,-22.3 1.46,-6.1 3.17,-12.13 4.28,-18.31 -2.15,-0.66 -4.89,-0.46 -6.32,-2.48 -5.03,-6.44 -8.14,-14.04 -11.46,-21.42 -5.83,-8.94 -8.06,-20.06 -6.36,-30.58 0.39,-3.68 1.81,-7.22 1.83,-10.93 -1.03,-3.58 -4.08,-6.05 -5.87,-9.23 -3.24,-4.68 -0.08,-11.37 -4.3,-15.63 -3.86,-4.08 -9.87,-7.89 -9.13,-14.34 1.48,-5.72 7.85,-7.57 12.53,-9.93 -3.61,-3.36 -7.51,-7.41 -6.91,-12.8 -0.05,-6.63 7.55,-8.78 10.03,-14 -1.86,-7.32 -6.66,-14.69997 -3.5,-22.42997 -2.32,-2.89 -6,-4.36 -7.91,-7.61 -2.54,-3.85 -4.76,-8.04 -5.63,-12.61 -0.47,-4.14 -0.21,-8.33 -0.13,-12.479997 0.03,-7.53 4.31,-14.03 6.19,-21.13 1.95,-8.21 6.14,-15.67 10.79,-22.63 2.44,-3.69 7.57,-6.45 11.8,-4.14 5.79,5.09 5,13.49 5.73,20.45 0.36,-8.4 2.88,-16.53 6.58,-24.05 3.76,-7.4 7.27,-15.08 12.71,-21.45 1.61,-1.85 3.39,-3.83 5.88,-4.41 2.84,-0.27 6.04,1.51 6.57,4.47 0.78,5.11 -0.02,10.29 0.05,15.43 2.81,-7.01 6.54,-13.79 12.23,-18.88 3.69,-3.23 5.92,-7.81 9.75,-10.8700002 2.8,-2.35 7.8,-0.52 8.07,3.2000002 0.35,4.94 0.08,9.89 -0.08,14.83 3.77,-6.46 9.67,-11.43 15.99,-15.27 7.64,-4.2900002 15.23,-9.8500002 24.4,-9.7800002 4.99,-0.61 11.01,0.27 13.12,5.54 4.18,-2.77 8.81,-6.01 14.08,-5.51 4.47,0.6 7.29,4.44 9.87,7.73 1.47,-1.36 2.87,-2.87 4.72,-3.73 2.34,-0.77 4.85,-0.73 7.25,-1.28 3.05,-1.36 5.71,-3.65999998 9.08,-4.22999998 2.95,-0.39 5.43,1.49999998 7.91,2.77999998 2.81,-0.48 5.73,-0.44 8.26,1.05 3.3,1.91 7.66,-1.04 10.63,1.89 4.94,4.6200002 2.9,12.3800002 6.88,17.6600002 3.68,-4.93 7.34,-9.92 11.77,-14.2100002 3.43,-3 7.82,-5.8 12.59,-5.1 2.77,0.41 4.22,3.09 4.93,5.5400002 2.63,-2.6600002 5.2,-5.7700002 8.94,-6.8600002 2.74,-0.93 5.88,0.12 7.76,2.27 3.17,3.21 3.61,7.9600002 4,12.2200002 3.62,-3.33 7.34,-6.89 12.34,-7.9200002 3.35,0.9300002 5.61,3.5900002 7.25,6.5300002 2.3,-2.42 4.51,-4.93 6.84,-7.3200002 -1.62,-2.67 -2.8,-6.07 -0.55,-8.77999998 z"
     id="path7723"
     inkscape:connector-curvature="0"
     style="fill:#000000" />
  <path
     d="m 548.7225,0.15628282 0.33,0 c -0.11,0.05 -0.33,0.16 -0.44,0.21 l 0.11,-0.21 z"
     id="path7725"
     inkscape:connector-curvature="0"
     style="fill:#6b6b6b" />
  <path
     d="m 562.4725,0.15628282 303.59,0 0,460.04996718 c -0.38,-5.26 -4.1,-9.57 -4.03,-14.91 -0.82,-9.95 -9.94,-16.79 -18.89,-19.35 -8.95,-1.58 -18.32,-1.64 -27.15,0.71 -6,1.51 -12.16,2.94 -17.48,6.24 -1.13,-5.2 -2.59,-10.33 -4.62,-15.26 -2.4,-6.59 -5.24,-13.16 -9.84,-18.54 -4.22,-4.99 -8.09,-10.67 -14.02,-13.78 -4.94,-2.77 -10.31,-4.97 -15.99,-5.51 -10.41,-0.66 -20.78,0.73 -31.17,1.14 -0.74,-6.76 -3.19,-13.15 -5.23,-19.56 2.5,-6.96 2.69,-14.75 -0.88,-21.38 0.05,-4.72 0.37,-9.49 -0.84,-14.13 1.43,-2.33 4.05,-3.97 4.61,-6.81 1.07,-5.96 -1.85,-11.58 -4.68,-16.59 -2.41,-4.23 0.35,-8.9 0.52,-13.32 0.38,-7.34 0.12,-14.7 -0.05,-22.04 0.87,-2.51 2.51,-4.67 3.48,-7.15 2.06,-5.09 2.52,-10.85 1.32,-16.2 -0.77,-3.5 -3.37,-6.83 -2.22,-10.54 1.45,-6.03 4.66,-11.83 3.93,-18.22 -0.12,-4.41 -4.84,-7.3 -4.3,-11.82 0.73,-6.26 3.03,-12.71 0.96,-18.96 -1.37,-4.36 -5.85,-6.58 -7.87,-10.52 -2.39,-4.47 -2.12,-9.62 -2.02,-14.51 0.11,-5.21 -3.51,-9.27 -5.79,-13.62 -0.68,-3.52 0.29,-7.71997 -2.54,-10.48997 -3.57,-3.55 -5.49,-8.54 -9.92,-11.22 0.11,-3.29 0.28,-7.08 -2.25,-9.58 -2.95,-2.79 -6.38,-5.02 -9.54,-7.55 2.18,0.51 4.71,1.35 6.66,-0.27 3.8,-2.78 3.53,-8.139997 4.77,-12.269997 1.76,-6.25 1.48,-12.95 -0.52,-19.1 -2.36,-5.9 -8.36,-8.85 -13.52,-11.88 -6.66,-3.95 -14.39,-5.62 -22.06,-5.98 -3.37,-4.64 -4.88,-10.7 -9.87,-14.02 -8.7,-6.03 -19.36,-7.85 -29.2,-11.27 -7.69,-2.66 -16.17,-1.93 -23.65,1.06 0.36,-3.34 1.45,-7.26 -0.92,-10.13 -2.59,-3.5 -7.01,-4.67 -10.82,-6.34 0.27,-3.27 0.77,-6.6600002 -0.02,-9.8900002 -1.32,-3.06 -5.3,-3.85 -8.11,-2.49 -3.89,1.8 -7.55,4.05 -11.41,5.9000002 -0.54,-0.6800002 -1.06,-1.3700002 -1.58,-2.0500002 2.72,-1.78 3.88,-4.67 3.16,-7.84999998 z"
     id="path7727"
     inkscape:connector-curvature="0"
     style="fill:#ffffff" />
  <path
     d="m 426.2825,13.296283 c 1.92,-0.87 4.01,-3.07 6.16,-1.46 2.6,1.59 5.6,1.52 8.53,1.59 2.97,1.54 6.06,2.85 9.49,2.3 1.17,6.4 3.3,13.21 8.53,17.46 2.98,2.53 7.97,2.65 10.56,-0.52 4.39,-5.15 7.77,-11.2 12.99,-15.62 0.87,3.81 3.62,8.63 8.23,7.69 5.17,-1.94 8.03,-7.11 12.36,-10.27 0.81,5.26 0.51,13.13 6.89,14.91 5.87,1.05 9.72,-4.4 14.15,-7.18 3.12,0.99 5.19,4.64 8.88,4.24 8.35,-0.04 11.24,-9.26 17.47,-13.18 2.49,3.09 5.35,6.52 9.55,7.08 4.35,0.22 7.62,-3.36 11.76,-4.04 1.76,2.15 -0.35,5.45 1.75,7.44 2.59,2.45 6.26,3.19 9.26,5.04 -1.52,4.36 -4.04,8.26 -5.83,12.49 -1.9,4.07 3.02,9.16 7.11,7.07 6.16,-2.93 11.97,-7.14 18.95,-7.86 4.6,-0.67 9.09,0.76 13.4,2.19 6.48,2.18 13.24,3.66 19.38,6.75 5.52,2.38 8.8,8.58 8.72,14.44 0.24,2.76 3.27,4.29 5.81,3.74 10.93,-1.35 22.01,2.92 30.06,10.18 2.85,5.56 1.48,12.14 -0.15,17.88 -10.34,-2.58 -21,-5.2 -31.73,-3.85 -3.18,0.41 -6.78,1.86 -7.54,5.34 -1.09,3.069997 1.9,5.189997 3.87,6.969997 -4.8,1.15 -8.61,4.53 -12.45,7.44 -3.48,2.45 -4.55,7.36 -3,11.22 1.68,3.09 6.04,4.25 9.18,2.93 2.7,-1.89 4.72,-4.59 7.49,-6.4 4.13,-2.75 8.48,-5.83 10.55,-10.51 1.12,-3.54 -2.88,-5.28 -5.55,-6.16 0.83,-0.72 1.8,-1.08 2.9,-1.07 5.59,-0.12 11.14,0.85 16.58,2.04 -0.22,2.51 -0.85,5.22 0.44,7.55 2.13,4.11 6.34,6.44 9.84,9.24 0.2,2.37 0.17,4.79 0.83,7.1 1.29,3.18 4.69,4.67 6.55,7.45 1.49,2.21 3.07,4.37997 4.96,6.26997 0.25,2.62 0.17,5.32 0.96,7.86 1.74,4.05 5.86,7.28 5.34,12.09 -0.42,6.84 0.8,14.02 4.75,19.74 1.72,2.59 4.53,4.38 5.83,7.23 0.82,6.72 -2.91,13.32 -1.1,20.04 0.52,3.28 3.36,5.7 3.88,8.92 -0.49,5.89 -3.84,11.15 -4.23,17.07 -0.81,6.27 4.27,11.67 2.88,17.99 -0.29,4.86 -4.1,8.44 -5.22,13 -0.25,9.33 1.2,18.82 -0.79,28.04 -0.57,2.93 -1.06,5.98 -0.39,8.94 0.92,4.99 4.91,8.83 5.59,13.89 -1.66,1.88 -4.25,2.97 -5.32,5.34 -1.23,2.56 0.27,5.27 0.82,7.81 1.3,3.91 0.14,8.01 0.32,12.01 0.73,3.39 3.12,6.34 3,9.92 0.18,4.54 -3.52,8.76 -1.78,13.29 2.51,6.2 4.88,12.61 5.15,19.37 -2.93,0.15 -7.04,-0.09 -8.06,3.43 -1.06,5.64 0.49,11.33 0.3,16.99 -0.13,3.62 -4.66,4.05 -6.21,6.81 -1.63,3.13 -2.33,6.75 -4.58,9.56 -2.42,3.07 -5.23,5.83 -7.42,9.08 -0.56,-0.34 -1.67,-1.03 -2.22,-1.37 -0.7,-8.04 1.61,-16.06 5.44,-23.07 3.27,-7.64 7.13,-15.48 6.76,-24.02 -0.31,-6.98 -0.1,-14.66 -4.38,-20.59 -4.32,-6.4 -12.94,-8.3 -20.15,-6.92 -6.12,1.15 -7.78,8.06 -12.25,11.55 -10.23,9.22 -14.31,22.75 -21.69,33.95 -0.72,-12.38 1.41,-25.06 -2.06,-37.16 -2.49,-10.4 -10.01,-18.57 -13.59,-28.53 -2.87,-8 -8.33,-14.76 -11.07,-22.8 -2.36,-9.43 3.73,-18.52 1.79,-27.9 -1.91,-6.25 -9.47,-7.1 -12.67,-12.29 -3.91,-5.74 -8.87,-12.07 -7.66,-19.46 2.02,-9.84 6.32,-19.03 8.72,-28.77 0.72,-3.51 1.21,-7.64 -1.13,-10.68 -2.37,-3.47 -7.04,-4.19 -9.55,-7.51 -3.01,-3.85 -5.93,-8.05 -6.77,-12.96 -0.9,-4.97 -1.53,-9.99 -2.5,-14.95 -0.61,-3.4 -2.65,-6.45 -2.6,-9.99 -0.19,-4.9 -1.47,-9.68 -3.09,-14.28 -1.26,-3.7 -5.23,-6.29 -9.13,-5.33 -3.32,0.92 -6.36,2.65 -9.7,3.51 -1.86,-5.71 -2.43,-12.15997 -6.49,-16.87997 -3.02,-3.56 -6.85,-7.43 -11.89,-7.26 -3.38,0.09 -5.75,2.74 -8.09,4.82 -1.89,-4.14 -5.11,-8.06 -9.86,-8.81 -5.21,-1.43 -10.03,1.49 -14.99,2.48 -4.42,1.03 -8.03,-2.66 -12.31,-2.8 -2.36,0.29 -4.44,1.64 -6.74,2.17 -4.13,-0.6 -6.81,-4.27 -9.58,-7.04 -2.32,-2.18 -1.8,-6.74 -5.4,-7.58 -4.29,-0.55 -8.71,-0.53 -12.97,0.23 -3.92,0.84 -5.87,4.62 -8.39,7.32 -2.69,1.51 -6.52,1.68 -9.02,-0.34 -2.61,-1.82 -5.18,-3.88 -8.36,-4.57 -4.24,-1.15 -9.5,-1.69 -12.94,1.6 -2.61,2.24 -2.78,5.89 -3.39,9.02 -7.05,0.73 -14.2,-0.21 -20.95,-2.26 -2.39,-0.8 -5.27,-1.12 -7.32,0.68 -3.24,2.59 -0.68,7.68 -3.4,10.55 -2.39,1.57 -5.43,1.68 -8.19,1.35 -5.68,-1 -11.06,-3.18 -16.5,-5.02 -2.92,-1.05 -6.1,1.45 -6.12,4.47 -0.56,1.28 0.09,3.46 -1.43,4.09 -4.52,-0.59 -7.83,-4.16 -12.1,-5.41 -3.66,-0.74 -6.33,2.32 -8.29,4.93 -4.92,6.66997 -12.52,11.05997 -16.45,18.50997 -4.36,7.96 -8.04,16.31 -13.15,23.84 -4.27,6.05 -5.89,13.37 -8.67,20.12 -2.33,-12.05 -3.87,-24.69 -10,-35.54 -1.41,-3.28 -6.55,-3.23 -7.3,0.49 -2.15,9.13 -1.02,18.78 1.22,27.81 2.07,8.81 4.22,17.8 8.66,25.76 0.51,-0.1 1.53,-0.29 2.04,-0.39 -1.15,5.62 -4.38,10.83 -3.76,16.74 0.46,16.65 -2.34,33.12 -5.36,49.42 -3.78,-2.89 -5.29,-7.77 -7.4,-11.87 -1.98,-6.1 -6.47,-11.09 -7.75,-17.45 -1.27,-4.84 -1.25,-9.94 -0.34,-14.84 0.8,-4.68 2.51,-9.46 1.31,-14.23 -0.94,-4.55 -4.76,-7.6 -6.94,-11.49 -0.55,-4.08 -0.28,-8.38 -2.15,-12.17 -1.62,-4.52 -6.16,-6.85 -8.65,-10.77 4.27,-2.1 8.76,-4.06 12.24,-7.38 2.39,-2.14 1.82,-5.99 -0.07,-8.26 -2.39,-2.87 -5.7,-4.83 -7.93,-7.86 3.23,-3.34 7.27,-6.13 9.41,-10.37 2.36,-5.56 -0.96,-11.23 -2.43,-16.55 2.32,-0.71997 5.53,-1.14997 6.03,-4.06997 1.04,-3.47 -2.28,-5.77 -4.31,-7.98 -3.47,-3.35 -6.5,-7.14 -8.69,-11.45 -1.05,-2.28 -4.18,-2.37 -5.33,-4.55 -2.38,-3.97 -1.71,-8.76 -1.7,-13.159997 -0.1,-7.14 4.08,-13.29 5.79,-20.03 1.5,-6.09 4.15,-11.84 7.65,-17.04 1.26,10.25 2.02,21.1 7.55,30.15 2.05,2.99 4.86,6.43 8.85,6.32 2.86,0.09 4.94,-2.61 5.01,-5.29 0,-4.38 -1.41,-8.66 -1.13,-13.06 0.44,-7.88 0.79,-15.97 3.64,-23.42 1.24,-3.6 2.99,-6.98 4.73,-10.35 1.3,-2.5 2.18,-5.3 4.2,-7.35 0.03,7.22 -0.18,15.14 4.32,21.25 2.37,3.29 8.3,3.96 10.45,0.1 1.52,-4.43 1.67,-9.23 3.37,-13.61 2.57,-6.82 5.5,-13.97 11.26,-18.75 -0.64,7.82 -0.59,16.4 4.25,23.01 2.25,3.44 8.03,2.37 9.47,-1.3 1.43,-4.36 1.86,-9.02 3.79,-13.23 2.89,-7.27 9.25,-12.39 15.88,-16.14 6.38,-3.59 12.93,-8.5 20.72,-7.38 2.35,2.34 3.73,6.11 7.36,6.78 6.21,1.33 9.7,-6.3 15.52,-6.44 3.52,2.76 5.08,8.39 10.18,8.8 4.12,0.61 6.56,-3.32 9.46,-5.47 2.82,-1.05 6.11,-0.62 8.72,-2.37 z"
     id="path7729"
     inkscape:connector-curvature="0"
     style="fill:#282828" />
  <path
     d="m 426.3425,36.486283 c 2.69,-1.56 6.57,1.25 5.35,4.3 -2.58,8.72 -8.94,15.58 -14.36,22.65 -2.65,3.34 -3.59,8.4 -7.91,10.1 -3.41,1.6 -7.19,-0.8 -8.97,-3.7 -0.76,-2.23 -0.75,-4.82 0.31,-6.95 2.64,-5.14 6.17,-9.74 9.83,-14.18 3.94,-5.49 9.8,-9.25 15.75,-12.22 z"
     id="path7731"
     inkscape:connector-curvature="0"
     style="fill:#353535" />
  <path
     d="m 484.3825,65.616283 c 2.32,-0.01 5.25,2.36 4.13,4.89 -1.59,4.75 -4.03,9.21 -6.94,13.26 -4.27,5.07 -9.22,9.86 -11.76,16.1 -1.16,2.699997 -1.22,6.349997 -4.03,7.969997 -2.75,0.48 -5.73,0.87 -8.42,0.02 -2.72,-1.91 -3.5,-5.73 -2.6,-8.799997 2.15,-7.9 7.17,-14.6 12.41,-20.73 4.32,-5.78 10.41,-10.34 17.21,-12.71 z"
     id="path7733"
     inkscape:connector-curvature="0"
     style="fill:#353535" />
  <path
     d="m 580.4625,67.536283 c 2.85,-0.33 6.02,-0.88 8.65,0.62 1.87,1.3 0.91,4.21 -0.5,5.52 -4.39,3.77 -10.16,5.18 -15.2,7.82 -10.23,5.64 -22.1,8.22 -31.24,15.8 -5.03,4.229997 -10.89,8.409997 -12.99,14.939997 -1.13,2.64 -1.71,6.22 -4.79,7.29 -4.41,2.08 -10.06,-1.52 -10.25,-6.32 1.11,-9.64 7.48,-18.109997 15.05,-23.859997 8.34,-7.76 18.82,-12.55 29.27,-16.75 7,-2.89 14.54,-4.04 22,-5.06 z"
     id="path7735"
     inkscape:connector-curvature="0"
     style="fill:#353535" />
  <path
     d="m 308.3625,77.466283 c 2.42,-1.04 4.67,1.4 4.76,3.7 0.38,4.46 -1.12,8.78 -1.73,13.15 -0.97,7.469997 -4.39,14.369997 -5.2,21.869997 -0.46,4.77 -0.71,9.66 0.46,14.36 0.54,2.55 1.27,5.53 -0.32,7.85 -2.49,2.92997 -7.76,4.15997 -10.61,1.08997 -1.81,-1.65997 -3.25,-3.80997 -3.59,-6.27997 -2.83,-14.38 1.02,-29.15 6.59,-42.379997 2.84,-4.63 4.91,-10.37 9.64,-13.36 z"
     id="path7737"
     inkscape:connector-curvature="0"
     style="fill:#353535" />
  <path
     d="m 644.8925,104.11628 c 2.18,0.09 4.48,0.08 6.22,-1.48 2.67,0.88 6.67,2.62 5.55,6.16 -2.07,4.68 -6.42,7.76 -10.55,10.51 -2.77,1.81 -4.79,4.51 -7.49,6.4 -3.14,1.32 -7.5,0.16 -9.18,-2.93 -1.55,-3.86 -0.48,-8.77 3,-11.22 3.84,-2.91 7.65,-6.29 12.45,-7.44 z"
     id="path7739"
     inkscape:connector-curvature="0"
     style="fill:#353535" />
  <path
     d="m 456.2625,125.34628 c 2.65,-1.42 3.96,-4.27 5.68,-6.59 1.86,0.02 3.73,0.06 5.6,0.1 1.08,4.03 4.62,6.51 7.32,9.44 4.57,4.76 12.17,7.17 18.35,4.26 1.31,-0.76 2.67,0.26 3.92,0.63 5.39,2.43 11.65,1.49 16.99,-0.62 1.92,-0.88 4.02,-1.01 6.11,-0.71 1.43,3.95 2.43,8.96997 6.91,10.57997 5.24,1.53 9.86,-2.38 12.87,-6.21997 5.39,3.83997 5.93,10.69997 7.79,16.49997 1.22,4.11 4.79,7.91 9.36,7.71 3.61,-0.32 6.92,-2.03 10.28,-3.28 0.65,2.36 1.26,4.73 1.9,7.1 -0.66,1.87 -1.69,3.92 -0.85,5.91 1.34,2.59 3.19,4.99 3.64,7.96 0.86,5.43 1.7,10.87 2.76,16.26 1.31,6.13 4.93,11.37 8.69,16.25 2.32,2.97 5.49,5.13 8.97,6.54 -1.99,11.93 -8.2,22.81 -9.65,34.87 -0.51,9.69 5.25,18.04 10.66,25.53 2.69,3.28 5.96,6.18 10.01,7.63 0.75,3.34 -0.44,6.61 -1.07,9.86 -1.29,5.64 -1.71,11.53 -0.74,17.26 2.6,9.29 8.88,16.96 12.16,25.97 3.13,8.36 8.91,15.44 12.05,23.79 1.39,4.57 2.48,9.31 2.38,14.12 -0.03,11.07 -0.03,22.14 0,33.21 -1.84,3.22 -2.58,6.88 -3.96,10.29 -1.72,4.92 -4.3,9.49 -5.87,14.47 -1.58,4.96 -3.65,9.75 -5.76,14.51 -1.17,3.26 -5.28,4.45 -5.93,8 -0.66,4.2 -1.04,8.56 -3.1,12.38 -2.53,4.44 -1.02,9.91 -3.47,14.4 -1.95,3.81 0.44,8.27 -1.7,12.03 -2.09,7.09 -5.84,13.52 -7.93,20.61 -1.45,3.9 -3.16,7.71 -4.15,11.76 -2.42,2.49 -5.18,4.65 -7.47,7.26 -1.8,3.8 -2.27,8.43 -5.43,11.49 -2.01,0.98 -4.92,0.89 -5.88,3.32 -1.13,3.11 -1.81,6.4 -3.57,9.25 -5.5,0.91 -7.29,6.44 -8.86,11 -2.09,0.23 -4.18,1.12 -5,3.21 -1.94,4.21 -5.38,7.34 -8.75,10.39 -0.74,-6.26 -2.42,-12.34 -3.81,-18.47 -0.82,-4.12 -3.62,-7.9 -7.55,-9.48 -3.43,-1.04 -7.26,1.68 -7.59,5.2 -0.62,3.5 -1.63,6.99 -3.56,10.02 -2.84,4.29 -4.26,9.28 -6.29,13.97 -1.5,3.58 -0.68,7.61 -1.6,11.33 -0.89,1.73 -2.11,3.27 -3.21,4.88 -2.19,0.95 -3.92,2.6 -5.41,4.44 -3.95,-2.56 -7.71,0.76 -9.46,4.19 -1.68,-0.06 -3.37,-0.34 -5.02,0.02 -2.91,1.53 -4.78,4.36 -6.84,6.82 -3.46,-1.94 -6.99,0.1 -10.24,1.38 -1.9,1.08 -2.85,3.17 -4.07,4.88 -3.14,-0.83 -5.76,-2.76 -8.68,-4.04 -4.22,-0.18 -6.38,4.03 -8.41,7.04 -1.92,-0.09 -3.83,-0.2 -5.74,-0.37 -1.56,-2.53 -4.83,-4.94 -7.82,-3.21 -3.41,2.41 -6.01,6.07 -10.07,7.52 -3.36,0.32 -6.77,-0.2 -10.08,-0.72 -5.12,-3.08 -8.78,-7.95 -12.92,-12.15 -1.56,-2.08 -4.43,-1.34 -6.46,-2.56 -1.39,-0.72 -2.8,-1.42 -4.23,-2.02 -0.12,-7.95 2.72,-15.44 4.1,-23.17 0.95,-3.83 1.36,-7.84 2.78,-11.52 3.11,-3.05 5.53,-6.69 8.56,-9.79 6.64,-5.81 14.54,-10 21.04,-15.98 5.01,-4.64 11.6,-7.96 14.6,-14.4 2.76,-1.31 5.83,-2.72 7.35,-5.52 1.41,-2.56 -0.33,-5.96 -3,-6.79 -2.96,-1.33 -5.24,1.86 -7.84,2.72 -17.01,6.94 -35.66,-0.68 -53.05,3.99 -10.94,-0.49 -22.01,-0.98 -32.97,-0.1 -6.67,1.27 -15.26,0.07 -19.37,6.76 -3.74,-9.51 -4.35,-20.16 -2.3,-30.14 1.11,-6.69 2.02,-14.04 6.87,-19.21 2.44,-2.77 6.66,-4.12 10.08,-2.37 4.28,2.17 7.25,6.13 10.17,9.81 5.32,6.63 2.45,16.11 6.96,23.11 2.15,2.88 7.54,1.8 8.4,-1.74 2.73,-7.74 5.01,-15.75 9.34,-22.8 3.25,-5.24 6.69,-10.78 12.28,-13.8 7.52,-4.88 17.33,-5.5 23.76,-12.16 3.02,-2.73 0.71,-7.26 -1.61,-9.63 -4.48,-4.17 -10.99,-2.52 -16.1,-0.63 0.51,-3.58 -1.71,-6.45 -5.1,-7.3 -5.03,2.03 -10.29,3.83 -14.68,7.1 -2.53,1.86 -2.44,5.34 -1.1,7.9 -6.18,0.44 -12.38,0.65 -18.56,0.32 -2.22,-4.78 -8.12,-2.67 -11.89,-5.04 -4.02,-2.58 -7.41,-6.03 -10.65,-9.5 -3.34,-3.38 -3.49,-9.01 -0.85,-12.85 3.83,-5.91 7.93,-11.84 9.81,-18.72 2.65,-9.57 4.36,-19.4 7.63,-28.79 3.88,-15.27 7.6,-30.6 10.47,-46.09 0.69,-2.87 3.55,-5.86 1.31,-8.75 -2.02,-3.22 -6.64,-2.26 -8.91,0.16 -2.38,-3.46 -4.51,-7.08 -6.83,-10.57 -3.32,-5 -8.74,-7.92 -13.69,-11.03 1.07,-2.58 1.18,-5.94 -1.42,-7.65 -4.52,-2.88 -9.34,-6.36 -14.98,-5.92 -3.7,0.07 -7.4,0.31 -11.09,0.63 -6.68,0.69 -12.72,3.83 -19.09,5.7 -3.02,0.94 -5.8,2.48 -8.68,3.76 0.45,-2.49 1.06,-4.94 1.73,-7.38 2.05,-6.81 2.3,-14.02 4.56,-20.78 0.62,-8.12 2.97,-16 3.31,-24.15 1.55,-9.95 1.26,-20.04 1.82,-30.05 3.99,-14.7 7.92,-29.55 14.14,-43.49 5.28,-8.22 9.95,-16.8 14.27,-25.56 3.59,-7.77 11.69,-11.91 16.38,-18.87 5.85,2.59 12.12,5.62 18.7,4.14 2.88,-1.06 3.55,-4.34 4.46,-6.89 7.79,2.63 16.48,5.36 24.48,1.87 4.76,-1.4 7.27,-6.03997 8.69,-10.43997 7.02,1.49 14.27,2.35 21.45,1.72 5.69,-0.85 8.89,-6.54 9.61,-11.79 5.64,0.39 8.8,6.09 14.33,6.74 4.76,0.67 9.89,0.27 14.12,-2.17 z"
     id="path7741"
     inkscape:connector-curvature="0"
     style="fill:#ffe1d5" />
  <path
     d="m 277.1425,163.22625 c 0.75,-3.72 5.89,-3.77 7.3,-0.49 6.13,10.85 7.67,23.49 10,35.54 -1.88,6.02 -3.92,11.99 -5.38,18.13 -0.51,0.1 -1.53,0.29 -2.04,0.39 -4.44,-7.96 -6.59,-16.95 -8.66,-25.76 -2.24,-9.03 -3.37,-18.68 -1.22,-27.81 z"
     id="path7743"
     inkscape:connector-curvature="0"
     style="fill:#353535" />
  <path
     d="m 690.2925,167.45625 c 2.36,-0.78 5.38,-0.62 7.14,1.36 3.83,3.81 2.8,11.23 -2.16,13.6 -4.62,2.57 -10.9,-2.12 -10.11,-7.25 0.25,-3.21 1.8,-6.71 5.13,-7.71 z"
     id="path7745"
     inkscape:connector-curvature="0"
     style="fill:#353535" />
  <path
     d="m 664.3225,253.47625 c 1.79,-0.75 4.14,-0.66 5.52,0.87 1.55,1.47 1.28,3.82 1.32,5.76 0.02,5.48 -3.47,9.97 -5.21,14.95 -0.76,2.36 -2.34,4.66 -4.97,5.04 -5.35,1.55 -10.34,-4.62 -8.55,-9.63 2.25,-6.53 5.25,-13.84 11.89,-16.99 z"
     id="path7747"
     inkscape:connector-curvature="0"
     style="fill:#353535" />
  <path
     d="m 438.1425,285.68625 c 14.03,-3.8 28.66,-3.91 43.07,-4.74 16.53,-0.99 31.76,6.69 47.82,9.18 7,1.33 14.86,0.75 20.95,5.04 3.9,2.61 1.98,9.5 -2.85,9.47 -3.51,-1.5 -6.97,-3.3 -10.86,-3.48 -11.15,-1.03 -22.05,-3.74 -32.71,-7.07 -3.58,-0.95 -7.37,-2.33 -11.09,-1.31 -17.77,3.72 -35.81,6.23 -53.26,11.33 -5.38,1.14 -10.87,2.1 -15.71,4.86 -3.23,2 -7.05,2.32 -10.76,2.03 -3.34,-0.72 -6.88,-3.15 -7.01,-6.85 0.71,-5.31 4.97,-9.4 9.55,-11.76 7.02,-3.98 15.11,-4.99 22.86,-6.7 z"
     id="path7749"
     inkscape:connector-curvature="0"
     style="fill:#000000" />
  <path
     d="m 492.4725,292.77625 c 3.72,-1.02 7.51,0.36 11.09,1.31 10.66,3.33 21.56,6.04 32.71,7.07 3.89,0.18 7.35,1.98 10.86,3.48 -1.44,6.4 -3.59,12.77 -7.39,18.18 -2.59,3.99 -6.06,7.27 -9.39,10.63 -5.1,-4.71 -10.89,-8.97 -17.8,-10.45 -6.51,-1.22 -12.68,-3.92 -19.32,-4.43 -12.38,-0.66 -25.41,-0.61 -36.73,5.16 -3.21,1.63 -6.2,3.77 -8.42,6.65 0.51,0.13 1.54,0.41 2.05,0.54 -2.08,4.19 -4.57,8.16 -6.75,12.29 -2.6,-4.12 -6.74,-6.81 -10.04,-10.29 -6.08,-5.9 -8.7,-14.41 -14.91,-20.19 -1.8,-0.85 -3.91,-0.78 -5.69,-1.73 3.71,0.29 7.53,-0.03 10.76,-2.03 4.84,-2.76 10.33,-3.72 15.71,-4.86 17.45,-5.1 35.49,-7.61 53.26,-11.33 z"
     id="path7751"
     inkscape:connector-curvature="0"
     style="fill:#ffd2c0" />
  <path
     d="m 677.3725,306.50625 c 4.93,-0.98 10.25,4.91 7.84,9.66 -1.02,2.62 -3.65,4.22 -6.28,4.8 -3.63,-0.23 -7.62,-2.84 -7.59,-6.85 -0.48,-3.79 2.55,-6.78 6.03,-7.61 z"
     id="path7753"
     inkscape:connector-curvature="0"
     style="fill:#353535" />
  <path
     d="m 333.0725,318.41625 c 2.4,0.08 4.62,-0.95 6.4,-2.49 4.95,3.11 10.37,6.03 13.69,11.03 2.32,3.49 4.45,7.11 6.83,10.57 -0.83,1.64 -1.55,3.35 -1.99,5.15 -2.91,16.13 -6.73,32.09 -10.88,47.95 -3.48,9.89 -4.91,20.36 -8.17,30.3 -2.71,7.93 -10.23,13.7 -10.94,22.33 -0.76,5.93 1.14,12.27 5.49,16.47 6.49,6.93 14.28,14.58 24.58,13.94 3.56,0.14 5.34,-3.44 4.99,-6.56 6.18,0.33 12.38,0.12 18.56,-0.32 2.01,1.27 4.65,2.45 6.71,0.55 4.32,-3.48 10.25,-4.22 14.17,-8.25 5.11,-1.89 11.62,-3.54 16.1,0.63 2.32,2.37 4.63,6.9 1.61,9.63 -6.43,6.66 -16.24,7.28 -23.76,12.16 -5.59,3.02 -9.03,8.56 -12.28,13.8 -4.33,7.05 -6.61,15.06 -9.34,22.8 -0.86,3.54 -6.25,4.62 -8.4,1.74 -4.51,-7 -1.64,-16.48 -6.96,-23.11 -2.92,-3.68 -5.89,-7.64 -10.17,-9.81 -3.42,-1.75 -7.64,-0.4 -10.08,2.37 -4.85,5.17 -5.76,12.52 -6.87,19.21 -2.05,9.98 -1.44,20.63 2.3,30.14 -0.56,2.93 0.16,6.54 3.41,7.48 5.01,1.71 10.15,3.03 15.12,4.89 13.06,4.76 27.15,5.26 40.91,5.07 6.87,-0.32 13.61,-1.95 20.28,-3.54 10.42,-2.33 20.41,-7.2 28.21,-14.56 l 0.95,-0.4 c -3,6.44 -9.59,9.76 -14.6,14.4 -6.5,5.98 -14.4,10.17 -21.04,15.98 -3.03,3.1 -5.45,6.74 -8.56,9.79 0.66,-4.17 2.22,-8.12 4.48,-11.67 1.42,-1.94 0.18,-4.19 -0.58,-6.08 -1.67,-0.61 -3.37,-1.67 -5.21,-1.09 -2.43,0.87 -3.59,3.33 -4.91,5.34 -1.66,-2.44 -5.32,-4.06 -7.81,-1.92 -2.24,2.68 -5.57,4.26 -7.26,7.42 -1.54,-2.12 -2.86,-5.4 -5.96,-5.31 -3.65,-0.52 -6.7,4.1 -4.72,7.23 2.32,4.29 5.11,8.34 8.41,11.95 -1.3,2.31 -1.83,4.97 -1.34,7.61 0.83,5.44 1.86,10.86 3.09,16.23 -2.99,5.06 -6.69,9.65 -9.77,14.64 -0.15,0.64 -0.46,1.92 -0.61,2.56 -2.98,-0.01 -5.49,1.88 -6.19,4.78 -2.49,-1.75 -5.45,-2.27 -8.37,-1.43 -3.96,-10.31 -12.37,-18.41 -14.97,-29.31 -3.59,-6.91 -5.06,-14.92 -10.27,-20.93 -3.41,-3.71 -6.71,-7.75 -8.16,-12.67 -2.6,-7.16 -5.88,-14.06 -8.99,-21 -3.35,-7.4 -8.78,-13.77 -11.27,-21.55 -1.19,-3.28 -0.28,-7.54 -3.45,-9.81 -1.28,-6.45 -1.74,-13.01 -1.63,-19.57 -0.93,-7.62 -1.99,-15.24 -3.11,-22.84 -0.16,-6.42 -1.45,-12.74 -1.89,-19.13 -0.1,-13.49 -0.7,-27.01 0.16,-40.48 1.26,-5.12 2.64,-10.21 2.81,-15.53 2.95,-9.96 3.72,-20.53 2.4,-30.83 1.42,-0.92 2.46,-2.26 3.48,-3.57 0.66,0.68 1.34,1.36 1.98,2.08 -0.56,0.24 -1.68,0.73 -2.25,0.97 0.3,4.97 5.54,6.89 9.47,8.48 10.84,0.96 21.45,-3.06 31.09,-7.64 4.22,-0.1 10.03,1.48 12.02,-3.6 0.86,-1.95 2.17,-4.09 1.51,-6.29 -1.05,-2.49 -3.08,-4.68 -5.76,-5.35 -0.43,-1.3 -0.55,-3.07 -2.15,-3.46 -5.89,-2.31 -11.48,-5.43 -17.6,-7.13 -6.96,-1.67 -14.1,0.21 -20.67,2.58 -4.94,1.78 -8.77,5.58 -12.04,9.56 -0.58,0.42 -1.72,1.28 -2.29,1.7 -1.42,-2.95 -1.39,-6.25 -2.12,-9.36 -1.37,-3.56 -3.9,-6.55 -5.16,-10.16 -0.96,-2.91 -0.99,-6.02 -1.06,-9.05 4.06,0.46 6.28,-3.42 9.85,-4.48 4.21,-2.12 9,-1.13 13.51,-1.19 9.01,-0.02 18.03,0.07 27.04,-0.04 z"
     id="path7755"
     inkscape:connector-curvature="0"
     style="fill:#ffd2c0" />
  <path
     d="m 456.5025,323.72625 c 11.32,-5.77 24.35,-5.82 36.73,-5.16 6.64,0.51 12.81,3.21 19.32,4.43 6.91,1.48 12.7,5.74 17.8,10.45 0.65,1.1 0.48,2.05 -0.53,2.83 -3.6,-1.43 -5.98,-4.67 -9.25,-6.62 -5.63,-3.66 -12.5,-4.11 -18.73,-6.21 -7.71,-2.47 -15.9,-2.16 -23.87,-1.87 -6.35,0.22 -12.65,1.66 -18.46,4.2 -3.31,1.4 -5.97,3.98 -9.38,5.14 -0.51,-0.13 -1.54,-0.41 -2.05,-0.54 2.22,-2.88 5.21,-5.02 8.42,-6.65 z"
     id="path7757"
     inkscape:connector-curvature="0"
     style="fill:#000000" />
  <path
     d="m 459.5125,325.77625 c 5.81,-2.54 12.11,-3.98 18.46,-4.2 7.97,-0.29 16.16,-0.6 23.87,1.87 6.23,2.1 13.1,2.55 18.73,6.21 3.27,1.95 5.65,5.19 9.25,6.62 -1.23,5.03 -5.29,8.59 -10.27,9.72 0.44,-3.62 -1.99,-6.64 -4.7,-8.7 -4.55,-3.1 -9.68,-5.34 -14.97,-6.85 -11.62,-3.72 -24.78,-1.84 -35.23,4.32 -5.28,2.99 -9.33,7.98 -15.17,9.99 -1.78,0.66 -3.82,1.25 -4.31,3.36 -1.28,-1.27 -2.7,-2.98 -1.79,-4.91 2.18,-4.13 4.67,-8.1 6.75,-12.29 3.41,-1.16 6.07,-3.74 9.38,-5.14 z"
     id="path7759"
     inkscape:connector-curvature="0"
     style="fill:#e2b8a7" />
  <path
     d="m 464.6525,334.76625 c 10.45,-6.16 23.61,-8.04 35.23,-4.32 5.29,1.51 10.42,3.75 14.97,6.85 2.71,2.06 5.14,5.08 4.7,8.7 -1.49,3.47 -5.48,2.26 -8.42,2.68 -4.43,1.19 -6.92,5.57 -10.96,7.46 -6.5,2.14 -13.41,2.19 -20.15,2.84 -8.46,1.52 -17.85,-0.81 -23.89,-7.14 -2.33,0.22 -5.08,1.15 -7.05,-0.61 -1.13,-1.26 -2.15,-2.71 -3.91,-3.11 0.49,-2.11 2.53,-2.7 4.31,-3.36 5.84,-2.01 9.89,-7 15.17,-9.99 z"
     id="path7761"
     inkscape:connector-curvature="0"
     style="fill:#000000" />
  <path
     d="m 478.9625,334.09625 c 1.62,-2.28 4.64,-2.24 7.15,-2.43 5.69,-0.38 11.25,1.21 16.61,2.95 1.52,2.98 3.6,6.02 2.92,9.56 0.13,2.86 -1.6,5.38 -4.32,6.23 -5.22,1.97 -10.58,4.34 -16.22,4.44 -8.17,-2.81 -11.05,-13.95 -6.14,-20.75 z"
     id="path7763"
     inkscape:connector-curvature="0"
     style="fill:#755034" />
  <path
     d="m 462.6725,339.83625 c 3.72,-2.84 8.03,-4.73 12.35,-6.48 -1.13,4.79 -2.45,9.94 -0.63,14.74 1.28,2.95 3.17,5.72 5.78,7.67 -7.37,1.5 -15.72,-0.15 -21.18,-5.57 -2.4,-2.7 -6.23,-0.29 -9.08,-1.96 4.76,-1.93 8.83,-5.15 12.76,-8.4 z"
     id="path7765"
     inkscape:connector-curvature="0"
     style="fill:#ffffff" />
  <path
     d="m 488.4825,333.77625 c 6.15,-3.34 12.36,4.65 11.34,10.46 -0.33,4.87 -6.19,7.89 -10.39,5.4 -5.37,-2.91 -7.6,-13.01 -0.95,-15.86 z"
     id="path7767"
     inkscape:connector-curvature="0"
     style="fill:#000000" />
  <path
     d="m 359.9925,337.52625 c 2.27,-2.42 6.89,-3.38 8.91,-0.16 2.24,2.89 -0.62,5.88 -1.31,8.75 -2.87,15.49 -6.59,30.82 -10.47,46.09 -3.27,9.39 -4.98,19.22 -7.63,28.79 -1.88,6.88 -5.98,12.81 -9.81,18.72 -2.64,3.84 -2.49,9.47 0.85,12.85 3.24,3.47 6.63,6.92 10.65,9.5 3.77,2.37 9.67,0.26 11.89,5.04 0.35,3.12 -1.43,6.7 -4.99,6.56 -10.3,0.64 -18.09,-7.01 -24.58,-13.94 -4.35,-4.2 -6.25,-10.54 -5.49,-16.47 0.71,-8.63 8.23,-14.4 10.94,-22.33 3.26,-9.94 4.69,-20.41 8.17,-30.3 4.15,-15.86 7.97,-31.82 10.88,-47.95 0.44,-1.8 1.16,-3.51 1.99,-5.15 z"
     id="path7769"
     inkscape:connector-curvature="0"
     style="fill:#000000" />
  <path
     d="m 507.1525,336.58625 c 4.01,1.59 7.58,4.14 9.81,7.91 -2.49,1.57 -5.62,0.68 -8.37,1.38 0.22,-3.16 0.75,-6.66 -1.44,-9.29 z"
     id="path7771"
     inkscape:connector-curvature="0"
     style="fill:#ffffff" />
  <path
     d="m 305.3425,341.43625 c 6.57,-2.37 13.71,-4.25 20.67,-2.58 6.12,1.7 11.71,4.82 17.6,7.13 1.6,0.39 1.72,2.16 2.15,3.46 -9.32,-1.33 -17.02,-8.73 -26.73,-8.1 -9.02,0.9 -18.8,4.13 -23.66,12.39 -0.5,0.01 -1.5,0.01 -2,0.02 -0.02,-0.69 -0.06,-2.07 -0.07,-2.76 3.27,-3.98 7.1,-7.78 12.04,-9.56 z"
     id="path7773"
     inkscape:connector-curvature="0"
     style="fill:#000000" />
  <path
     d="m 295.3725,353.73625 c 4.86,-8.26 14.64,-11.49 23.66,-12.39 9.71,-0.63 17.41,6.77 26.73,8.1 2.68,0.67 4.71,2.86 5.76,5.35 0.66,2.2 -0.65,4.34 -1.51,6.29 0.27,-3.23 -3.31,-4.03 -5.34,-5.64 -6.45,-4.45 -13.42,-8.98 -21.45,-9.53 -6.88,-0.55 -13.38,2.16 -19.59,4.74 -4.96,1.65 -6.76,7.05 -10.28,10.45 -0.73,-2.82 -1.3,-5.69 -2.34,-8.41 0.57,-0.42 1.71,-1.28 2.29,-1.7 0.01,0.69 0.05,2.07 0.07,2.76 0.5,-0.01 1.5,-0.01 2,-0.02 z"
     id="path7775"
     inkscape:connector-curvature="0"
     style="fill:#e2b8a7" />
  <path
     d="m 304.5325,353.69625 c 5.55,-2.39 11.31,-4.7 17.44,-4.8 -4.77,5.28 -3.87,13.13 -0.94,19.09 -5.65,0.68 -12.12,3.18 -17.22,-0.55 -2.14,-0.75 -2.86,-2.93 -4.13,-4.56 -0.64,-0.72 -1.32,-1.4 -1.98,-2.08 2.25,-2.39 3.51,-5.96 6.83,-7.1 z"
     id="path7777"
     inkscape:connector-curvature="0"
     style="fill:#ffffff" />
  <path
     d="m 322.3925,354.13625 c 0.7,-2.18 2.98,-3.19 4.61,-4.58 1.61,0.62 3.22,1.23 4.84,1.85 -1.76,2.15 -3.61,4.77 -2.98,7.72 0.22,1.95 1.79,3.27 2.85,4.79 -2.13,1.61 -5.32,2.59 -7.92,1.6 -2.38,-3.19 -2.6,-7.68 -1.4,-11.38 z"
     id="path7779"
     inkscape:connector-curvature="0"
     style="fill:#755034" />
  <path
     d="m 340.3525,356.28625 c 2.09,1.43 4.21,2.79 6.35,4.15 -1.7,2.2 -4.71,1 -7.05,1.08 0.23,-1.75 0.47,-3.49 0.7,-5.23 z"
     id="path7781"
     inkscape:connector-curvature="0"
     style="fill:#755034" />
  <path
     d="m 674.6525,363.38625 c 3.06,-0.11 6.7,-0.27 8.99,2.18 1.64,1.57 2.17,3.82 2.54,5.98 -2.1,-0.18 -4.52,-1.15 -6.32,0.39 -3.1,2.19 -5.46,5.2 -8.21,7.78 -2.52,2.51 -5.72,4.93 -6.24,8.71 -0.98,6.51 1.19,13.05 0.1,19.57 -0.64,5.23 -3.57,9.75 -6.57,13.94 -2.9,-0.64 -5.9,-1.5 -8.88,-0.82 -4.27,0.59 -7.81,3.2 -11.62,5 2.4,-6.85 4.17,-13.96 7.73,-20.33 1.6,0.44 3.26,1.23 4.97,0.7 2.36,-0.94 3.05,-3.68 4.9,-5.24 2.47,-2.56 6.02,-5.25 5.73,-9.2 -0.17,-2.79 -3.03,-4.24 -5.46,-4.66 1.75,-3.2 3.53,-6.39 5.77,-9.27 3.76,-5.27 9.31,-9.06 12.57,-14.73 z"
     id="path7783"
     inkscape:connector-curvature="0"
     style="fill:#e2b8a7" />
  <path
     d="m 679.8625,371.93625 c 1.8,-1.54 4.22,-0.57 6.32,-0.39 l 0.1,0.02 c 0.48,6.33 1.45,13 -1,19.08 -1.9,4.28 -3.24,8.8 -5.48,12.94 -2.74,5.12 -4.13,10.87 -5.01,16.57 0.02,9.5 -1.16,19.15 -5.08,27.89 -2.02,6.77 -6.97,12.24 -12.9,15.89 -6.35,3.56 -14,1.39 -20.68,3.59 -2.92,0.94 -3.19,4.31 -2.78,6.89 -2.17,2.4 -4.41,4.75 -6.94,6.78 -0.3,-0.25 -0.9,-0.76 -1.2,-1.01 1.95,-8.56 4.26,-17.4 3.13,-26.22 1.27,-0.6 2.55,-1.19 3.84,-1.77 1.11,-2.71 1.76,-5.58 2.38,-8.44 2.31,-0.12 5.02,-0.83 5.71,-3.38 1.52,-4.45 5.68,-7.37 9.93,-8.96 2.88,-1.39 6.37,1.29 8.93,-1.09 2.73,-2.04 2.13,-6.26 -0.19,-8.39 3,-4.19 5.93,-8.71 6.57,-13.94 1.09,-6.52 -1.08,-13.06 -0.1,-19.57 0.52,-3.78 3.72,-6.2 6.24,-8.71 2.75,-2.58 5.11,-5.59 8.21,-7.78 z"
     id="path7785"
     inkscape:connector-curvature="0"
     style="fill:#ffe1d5" />
  <path
     d="m 714.5825,394.85625 c 3.68,-1.63 7.26,-3.94 11.41,-4.05 4.69,-0.26 9.38,-0.56 14.07,-0.89 7.51,-0.34 15.51,-1.02 22.36,2.72 6.16,2.5 10.02,8.1 14.06,13.06 5.17,6.31 7.59,14.25 10.31,21.81 2.31,6.3 1.72,13.12 1.7,19.71 0.07,5.54 -3.24,10.2 -5.3,15.11 -3.02,6.56 -5.22,13.58 -9.4,19.54 -6.54,9.48 -11.74,19.9 -19.56,28.45 -2.13,2 -1.95,5.01 -2.14,7.69 -5.95,4.36 -11.37,9.36 -16.54,14.62 -7.74,7.51 -17.68,12.18 -25.58,19.49 -7.15,6.19 -13.7,13.06 -21.27,18.76 -6.91,5.31 -13,11.59 -18.92,17.96 -6.29,6.77 -9.96,15.36 -15,23.01 -4.16,6.76 -9.62,12.64 -13.34,19.69 -4.42,7.49 -7.39,15.69 -10.21,23.88 -3.68,13.32 -5.77,27.96 -15.13,38.78 -4.43,5.1 -6.69,11.73 -11.59,16.45 -6.41,6.63 -12.69,13.64 -20.65,18.45 -8.26,5.45 -16.41,11.9 -20.99,20.89 -3.37,6.39 -6.78,12.79 -9.54,19.48 -0.92,1.83 -0.3,4.03 0.85,5.61 2.3,2.49 6.73,1.25 8.15,-1.6 5.55,-10.16 8.96,-22.22 18.44,-29.62 5.16,-4.68 11.49,-7.77 16.8,-12.24 5.12,-4.88 10.37,-9.62 15.03,-14.95 4.19,-3.73 6.12,-9.12 9.38,-13.55 2.35,-3.34 5.18,-6.35 7.16,-9.94 6.27,-10.77 8.56,-23.18 11.78,-35.06 2.57,-7.47 5.27,-14.96 9.32,-21.77 3.8,-6.98 9.26,-12.85 13.34,-19.65 4.68,-7.04 8,-15.01 13.79,-21.27 5.75,-6.25 11.77,-12.31 18.56,-17.46 9.55,-7.33 17.55,-16.51 27.28,-23.63 6.89,-4.68 13.98,-9.23 19.94,-15.13 4.84,-4.85 9.82,-9.63 15.52,-13.48 1.86,-1.29 4.25,-0.96 6.36,-1.52 1.94,-1.29 3.12,-3.47 5.19,-4.62 3.09,-1.9 5.54,-4.78 9,-6.08 10.32,-4.37 20.95,-8.04 30.87,-13.32 12.06,-6.41 25.06,-11.53 35.47,-20.61 4.1,-3.49 7.2,-7.92 10.78,-11.91 0.44,11.18 -2.12,22.29 -6.13,32.66 -3.11,7.74 -6.75,15.39 -12.24,21.75 -4.97,6.98 -11.07,13.02 -16.16,19.91 -2.32,3.19 -5.92,5.01 -9.51,6.41 -10.93,4.43 -20.75,11.06 -30.67,17.34 -9.59,4.85 -19.45,9.37 -28.01,15.95 -8.59,6.71 -16.86,13.83 -24.94,21.15 -6.42,5.34 -13.91,9.24 -20.25,14.7 -4.67,3.96 -8.55,8.79 -13.55,12.38 -7.69,5.53 -15.28,11.52 -20.89,19.25 -2.91,4.04 -6.88,7.18 -9.6,11.36 -5.74,7.85 -13.78,13.9 -18.42,22.59 -5.32,10 -7.86,21.34 -14.15,30.86 -4.69,7.01 -9.9,13.71 -13.9,21.16 -4.46,7.73 -7.24,16.31 -11.96,23.89 -3.53,5.69 -6.72,11.74 -11.7,16.36 -11.79,12.67 -26.41,22.31 -41.72,30.22 -7.68,5.2 -16.34,8.76 -23.87,14.22 -9.74,6.76 -21.84,9.24 -31.13,16.71 -7.07,5.01 -13.93,10.3 -21.36,14.77 -8.13,4.67 -12.94,13.02 -19.73,19.21 -4.9,4.44 -9.7,8.97 -14.69,13.31 -3.63,3.18 -6.14,7.35 -8.48,11.52 -3.92,7.17 -9.1,13.52 -13.9,20.1 -4.24,5.24 -6.74,11.55 -9.29,17.71 -2.21,5.54 -4.81,11.01 -5.81,16.94 -1.27,7.33 -1.2,14.82 -2.61,22.14 -1.65,8.79 -1.79,17.84 -0.33,26.67 1.44,8.88005 2.23,18.02005 5.64,26.42005 0.9,2.43 3.16,3.88 5.17,5.34 5.43,5.6 7.57,13.72 13.32,19.07 4.06,3.48 11.36,0.94 11.73,-4.6 -0.18,-7.05 -5.32,-12.63 -7.19,-19.24 0.98,-1.81 2.31,-3.5901 2.28,-5.7401 0.47,-6.38 -3.2,-11.94 -4.45,-18 -2.12,-7.58995 0.02,-15.39995 0.54,-23.04995 0.48,-7.46 3.16,-14.5 4.82,-21.73 1.32,-5.07 1.88,-10.34 3.66,-15.28 3.68,-9.54 5.96,-20.17 13.41,-27.67 3.85,-3.58 7.96,-6.93 12.44,-9.68 6.93,-3.78 12.26,-9.86 19.22,-13.57 6.06,-3.13 12.42,-5.96 17.51,-10.61 3.47,-3.16 6.9,-6.38 10.18,-9.74 5.83,-5.99 12.87,-10.58 19.29,-15.89 4.24,-3.41 8.11,-7.29 12.57,-10.42 6.42,-4.51 13.02,-8.85 18.57,-14.43 5.25,-5.18 11.28,-9.46 17.33,-13.63 7.44,-5.13 12.99,-12.36 18.92,-19.05 5,-5.71 10.94,-10.48 16.92,-15.09 2.05,-3.23 -0.54,-6.46 -3.25,-8.14 2.3,-2 5.54,-2.37 7.89,-4.22 2.25,-2.69 0.39,-6.07 -1.63,-8.21 3.96,-7.88 7.13,-16.16 11.61,-23.78 3.58,-6.26 8.01,-11.97 12.01,-17.95 5.97,-8.82 9.09,-19.1 13.25,-28.8 3.7,-8.28 10.5,-14.52 16.65,-20.97 1.93,-0.41 4.34,-0.02 5.81,-1.63 10.55,-10.78 23.55,-18.68 36.05,-26.97 4.25,-2.92 9.05,-4.87 13.44,-7.54 4.04,-2.47 8.34,-4.46 12.74,-6.17 9.19,-3.56 17.83,-8.47 25.87,-14.14 5.83,-4.08 12,-7.67 18.51,-10.54 10.39,-4.37 20.29,-9.78 30.56,-14.44 14.17,-6.19 27.81,-13.5 41.68,-20.31 4.04,-1.95 7.97,-4.13 11.65,-6.7 l 0,593.35005 -423.57,0 c 0.92,-16.85 -0.84,-33.81 1.18,-50.6 1.68,-10.37 3.13,-20.85 6.07,-30.96 1.48,-5.78 7.77,-7.93 13.04,-8.67 15.08,-1.93 30.57,1.52 44.02,8.41 10.34,5.12 19.03,13.14 29.78,17.46 2.56,1.15 5.73,0.34 7.6,-1.69 1.59,-3.24 -1.34,-6.6 -4.25,-7.76 -9.6,-4.26 -17.62,-11.22 -26.89,-16.08 -4.18,-2.37 -8.66,-4.13 -13.14,-5.82 -4.14,-1.46 -6.61,-5.31 -9.59,-8.26 0.79,-7.52 4.54,-14.22 8.11,-20.73 3.1,-5.31 6.1,-11.07 11.43,-14.49 9.76,-6.59 21.73,-8.27 33.07,-10.35 8.6,-1.65 17.38,-1.98 26.13,-1.78 3.42,-0.11 7.72,0.63 10.08,-2.53 2.84,-2.52005 -0.26,-6.52005 -3.19,-7.20005 -4.92,-0.77 -9.93,-0.15 -14.88,-0.27 -10.64,-0.19 -21.05,2.2 -31.47,3.96 0.04,-9.44 5.24,-17.95 11.47,-24.67 7.63,-7.66 16.84,-13.49 26.15,-18.87 1.02,1.21 1.98,2.51 3.22,3.55 1.92,1.39 4.7,0.57 6.19,-1.09 2.3,-2.49 -0.33,-7.23 2.84,-9.02 17.65,-9.3 37.05,-14.61 56.49,-18.6 2.12,-0.4 3.82,-2.01 4.73,-3.91 0.72,-3.57 -3.48,-6.16 -6.66,-5.73 -6.12,0.47 -11.96,2.59 -17.9,3.97 -11.75,2.83 -23.14,6.93 -34.19,11.77 4.35,-10.22 10.09,-19.79 15.92,-29.22 8.92,-14.37 21.49,-25.84 32.76,-38.28 5.46,-5.98 10.13,-12.59 14.73,-19.23 6.66,-9.21 15.2,-16.82 22.64,-25.38 5.86,-6.87 13.43,-11.9 20.08,-17.92 7.45,-6.59 15.65,-13.77 26.02,-14.6 3.38,-0.42 5.57,-3.49 8.73,-4.53 4.92,-1.68 10.19,-1.75 15.32,-2.37 8.78,-0.78 17.38,-2.79 26.1,-4.02 9.57,-1.2 19.2,-1.73 28.84,-1.85 15.98,-1.12 32,-0.74 48,-0.81 5.96,-0.07 11.89,1.32 17.85,0.75 2.19,-0.49 4.91,-1.49 5.77,-3.74 0.95,-3.45 -3,-5.25 -5.7,-5.84 -13.93,-1.63 -27.96,-1.11 -41.95,-1.18 -11.01,-0.24 -21.99,0.97 -33,1.02 -12.91,0.49 -25.78,1.98 -38.41,4.73 -2.15,-7.65 -1.91,-15.65 -3.2,-23.43 -2.22,-14.92 -4.62,-29.89 -9.21,-44.3 -2.79,-9.87 -7.22,-19.28 -9.07,-29.41 -0.13,-5.22 0.91,-10.7 -0.83,-15.72 -2.45,-5.06 -9.95,-4.86 -12.79,-0.26 -0.27,1.37 -0.49,2.75 -0.59,4.15 -0.74,7.14 0.59,14.26 0.53,21.41 -0.07,6.33 0.22,12.68 -0.26,19.02 -1.38,12.39 -2.42,24.85 -4.99,37.08 -2.79,13.45 -5.52,27.72 -1.18,41.15 -12.97,4.9 -22.21,15.57 -32.93,23.84 -5.23,4.04 -9.63,8.97 -14,13.89 -7.92,8.46 -16.3,16.6 -22.65,26.36 -9.15,13.92 -21.87,24.87 -32.62,37.46 -11.7,13.32 -20.25,29.01 -28.17,44.77 -2.16,4.12 -3.15,8.74 -5.16,12.93 -3.36,2.79 -7.54,4.37 -11.17,6.77 -13.35,8.09 -26.87,17.79 -33.67,32.34 -3.34,6 -4.17,12.9 -4.02,19.66005 -9.13,2.83 -18.2,7.48 -23.91,15.4 -3.51,4.97 -6.49,10.3 -9.3,15.7 -3.54,7.19 -7.08,15.04 -5.61,23.27 -11.08,-0.69 -23.28,-1.3 -32.98,5.07 -6.72,4.37 -8.6,12.7 -10.04,20.05 -2.42,12.97 -5.35,25.99 -5.1,39.26 0.09,11.99 -0.14,23.98 0.14,35.97 l -78.33,0 c 0.13,-27.98 -0.19,-55.97 0.16,-83.95 1.1,-12 0.06,-24.09 1.36,-36.08 0.41,-4.04 0.42,-8.1 0.33,-12.15 1.82,-1.23 4.72,-2.19 4.5,-4.88 -0.21,-4.79 -2.8,-9.1 -3.05,-13.88 -0.48,-8.43005 1.22,-16.76005 1.5,-25.15005 0.4,-10.42 2.38,-20.71 4.77,-30.83 1.64,-9.01 3.43,-18.03 6.27,-26.75 2.08,-6.2 5.39,-11.87 8.2,-17.74 3.83,-8.04 9.06,-15.32 12.83,-23.39 8.17,-18.27 17.71,-35.9 27.8,-53.18 6.78,-11.56 15.27,-21.95 23.13,-32.77 10.66,-14.42 17.33,-31.21 26.43,-46.57 5.81,-9.82 11,-20.01 17.29,-29.53 3.01,5.84 4.91,12.15 7.31,18.26 4.02,9.81 4.24,20.63 7.76,30.6 2.04,5.31 2.88,10.96 4.55,16.38 0.97,3.58 3.21,7.61 7.43,7.64 6.39,0.12 10.37,-5.76 13.69,-10.39 5.26,-7.13 7.25,-15.91 11.16,-23.74 2.57,-5.23 3.74,-11.1 7.03,-15.96 1.79,-2.67 3.69,-5.3 6.11,-7.42 1.04,-0.99 2.26,-1.83 3.06,-3.05 7.43,-14.38 18.53,-26.36 28.37,-39.08 5.15,-7.4 10.17,-14.98 13.94,-23.2 3.42,-7.05 6.25,-14.48 10.98,-20.8 4.99,-6.72 10.09,-13.41 14.08,-20.79 6.29,-11.57 12.96,-22.9 20,-34.02 8.72,-16.55 18.76,-32.36 29.34,-47.77 7.72,-10.83 19.8,-17.08 30.34,-24.71 9.43,-7.32 20.91,-11.39 30.39,-18.64 3.86,-3.08 7.33,-6.62 11.18,-9.71 5.43,-4.56 11.46,-8.55 15.85,-14.21 7.64,-10.52 12.04,-23.49 11.25,-36.58 0.76,-7.79 -3.44,-14.83 -8.44,-20.42 -3.04,-3.02 -7.24,-4.45 -11.23,-5.74 -8.38,-2.44 -17.6,-3.38 -26,-0.55 -2.95,1.12 -6.34,4.55 -4.35,7.86 3.2,2.62 7.56,1.43 11.28,1.03 -0.93,8.23 -2.82,16.58 -7.27,23.67 -7.1,11.24 -16.28,21.09 -26.66,29.39 -6.69,5.6 -13.59,10.95 -20.2,16.64 -3.73,3.2 -7.13,7.48 -6.84,12.69 -3,2.89 -6.31,5.42 -9.53,8.06 -3.94,3.18 -7.04,7.22 -10.66,10.72 0,-0.6 -0.01,-1.79 -0.01,-2.39 6.68,-12.46 11.59,-25.91 13.71,-39.92 0.07,-2.55 1.84,-4.33 3.4,-6.12 1.84,-1.95 0.2,-4.6 -0.41,-6.72 9.27,-6.99 13.25,-18.3 16.27,-29.05 2.73,0.23 5.63,1.03 8.29,0 2.56,-1.03 3.73,-3.7 5.18,-5.84 2.05,-3.52 5.11,-6.29 7.28,-9.72 1.48,-2.33 2.32,-4.99 3.7,-7.37 1.73,-2.19 4.71,-3.23 5.97,-5.84 2.66,-5.15 1.97,-11.12 1.24,-16.64 z"
     id="path7787"
     inkscape:connector-curvature="0"
     style="fill:#4a4a4a" />
  <path
     d="m 724.1925,414.40625 c 8.4,-2.83 17.62,-1.89 26,0.55 3.99,1.29 8.19,2.72 11.23,5.74 5,5.59 9.2,12.63 8.44,20.42 0.79,13.09 -3.61,26.06 -11.25,36.58 -4.39,5.66 -10.42,9.65 -15.85,14.21 -3.85,3.09 -7.32,6.63 -11.18,9.71 -9.48,7.25 -20.96,11.32 -30.39,18.64 -10.54,7.63 -22.62,13.88 -30.34,24.71 -10.58,15.41 -20.62,31.22 -29.34,47.77 -7.04,11.12 -13.71,22.45 -20,34.02 -3.99,7.38 -9.09,14.07 -14.08,20.79 -4.73,6.32 -7.56,13.75 -10.98,20.8 -3.77,8.22 -8.79,15.8 -13.94,23.2 -9.84,12.72 -20.94,24.7 -28.37,39.08 -0.8,1.22 -2.02,2.06 -3.06,3.05 -1.91,-0.8 -4.53,-0.96 -5.53,-3.06 -0.84,-2.08 -0.37,-4.44 0.53,-6.4 9.9,-18.44 25.79,-32.71 36.31,-50.75 6.15,-9.85 9.38,-21.29 16.17,-30.77 4.18,-5.84 8.73,-11.42 12.36,-17.64 5.62,-9.73 10.78,-19.73 16.86,-29.18 4.19,-6.33 7.74,-13.03 11.34,-19.69 7.16,-12.29 14.81,-24.3 22.87,-36.03 6.49,-9.85 16.41,-16.66 26.1,-23.05 6.48,-4.14 12.35,-9.25 19.29,-12.67 7.96,-4.46 16.38,-8.48 22.92,-15.01 6.28,-6.1 13.96,-10.64 19.81,-17.19 6.47,-8.53 10.34,-19.23 9.74,-30.02 0.71,-5.84 -2.24,-11.51 -6.63,-15.17 -3.55,-2.2 -7.75,-2.94 -11.76,-3.83 -1.49,9.86 -3.41,19.97 -8.8,28.55 -7.18,11.43 -16.19,21.72 -26.64,30.27 -7.79,6.59 -15.85,12.86 -23.57,19.54 -3.39,2.87 -7.7,5.42 -12.3,4.11 -0.29,-5.21 3.11,-9.49 6.84,-12.69 6.61,-5.69 13.51,-11.04 20.2,-16.64 10.38,-8.3 19.56,-18.15 26.66,-29.39 4.45,-7.09 6.34,-15.44 7.27,-23.67 -3.72,0.4 -8.08,1.59 -11.28,-1.03 -1.99,-3.31 1.4,-6.74 4.35,-7.86 z"
     id="path7789"
     inkscape:connector-curvature="0"
     style="fill:#000000" />
  <path
     d="m 741.4625,423.21625 c 4.01,0.89 8.21,1.63 11.76,3.83 4.39,3.66 7.34,9.33 6.63,15.17 0.6,10.79 -3.27,21.49 -9.74,30.02 -5.85,6.55 -13.53,11.09 -19.81,17.19 -6.54,6.53 -14.96,10.55 -22.92,15.01 -6.94,3.42 -12.81,8.53 -19.29,12.67 -9.69,6.39 -19.61,13.2 -26.1,23.05 -8.06,11.73 -15.71,23.74 -22.87,36.03 -3.6,6.66 -7.15,13.36 -11.34,19.69 -6.08,9.45 -11.24,19.45 -16.86,29.18 -3.63,6.22 -8.18,11.8 -12.36,17.64 -6.79,9.48 -10.02,20.92 -16.17,30.77 -10.52,18.04 -26.41,32.31 -36.31,50.75 -0.9,1.96 -1.37,4.32 -0.53,6.4 1,2.1 3.62,2.26 5.53,3.06 -2.42,2.12 -4.32,4.75 -6.11,7.42 -3.29,4.86 -4.46,10.73 -7.03,15.96 -3.91,7.83 -5.9,16.61 -11.16,23.74 -3.32,4.63 -7.3,10.51 -13.69,10.39 -4.22,-0.03 -6.46,-4.06 -7.43,-7.64 2.51,0.08 5.81,1.29 7.6,-1.16 1.73,-2.05 0.84,-4.85 0.77,-7.25 -0.8,-5.03 1.18,-9.85 2.51,-14.59 1.68,-5.34 2.85,-10.84 5.02,-16.01 4.03,-10.04 11.75,-17.95 16.36,-27.67 4.21,-7.87 10.38,-14.57 14.13,-22.71 3.13,-6.9 4.14,-14.6 7.8,-21.28 2.62,-4.83 5.59,-9.53 7.17,-14.83 2.59,-8.56 5.56,-17.06 6.91,-25.93 0.74,-5.93 4.53,-10.73 7.26,-15.85 3.96,-7.04 11.97,-9.94 17.5,-15.45 6.31,-5.43 10.84,-12.48 16.53,-18.5 4.49,-4.95 9.03,-10.02 11.89,-16.13 7.11,-14.96 15.06,-29.5 22.84,-44.11 0,0.6 0.01,1.79 0.01,2.39 3.62,-3.5 6.72,-7.54 10.66,-10.72 3.22,-2.64 6.53,-5.17 9.53,-8.06 4.6,1.31 8.91,-1.24 12.3,-4.11 7.72,-6.68 15.78,-12.95 23.57,-19.54 10.45,-8.55 19.46,-18.84 26.64,-30.27 5.39,-8.58 7.31,-18.69 8.8,-28.55 z"
     id="path7791"
     inkscape:connector-curvature="0"
     style="fill:#323232" />
  <path
     d="m 808.9725,440.03625 c 7.81,-1.93 16,-4.09 24.06,-2.55 7.28,2.75 15.33,6.42 18.65,13.99 -0.74,6.32 -4.69,11.82 -8.74,16.55 -8.79,10.03 -21.57,14.84 -33.02,21.03 -12.76,6.83 -26.39,11.82 -39.77,17.24 4.77,-7.84 9.79,-15.52 14.78,-23.22 3.9,-7.58 6.68,-15.69 10.59,-23.27 2.26,-4.39 3.05,-9.33 3.06,-14.23 3.17,-2.33 6.47,-4.69 10.39,-5.54 z"
     id="path7793"
     inkscape:connector-curvature="0"
     style="fill:#323232" />
  <path
     d="m 382.7325,458.88625 c 4.39,-3.27 9.65,-5.07 14.68,-7.1 3.39,0.85 5.61,3.72 5.1,7.3 -3.92,4.03 -9.85,4.77 -14.17,8.25 -2.06,1.9 -4.7,0.72 -6.71,-0.55 -1.34,-2.56 -1.43,-6.04 1.1,-7.9 z"
     id="path7795"
     inkscape:connector-curvature="0"
     style="fill:#000000" />
  <path
     d="m 633.3525,474.41625 c 1.3,1.26 2.69,2.98 4.76,2.54 5.53,-0.7 11.18,-0.28 16.63,-1.68 -1.87,11.94 -4.71,23.82 -10.02,34.74 -8.21,17.15 -18.16,33.42 -26.1,50.71 -4.14,9.28 -12.47,15.6 -18.35,23.67 -5.57,7.51 -13.09,13.17 -20.8,18.3 -0.22,-0.37 -0.66,-1.1 -0.89,-1.46 3.38,-3.83 6.98,-7.52 9.68,-11.89 2.92,-4.77 6.51,-9.2 8.55,-14.46 4.02,-10.05 7.96,-20.16 12.83,-29.83 2.63,-7.61 6.51,-14.85 7.65,-22.91 1.36,-8.38 3.99,-16.53 4.68,-25.02 0.41,-5.76 2.12,-11.3 3.24,-16.94 0.3,0.25 0.9,0.76 1.2,1.01 2.53,-2.03 4.77,-4.38 6.94,-6.78 z"
     id="path7797"
     inkscape:connector-curvature="0"
     style="fill:#e2b8a7" />
  <path
     d="m 850.3225,522.38625 c 8.16,-12.25 12.42,-26.55 15.74,-40.75 l 0,80.17 c -3.68,2.57 -7.61,4.75 -11.65,6.7 -13.87,6.81 -27.51,14.12 -41.68,20.31 -10.27,4.66 -20.17,10.07 -30.56,14.44 -6.51,2.87 -12.68,6.46 -18.51,10.54 -8.04,5.67 -16.68,10.58 -25.87,14.14 -4.4,1.71 -8.7,3.7 -12.74,6.17 -4.39,2.67 -9.19,4.62 -13.44,7.54 -12.5,8.29 -25.5,16.19 -36.05,26.97 -1.47,1.61 -3.88,1.22 -5.81,1.63 4.06,-4.41 7.83,-9.08 11.38,-13.9 5.2,-7.11 11.98,-12.88 19.18,-17.89 5.51,-3.76 9.6,-9.11 14.71,-13.34 6.51,-5.65 14.43,-9.4 20.8,-15.2 5.47,-5.26 11.54,-9.84 17.18,-14.91 8.21,-7.14 17.61,-12.73 27.38,-17.46 10.09,-4.49 18.63,-11.73 28.6,-16.46 5.62,-3.1 12.2,-4.56 17.05,-8.96 3.26,-2.79 5.48,-6.5 8.27,-9.71 5.69,-6.39 10.97,-13.13 16.02,-20.03 z"
     id="path7799"
     inkscape:connector-curvature="0"
     style="fill:#141414" />
  <path
     d="m 128.9625,493.22625 c 8.2,-3.02 17.78,-2.47 25.1,2.52 -0.04,4.25 4.17,6 6.46,8.92 3.79,4.52 4.46,10.62 5.51,16.21 -0.09,6.23 0.2,12.47 1.35,18.62 -5.4,-3.21 -11.43,-5.04 -17.72,-5.24 -2.13,-0.61 -4.66,-1.66 -6.65,-0.14 -1.98,1.3 -2.24,3.86 -2.32,6.02 -0.13,5.03 -0.62,10.19 0.81,15.1 0.9,3.36 2.96,6.26 4.96,9.06 -0.24,13.99 4.61,27.74 11.87,39.57 7.51,10.2 19.73,15.65 31.77,18.45 5.17,0.45 11.31,1.06 15.56,-2.53 4.43,-3.49 9.95,-5.13 14.45,-8.51 6.71,-4.85 12.92,-10.65 17.32,-17.72 2.62,-4.13 6.41,-7.32 9.23,-11.29 3.61,-1.43 7.59,-0.82 11.32,-0.28 2.61,0.46 5.59,1.58 6.66,4.24 0.66,3.55 -1.11,6.89 -2.71,9.94 -2.9,5.12 -6.53,9.96 -11.32,13.46 -2.88,2.12 -5.52,4.53 -8.04,7.07 -3.91,3.95 -9.32,5.84 -13.46,9.52 -4.33,3.8 -9.29,6.84 -13.46,10.85 -6.19,0.99 -12.4,2.58 -17.83,5.8 -7.12,4.21 -14.05,8.75 -21.34,12.66 -6.58,3.54 -12.96,7.53 -18.49,12.58 -10.86,10.23 -22.19,20.75 -28.19,34.71 -6.99,15.45 -7.41,32.74 -6.76,49.39 0.76,14.19 4.67,27.98 8.43,41.62 5.91,20.73 9.29,42.09 12.16,63.43 1.3,8.21 0.81,16.63 2.67,24.76 1.52,6.61 1.55,13.45 2.88,20.1 2.37,12.01 4.22,24.13 7,36.06 2.01,8.25 3.32,16.65 4.86,25.01 1.45,7.8 2.02,15.8 4.59,23.36 2.76,8.37 4.29,17.06005 6.68,25.53005 3.77,12.11 7.31,24.29 11.63,36.22 2.8,9.27 5.53,18.56 8.22,27.87 2.98,13.19 6.41,26.3 10.81,39.1 5.56,13.65 10.61,27.75 19.18,39.89 l -176.54,0 c -5.24,-17.18 -6.63,-35.23 -11.3,-52.56 -2.96,-10.22 -2.64,-20.96 -3.45,-31.47 -0.3,-17.67 -0.13,-35.34 -0.21,-53.01 -0.17,-8.4401 1.26,-16.81 3.17,-25.00005 2.37,-11.2 1,-22.84 3.87,-33.94 1.6,-9.26 1.84,-18.73 4.13,-27.87 2.03,-8.61 0.98,-17.53 2.16,-26.24 0.56,-4.29 1.69,-8.51 1.76,-12.85 0.16,-10.25 4.16,-19.91 5.43,-29.99 0.44,-17.66 -0.02,-35.33 0.25,-52.99 0.85,-8.67 1.07,-17.4 0.78,-26.1 -0.19,-4.13 -1.82,-7.96 -3.03,-11.84 -2.2,-6.86 -3.42,-14.08 -6.71,-20.55 -3.42,-6.35 -3.3,-13.8 -6,-20.4 -2.65,-7.86 -8.77,-13.72 -12.82,-20.79 -3,-5.28 -6.49,-10.4 -8.01,-16.35 -1.75,-6.85 -5.38,-13.16 -6.49,-20.16 3.26,-8.25 1.54,-17.3 2.42,-25.94 1.48,-13.56 0.52,-27.22 0.96,-40.82 0.57,-6.76 1.85,-13.43 2.4,-20.19 1.69,-11.91 2.19,-23.98 4.58,-35.79 1.66,-7.45 5.25,-14.26 7.39,-21.56 2.63,-6.61 3.58,-14.68 9.67,-19.21 3.63,-3.19 8.91,-0.66 13.02,-2.73 3.83,-1.11 6.22,-5.55 10.46,-5.24 5.8,0.13 11.76,0.06 17.26,-2.03 4.46,-1.77 7.57,-5.68 11.76,-7.9 9.73,-2.36 18.37,4.59 28.01,3.95 4.09,0.06 8.1,-0.92 11.89,-2.36 z"
     id="path7801"
     inkscape:connector-curvature="0"
     style="fill:#ffe1d5" />
  <path
     d="m 166.0325,520.87625 c 2.64,16.61 1.51,33.5 1.67,50.25 -7.19,-3.5 -11.57,-10.35 -15.8,-16.81 -3.28,-6.29 0.7,-13.73 -2.24,-20.06 6.29,0.2 12.32,2.03 17.72,5.24 -1.15,-6.15 -1.44,-12.39 -1.35,-18.62 z"
     id="path7803"
     inkscape:connector-curvature="0"
     style="fill:#e2b8a7" />
  <path
     d="m 440.0525,527.99625 c 2.6,-0.86 4.88,-4.05 7.84,-2.72 2.67,0.83 4.41,4.23 3,6.79 -1.52,2.8 -4.59,4.21 -7.35,5.52 l -0.95,0.4 c -4.51,1.1 -8.97,2.57 -13.63,2.89 -9.97,0.63 -19.93,-0.47 -29.89,-0.49 -5.84,-0.3 -11.35,2.97 -17.19,1.55 -11.6,-0.88 -23.36,-0.85 -34.88,0.93 -3.37,0.12 -5.3,4.03 -8.93,3.26 -3.25,-0.94 -3.97,-4.55 -3.41,-7.48 4.11,-6.69 12.7,-5.49 19.37,-6.76 10.96,-0.88 22.03,-0.39 32.97,0.1 17.39,-4.67 36.04,2.95 53.05,-3.99 z"
     id="path7805"
     inkscape:connector-curvature="0"
     style="fill:#000000" />
  <path
     d="m 428.9625,540.87625 c 4.66,-0.32 9.12,-1.79 13.63,-2.89 -7.8,7.36 -17.79,12.23 -28.21,14.56 -6.67,1.59 -13.41,3.22 -20.28,3.54 -13.76,0.19 -27.85,-0.31 -40.91,-5.07 -4.97,-1.86 -10.11,-3.18 -15.12,-4.89 3.63,0.77 5.56,-3.14 8.93,-3.26 11.52,-1.78 23.28,-1.81 34.88,-0.93 5.84,1.42 11.35,-1.85 17.19,-1.55 9.96,0.02 19.92,1.12 29.89,0.49 z"
     id="path7807"
     inkscape:connector-curvature="0"
     style="fill:#e2b8a7" />
  <path
     d="m 146.4625,564.29625 c 2.74,3.41 4.99,7.27 8.31,10.19 3.71,2.96 8.14,4.95 11.58,8.28 3.42,3.32 7.36,6.02 11.22,8.79 4.08,2.88 7.34,7.41 12.59,8.21 6.81,0.69 13.84,0.28 20.35,-1.99 9.33,-3.19 17.97,-8.04 26.76,-12.42 3.02,-1.36 6.27,-2.03 9.39,-3.09 -2.82,3.97 -6.61,7.16 -9.23,11.29 -4.4,7.07 -10.61,12.87 -17.32,17.72 -4.5,3.38 -10.02,5.02 -14.45,8.51 -4.25,3.59 -10.39,2.98 -15.56,2.53 -12.04,-2.8 -24.26,-8.25 -31.77,-18.45 -7.26,-11.83 -12.11,-25.58 -11.87,-39.57 z"
     id="path7809"
     inkscape:connector-curvature="0"
     style="fill:#e2b8a7" />
  <path
     d="m 554.2725,623.38625 c 4.56,-4.49 9.35,-8.74 14.51,-12.52 -0.65,4.2 -1.74,8.3 -3.02,12.35 -1.68,5.17 -1.96,10.66 -3.52,15.87 -1.35,4.72 -2.78,9.41 -4.2,14.12 -2.32,8.88 -8.91,15.9 -11.08,24.86 l -0.43,-0.42 c -5.01,-5.23 -12.25,-8.27 -19.45,-8.47 -7.57,2.94 -13.85,8.49 -21.42,11.53 -7.67,2.96 -15.34,6.04 -23.42,7.69 l -0.18,0.04 c -3.45,-7.21 -8.74,-13.38 -14.38,-18.96 5.87,0.07 11.62,-1.25 17.36,-2.36 8.74,-1.82 16.01,-7.26 23.96,-10.98 4.79,-2.3 8.2,-6.49 12.59,-9.37 3.13,-2.31 6.75,-3.93 9.71,-6.48 7.05,-6.44 16.06,-10.28 22.97,-16.9 z"
     id="path7811"
     inkscape:connector-curvature="0"
     style="fill:#e2b8a7" />
  <path
     d="m 313.8825,649.04625 c 5.37,-11.22 11.4,-23.17 22.28,-29.96 3.33,4.91 6.36,10.09 8.33,15.72 1.3,3.45 -1.01,6.78 -1.95,10.02 -3.3,10.59 -8.82,20.32 -12.15,30.92 -4.18,13.96 -7.74,28.11 -11.02,42.32 -1.05,3.99 -2.72,7.79 -3.72,11.8 -1.7,7.14 -5.42,13.54 -8.8,19.97 -2.47,6.5 -5.93,12.63 -7.63,19.4 -1.65,6.75 -5.16,12.83 -7.96,19.15 -1.84,3.93 -2.95,8.17 -4.98,12.02 -4.51,8.18 -8.67,16.7 -10.95,25.8 -1.44,12.28 0.17,24.88 4.3,36.52 3.3,7.62 6.68,15.32 11.66,22.03 2.16,3.35 4.74,6.55 5.86,10.45 1.59,5.6 5.27,10.27 7.24,15.72 -3.67,-1.61 -6.92,-5.69 -11.34,-4.09 -4.97,2.16 -5.45,8.9 -10.45,11.03 -2.7,0.98 -5.66,0.93 -8.49,0.8 -4.47,-0.24 -8.35,-4.69 -12.95,-2.66 -5.2,2.82 -4.87,9.73 -8.3,14 -4.83,5.72 -12.16,8.11 -18.9,10.77 -4.32,2.19 -9.39,2.95 -13.1,6.23 -2.68,2.3 -5.87,4.03 -8.03,6.89 -2.91,-8.87 -7.53,-17.02 -10.94,-25.69 -2.05,-4.05 -1.49,-8.71 -1.61,-13.08 0.17,-10.73 -0.31,-21.59 -3.19,-31.98 -1.85,-6.51 -1.04,-13.38 -2.53,-19.95 -1.03,-4.72 -1.23,-9.57 -2.34,-14.27 -2.69,-10.06 -3.12,-20.52 -4.27,-30.82 -0.94,-8.99 0.67,-18.17 -1.48,-27.03 -0.34,-2.27 -1.34,-4.55 -0.92,-6.84 3.01,-7.32 9.03,-12.98 15.75,-16.95 4.29,6.3 6.95,13.68 12.26,19.29 6.54,6.59 11.23,14.71 17.59,21.47 5.23,5.46 9.52,11.86 15.61,16.47 3.79,2.81 7.14,6.14 10.28,9.65 2.58,3.23 8.47,1.03 8.49,-3.03 0.35,-2.31 -1.45,-4.01 -2.76,-5.64 -4.74,-5.65 -11.43,-9.25 -16.14,-14.94 -5.39,-6.61 -11.5,-12.62 -16.42,-19.62 -4.76,-7.12 -11.77,-12.53 -15.47,-20.39 -1.81,-2.42 -1.23,-5.49 -1.87,-8.23 -1.19,-2.16 -3.43,-3.41 -5.32,-4.86 -0.11,-1.36 -0.27,-2.72 -0.22,-4.06 2.93,-3.06 6.63,-5.58 8.25,-9.67 3.11,-7.13 6.3,-14.56 12.09,-19.97 3.65,-2.12 8.09,-2.34 12.17,-1.63 0.55,8.87 0.56,17.96 3.79,26.39 3.12,10.22 9.94,18.71 13.85,28.58 2.59,6.24 5.35,12.41 8.14,18.56 2.48,4.46 10.12,1.4 8.99,-3.53 -1.92,-6.49 -5.44,-12.37 -7.79,-18.69 -3.72,-9.87 -10.6,-18.23 -13.75,-28.34 -2.89,-7.64 -2.8,-15.9 -3.07,-23.93 -0.06,-6.7 1.17,-13.61 4.66,-19.4 4.12,-5.93 11.9,-7.49 18.68,-7.39 -0.47,8.34 1.04,16.6 2.19,24.83 1.51,9.41 3.66,18.75 6.86,27.74 1.08,3.13 5.71,3.74 7.86,1.37 2.09,-1.81 1.6,-4.84 0.84,-7.15 -4.33,-12.57 -6.24,-25.81 -7.66,-38.98 -0.69,-4.74 0.76,-9.38 0.91,-14.09 -0.02,-3.6 3.2,-6.67 6.77,-6.7 5.05,-0.58 11.72,-0.6 14.2,-5.99 2.24,-8.96 4.39,-18.05 8.57,-26.36 z"
     id="path7813"
     inkscape:connector-curvature="0"
     style="fill:#4a4a4a" />
  <path
     d="m 197.8225,642.86625 c 5.43,-3.22 11.64,-4.81 17.83,-5.8 -3.08,3.65 -5.21,7.95 -7.65,12.03 -1.95,3.25 -4.9,5.7 -7.2,8.67 -3.59,4.48 -6.31,9.65 -10.55,13.6 -3.46,3.22 -7.32,6.12 -9.91,10.16 -2.95,4.65 -8.85,6.47 -11.35,11.48 -2.78,5.45 -2.52,11.9 -1.71,17.8 1.83,6.43 2.07,13.13 2.74,19.75 1.29,10.16 -0.74,20.58 1.75,30.62 1.56,6.56 1.52,13.34 2.58,19.99 0.89,7.38 3.72,14.5 3.37,22.03 -0.45,14.04 1.18,28.06 3.32,41.91 1.95,7.3 2.64,14.82 4.04,22.23 0.82,5.84 0.47,11.84 2.12,17.56 2.92,10.15 3.22,20.79 3.06,31.28 0.14,4.71 -0.29,9.66 1.6,14.1 2.67,6.25 5.32,12.51 8.3,18.62 5.06,12.42 9.23,25.37 16.49,36.76 3.39,5.61 5.11,12.01 7.98,17.86995 3.94,7.76 7.25,15.85 11.93,23.2101 4.22,8.8199 7.17,18.19 10.08,27.52 7.89,18.8699 16.91,37.25 25.03,56.0299 3.19,7.2001 7.57,13.79 11.76,20.4401 5.43,8.63 11.68,16.74 18.39,24.43 l -79.67,0 c -8.57,-12.14 -13.62,-26.24 -19.18,-39.89 -4.4,-12.8 -7.83,-25.9101 -10.81,-39.1 -2.69,-9.31 -5.42,-18.6 -8.22,-27.87 -4.32,-11.93 -7.86,-24.11 -11.63,-36.22 -2.39,-8.47 -3.92,-17.16005 -6.68,-25.53005 -2.57,-7.56 -3.14,-15.56 -4.59,-23.36 -1.54,-8.36 -2.85,-16.76 -4.86,-25.01 -2.78,-11.93 -4.63,-24.05 -7,-36.06 -1.33,-6.65 -1.36,-13.49 -2.88,-20.1 -1.86,-8.13 -1.37,-16.55 -2.67,-24.76 -2.87,-21.34 -6.25,-42.7 -12.16,-63.43 -3.76,-13.64 -7.67,-27.43 -8.43,-41.62 -0.65,-16.65 -0.23,-33.94 6.76,-49.39 6,-13.96 17.33,-24.48 28.19,-34.71 5.53,-5.05 11.91,-9.04 18.49,-12.58 7.29,-3.91 14.22,-8.45 21.34,-12.66 z"
     id="path7815"
     inkscape:connector-curvature="0"
     style="fill:#e2b8a7" />
  <path
     d="m 352.3225,647.18625 c 4.73,3.4 9.98,5.95 14.83,9.18 -5.11,7.86 -10.12,15.96 -12.65,25.07 -2.5,9.18 -6.02,18.18 -6.59,27.77 -0.39,7.88 -0.05,15.78 -0.19,23.67 -4.67,4.4 -8.01,9.93 -12.32,14.64 -8.19,8.29 -13.83,18.58 -19.17,28.81 -4.31,6.49 -5.75,14.28 -6.75,21.87 -1.35,9.27 -0.16,18.7 -1.59,27.98 -0.48,9.65 -1.14,19.5 0.86,29.04 2.55,12.21 2.85,25 7.84,36.61 3.62,13.26 12.08,24.36 18.31,36.41 1.6,4.68 3.78,9.16 5.07,13.94 -2.68,-3.31 -4.96,-6.93 -7.7,-10.18 -4.95,-5.86 -8.71,-12.6 -13.61,-18.48 -4.73,-5.62 -7.74,-12.37 -10.98,-18.89 -1.82,-5.73 -4.66,-11.06 -8.02,-16.02 -4.31,-5.73 -7.08,-12.39 -10.32,-18.73 -3.72,-9.74 -5.04,-20.35 -4.29,-30.72 2.33,-12.22 10.37,-22.25 14.22,-33.93 3.4,-8.29 8.14,-16.09 10.09,-24.92 3.02,-8.8 7.08,-17.21 11.38,-25.45 3.73,-6.94 4.91,-14.78 7.75,-22.06 3.77,-15.39 7.31,-30.86 12.13,-45.97 3.47,-10.06 8.66,-19.43 11.7,-29.64 z"
     id="path7817"
     inkscape:connector-curvature="0"
     style="fill:#323232" />
  <path
     d="m 710.5325,659.60625 c 2.84,-4.6 10.34,-4.8 12.79,0.26 1.74,5.02 0.7,10.5 0.83,15.72 -1.31,-3.38 -2.55,-6.81 -2.97,-10.42 -0.54,-2.25 -0.34,-5.19 -2.51,-6.61 -2.65,-1.67 -5.55,0.25 -8.14,1.05 z"
     id="path7819"
     inkscape:connector-curvature="0"
     style="fill:#141414" />
  <path
     d="m 710.5325,659.60625 c 2.59,-0.8 5.49,-2.72 8.14,-1.05 2.17,1.42 1.97,4.36 2.51,6.61 0.42,3.61 1.66,7.04 2.97,10.42 1.85,10.13 6.28,19.54 9.07,29.41 4.59,14.41 6.99,29.38 9.21,44.3 1.29,7.78 1.05,15.78 3.2,23.43 12.63,-2.75 25.5,-4.24 38.41,-4.73 11.01,-0.05 21.99,-1.26 33,-1.02 13.99,0.07 28.02,-0.45 41.95,1.18 2.7,0.59 6.65,2.39 5.7,5.84 -0.86,2.25 -3.58,3.25 -5.77,3.74 -5.96,0.57 -11.89,-0.82 -17.85,-0.75 -16,0.07 -32.02,-0.31 -48,0.81 -9.64,0.12 -19.27,0.65 -28.84,1.85 -8.72,1.23 -17.32,3.24 -26.1,4.02 -5.13,0.62 -10.4,0.69 -15.32,2.37 -3.16,1.04 -5.35,4.11 -8.73,4.53 -10.37,0.83 -18.57,8.01 -26.02,14.6 -6.65,6.02 -14.22,11.05 -20.08,17.92 -7.44,8.56 -15.98,16.17 -22.64,25.38 -4.6,6.64 -9.27,13.25 -14.73,19.23 -11.27,12.44 -23.84,23.91 -32.76,38.28 -5.83,9.43 -11.57,19 -15.92,29.22 11.05,-4.84 22.44,-8.94 34.19,-11.77 5.94,-1.38 11.78,-3.5 17.9,-3.97 3.18,-0.43 7.38,2.16 6.66,5.73 -0.91,1.9 -2.61,3.51 -4.73,3.91 -19.44,3.99 -38.84,9.3 -56.49,18.6 -3.17,1.79 -0.54,6.53 -2.84,9.02 -1.49,1.66 -4.27,2.48 -6.19,1.09 -1.24,-1.04 -2.2,-2.34 -3.22,-3.55 -9.31,5.38 -18.52,11.21 -26.15,18.87 -6.23,6.72 -11.43,15.23 -11.47,24.67 10.42,-1.76 20.83,-4.15 31.47,-3.96 4.95,0.12 9.96,-0.5 14.88,0.27 2.93,0.68 6.03,4.68 3.19,7.19995 -2.36,3.16 -6.66,2.42 -10.08,2.53 -8.75,-0.2 -17.53,0.13 -26.13,1.78 -11.34,2.08 -23.31,3.76 -33.07,10.35 -5.33,3.42 -8.33,9.18 -11.43,14.49 -3.57,6.51 -7.32,13.21 -8.11,20.73 2.98,2.95 5.45,6.8 9.59,8.26 4.48,1.69 8.96,3.45 13.14,5.82 9.27,4.86 17.29,11.82 26.89,16.08 2.91,1.16 5.84,4.52 4.25,7.76 -1.87,2.03 -5.04,2.84 -7.6,1.69 -10.75,-4.32 -19.44,-12.34 -29.78,-17.46 -13.45,-6.89 -28.94,-10.34 -44.02,-8.41 -5.27,0.74 -11.56,2.89 -13.04,8.67 -2.94,10.11 -4.39,20.59 -6.07,30.96 -2.02,16.79 -0.26,33.75 -1.18,50.6 l -9.64,0 c -0.28,-11.99 -0.05,-23.98 -0.14,-35.97 -0.25,-13.27 2.68,-26.29 5.1,-39.26 1.44,-7.35 3.32,-15.68 10.04,-20.05 9.7,-6.37 21.9,-5.76 32.98,-5.07 -1.47,-8.23 2.07,-16.08 5.61,-23.27 2.81,-5.4 5.79,-10.73 9.3,-15.7 5.71,-7.92 14.78,-12.57 23.91,-15.4 -0.15,-6.75995 0.68,-13.65995 4.02,-19.65995 6.8,-14.55 20.32,-24.25 33.67,-32.34 3.63,-2.4 7.81,-3.98 11.17,-6.77 2.01,-4.19 3,-8.81 5.16,-12.93 7.92,-15.76 16.47,-31.45 28.17,-44.77 10.75,-12.59 23.47,-23.54 32.62,-37.46 6.35,-9.76 14.73,-17.9 22.65,-26.36 4.37,-4.92 8.77,-9.85 14,-13.89 10.72,-8.27 19.96,-18.94 32.93,-23.84 4.63,-1.79 9.26,-3.56 13.9,-5.34 5.7,-2.2 11.84,-2.68 17.87,-3.24 -2.62,-5.88 -1.81,-12.41 -2.71,-18.62 -2.61,-19.93 -6.23,-39.85 -13.28,-58.73 -4.01,-10.69 -6.83,-21.75 -9.88,-32.73 0.1,-1.4 0.32,-2.78 0.59,-4.15 z"
     id="path7821"
     inkscape:connector-curvature="0"
     style="fill:#000000" />
  <path
     d="m 368.4825,673.55625 c 2.38,-3.88 4.16,-8.31 7.64,-11.36 9.33,0.94 18.68,1.87 28.01,2.78 8.83,0.12 17.51,1.8 26.26,2.71 6.71,1.15 13.57,-0.07 20.28,0.95 6.24,2.94 10.78,8.49 15.21,13.62 6.78,7.4 10.11,17.04 14.2,26.02 -3.79,7.06 -8.46,13.61 -12.2,20.71 -4.55,7.59 -8.37,15.58 -12.96,23.15 -4.25,7.19 -7.51,14.9 -11.65,22.15 -7.39,13.24 -17.31,24.79 -26.01,37.15 -6.49,9.39 -11.71,19.56 -17.45,29.42 -4,7.37 -7.48,15.02 -11.54,22.37 -4.09,8.52 -7.8,17.27 -12.85,25.29 -4.1,6.49 -7.15,13.57 -10.7,20.36 -6.17,12.63 -8.36,26.65 -11.12,40.29 -2.38,-7.24 -5.67,-14.14 -8.09,-21.37 -2.11,-6.39 -6.28,-11.77 -9.34,-17.69 -2.83,-5.53 -6.6,-10.61 -8.45,-16.59 -1.95,-6.07 -4.46,-11.98 -5.54,-18.29 -1.29,-7.24 -2,-14.58 -3.54,-21.77 -3.08,-15.01 0.58,-30.21 0.21,-45.31 0.33,-9.47 1.31,-19.46 6.57,-27.63 4.95,-9.9 10.7,-19.53 18.46,-27.51 3.63,-3.47 5.88,-8.07 9.5,-11.54 1.9,-1.87 4.01,-3.89 4.24,-6.71 0.99,-12.2 -1.27,-24.77 2.45,-36.66 2.72,-8.2 4.27,-16.88 8.41,-24.54 z"
     id="path7823"
     inkscape:connector-curvature="0"
     style="fill:#141414" />
  <path
     d="m 709.9425,663.75625 c 3.05,10.98 5.87,22.04 9.88,32.73 7.05,18.88 10.67,38.8 13.28,58.73 0.9,6.21 0.09,12.74 2.71,18.62 -6.03,0.56 -12.17,1.04 -17.87,3.24 -4.64,1.78 -9.27,3.55 -13.9,5.34 -4.34,-13.43 -1.61,-27.7 1.18,-41.15 2.57,-12.23 3.61,-24.69 4.99,-37.08 0.48,-6.34 0.19,-12.69 0.26,-19.02 0.06,-7.15 -1.27,-14.27 -0.53,-21.41 z"
     id="path7825"
     inkscape:connector-curvature="0"
     style="fill:#141414" />
  <path
     d="m 505.6625,680.70625 c 7.57,-3.04 13.85,-8.59 21.42,-11.53 7.2,0.2 14.44,3.24 19.45,8.47 -1.06,10.48 -7.44,19.39 -13.4,27.76 -3.5,4.6 -5.29,10.21 -8.72,14.86 -5.55,7.75 -10.74,15.9 -13.87,24.96 -0.87,2.7 -1.42,5.51 -2.6,8.12 -1.43,-8.8 -3.73,-17.4 -7.2,-25.62 -2.34,-7.55 -6.14,-14.49 -9.61,-21.54 -4.13,-5.29 -5.87,-11.89 -8.89,-17.79 8.08,-1.65 15.75,-4.73 23.42,-7.69 z"
     id="path7827"
     inkscape:connector-curvature="0"
     style="fill:#ffe1d5" />
  <path
     d="m 0.0625,678.80625 c 1.78,6.22 4.62,12.08 6.29,18.34 1.82,6.7 5.83,12.46 9.21,18.43 3.35,5.96 8.47,10.82 11.1,17.2 1.83,4.3 2.44,8.97 3.51,13.5 1.24,5.98 4.87,11.09 6.34,17.01 1.52,6.35 3.72,12.51 5.43,18.8 0.83,8.66 0.22,17.4 -0.52,26.05 -0.29,17.7 0.18,35.41 -0.26,53.1 -1.24,9.06 -4.5,17.77 -5.27,26.91 -0.1,4.06 -0.46,8.11 -1.33,12.09 -2.04,10.2 -0.33,20.79 -2.96,30.91 -2.41,9.93 -2.29,20.27 -4.6,30.22 -1.44,6.18 -1,12.56 -1.69,18.83 -0.74,12.07 -4.96,23.69995 -4.67,35.87995 0.29,25.3401 -0.8,50.7501 1.54,76.0201 0.67,8.2 3.46,16.01 4.99,24.06 2.58,13 4.5,26.15 7.88,38.99 l -0.89,0.01 -34.1,0 0,-476.35005 z"
     id="path7829"
     inkscape:connector-curvature="0"
     style="fill:#ffffff" />
  <path
     d="m 540.8525,823.91625 c 12.05,-6.4 23.5,-13.85 35.63,-20.06 -3.75,4.3 -8.89,6.95 -13.34,10.43 -4.17,3.07 -8,6.57 -11.74,10.14 -7.11,6.74 -15.97,11.24 -23.16,17.88 -5.62,5.13 -11.8,9.57 -17.74,14.3 -7.32,5.65 -13.05,13.06 -20.46,18.6 -3.97,2.87 -8.5,4.82 -12.83,7.08 -6.36,3.36 -11.49,8.52 -17.46,12.45 -5.99,3.5 -11.5,7.8 -16.55,12.53 -9.57,9.72 -12.83,23.38 -17.14,35.87 -2.13,12.54 -7.04,24.53 -7.88,37.29 -0.68,7.07 -2.17,14.25 -0.69,21.33005 0.75,4.5 2.49,8.74 3.85,13.08 0.97,3.02 0.51,6.37 1.67,9.33 1.51,2.49 4.55,2.1099 7,1.73 1.87,6.61 7.01,12.19 7.19,19.24 -0.37,5.54 -7.67,8.08 -11.73,4.6 -5.75,-5.35 -7.89,-13.47 -13.32,-19.07 1.49,-0.49 3.68,-0.35 4.21,-2.19 1.19,-3.21 0.01,-6.6001 -0.96,-9.6801 -2.4,-7 -2.96,-14.4199 -4.18,-21.65995 -1.34,-7.82 -1.07,-15.84 0.4,-23.61 1.23,-6.39 1.35,-12.9 2.18,-19.33 0.78,-6.72 3.83,-12.83 6.33,-19.01 3.62,-10.97 11.96,-19.21 18.17,-28.68 3.47,-5.2 5.78,-11.29 10.52,-15.54 5.66,-5.03 11.31,-10.08 16.74,-15.35 5.23,-5.08 9.17,-11.55 15.45,-15.48 10.13,-5.98 19.08,-13.72 29.1,-19.84 6.6,-3.09 13.31,-5.94 19.73,-9.39 3.82,-2.09 7.21,-4.86 11.01,-6.99 z"
     id="path7831"
     inkscape:connector-curvature="0"
     style="fill:#323232" />
  <path
     d="m 279.0025,928.66625 c 7.18,0.03 13.75,-4.34 17.15,-10.55 6,3.84 13.73,3.84 19.42,8.2 3.72,5.06 7.27,10.25 11.33,15.05 6.64,7.82 6.77,18.94 12.68,27.19 2.13,2.75 2.68,6.25 3.45,9.56 2.65,11.45 5.5,23.26005 3.76,35.07005 -0.55,7.29 0.01,14.64 -0.82,21.93 -1.2,11.28 -0.19,22.65 -1.22,33.93 -0.44,17.37 -0.13,34.76 -0.22,52.13 0.16,11.32 -0.39,22.67 0.38,33.98 l -29.43,0 c -13.17,-13.37 -23.89,-29.02 -32.95,-45.41 -5.29,-11.45 -10.21,-23.09 -15.73,-34.44 -4.44,-11.05 -10.48,-21.5 -13.41,-33.11 -2.16,-6.46 -4.67,-12.81 -7.34,-19.06 -4.93,-7.81 -8.54,-16.32 -12.68,-24.55005 -2.61,-5.69 -4.42,-11.75 -7.59,-17.18 -3.23,-4.95 -5.79,-10.27 -8.22,-15.64 1.35,-0.63 2.78,-1.13 3.97,-2.02 1.61,-1.3 1.15,-3.6 1.47,-5.39 2.66,-2.37 5.32,-4.94 8.9,-5.8 9.55,-4.29 20.35,-6.98 27.69,-14.94 2.75,-2.92 4.11,-6.71 5.9,-10.2 4.49,0.27 8.92,1.95 13.51,1.25 z"
     id="path7833"
     inkscape:connector-curvature="0"
     style="fill:#ffffff" />
  <rect
     style="fill:#000000;fill-opacity:1;stroke:#000000;stroke-width:0;stroke-linejoin:round;stroke-miterlimit:4;stroke-dasharray:none"
     id="rect7843"
     width="866"
     height="866"
     x="1116.1152"
     y="19.09691" />
</svg>
