<?xml version="1.0" encoding="UTF-8" standalone="no"?>
<svg
   xmlns:dc="http://purl.org/dc/elements/1.1/"
   xmlns:cc="http://creativecommons.org/ns#"
   xmlns:rdf="http://www.w3.org/1999/02/22-rdf-syntax-ns#"
   xmlns:svg="http://www.w3.org/2000/svg"
   xmlns="http://www.w3.org/2000/svg"
   xmlns:sodipodi="http://sodipodi.sourceforge.net/DTD/sodipodi-0.dtd"
   xmlns:inkscape="http://www.inkscape.org/namespaces/inkscape"
   width="154pt"
   height="150pt"
   viewBox="0 0 154 150"
   version="1.1"
   id="svg2"
   inkscape:version="0.48.5 r10040"
   sodipodi:docname="1435884473574.svg">
  <metadata
     id="metadata62">
    <rdf:RDF>
      <cc:Work
         rdf:about="">
        <dc:format>image/svg+xml</dc:format>
        <dc:type
           rdf:resource="http://purl.org/dc/dcmitype/StillImage" />
        <dc:title></dc:title>
      </cc:Work>
    </rdf:RDF>
  </metadata>
  <defs
     id="defs60" />
  <sodipodi:namedview
     pagecolor="#ffffff"
     bordercolor="#666666"
     borderopacity="1"
     objecttolerance="10"
     gridtolerance="10"
     guidetolerance="10"
     inkscape:pageopacity="0"
     inkscape:pageshadow="2"
     inkscape:window-width="1485"
     inkscape:window-height="1056"
     id="namedview58"
     showgrid="false"
     inkscape:zoom="2.6210092"
     inkscape:cx="122.2419"
     inkscape:cy="93.615108"
     inkscape:window-x="0"
     inkscape:window-y="0"
     inkscape:window-maximized="0"
     inkscape:current-layer="svg2" />
  <path
     fill="#ffffff"
     d=" M 0.00 0.00 L 154.00 0.00 L 154.00 145.39 C 152.36 139.78 150.48 132.80 144.28 130.70 C 137.74 128.93 131.93 125.39 125.82 122.59 C 125.45 122.83 124.70 123.31 124.32 123.54 C 120.83 119.17 117.49 114.46 112.63 111.49 C 115.90 108.06 118.48 104.04 120.57 99.81 C 121.10 97.89 120.77 95.86 120.69 93.91 C 119.83 85.11 120.23 76.26 121.00 67.48 C 122.83 62.69 125.49 58.17 126.59 53.13 C 126.60 46.03 125.14 39.02 124.87 31.93 C 126.44 30.66 128.08 29.47 129.59 28.12 C 128.93 26.31 127.76 24.75 126.66 23.18 C 127.21 22.83 128.32 22.12 128.88 21.77 C 125.97 17.93 120.38 18.85 116.26 17.16 C 116.16 15.93 116.00 14.71 115.78 13.50 C 113.19 11.34 110.75 8.98 107.94 7.11 C 104.15 4.63 99.44 5.12 95.14 5.05 C 95.03 4.24 94.82 2.64 94.71 1.83 C 88.95 1.40 83.46 3.32 77.84 4.19 C 76.89 3.37 75.94 2.56 74.99 1.75 C 73.36 2.62 71.73 3.52 70.12 4.43 C 69.82 4.03 69.23 3.22 68.93 2.81 C 65.22 4.97 61.57 7.41 58.78 10.74 C 56.17 13.99 54.18 17.68 52.01 21.23 C 51.96 18.33 51.95 15.43 51.80 12.54 C 50.52 12.81 48.74 12.39 48.12 13.92 C 45.72 17.56 46.94 22.09 46.42 26.17 C 43.58 29.28 42.36 34.06 43.35 38.14 C 43.07 39.70 42.84 41.28 42.65 42.85 C 41.12 45.53 41.74 48.62 41.33 51.54 C 41.05 53.87 42.24 56.03 42.69 58.27 C 41.41 62.49 43.39 66.65 44.16 70.76 C 44.88 74.57 47.55 77.47 49.74 80.51 C 50.78 87.72 49.37 95.25 51.86 102.22 C 52.54 104.02 51.73 105.91 51.74 107.77 L 51.57 107.35 C 47.69 110.27 45.22 114.58 41.58 117.74 C 39.01 119.50 35.79 119.86 32.80 120.48 C 25.51 121.35 18.17 122.06 11.00 123.70 C 8.97 124.15 6.74 124.90 5.64 126.80 C 2.05 133.98 1.27 142.09 1.00 150.00 L 0.00 150.00 L 0.00 0.00 Z"
     id="path4" />
  <path
     fill="#040404"
     d=" M 70.12 4.43 C 71.73 3.52 73.36 2.62 74.99 1.75 C 75.94 2.56 76.89 3.37 77.84 4.19 C 83.46 3.32 88.95 1.40 94.71 1.83 C 94.82 2.64 95.03 4.24 95.14 5.05 C 99.44 5.12 104.15 4.63 107.94 7.11 C 110.75 8.98 113.19 11.34 115.78 13.50 C 116.00 14.71 116.16 15.93 116.26 17.16 C 120.38 18.85 125.97 17.93 128.88 21.77 C 128.32 22.12 127.21 22.83 126.66 23.18 C 127.76 24.75 128.93 26.31 129.59 28.12 C 128.08 29.47 126.44 30.66 124.87 31.93 C 125.14 39.02 126.60 46.03 126.59 53.13 C 125.49 58.17 122.83 62.69 121.00 67.48 C 120.23 76.26 119.83 85.11 120.69 93.91 C 120.77 95.86 121.10 97.89 120.57 99.81 C 118.48 104.04 115.90 108.06 112.63 111.49 C 117.49 114.46 120.83 119.17 124.32 123.54 C 124.70 123.31 125.45 122.83 125.82 122.59 C 131.93 125.39 137.74 128.93 144.28 130.70 C 150.48 132.80 152.36 139.78 154.00 145.39 L 154.00 148.75 C 151.85 144.82 150.29 140.62 148.25 136.64 C 146.85 133.84 143.69 132.85 140.98 131.80 C 135.84 130.01 131.00 127.51 126.04 125.30 C 129.37 130.05 133.93 134.96 132.60 141.26 C 129.01 138.11 125.36 135.00 121.21 132.62 C 120.80 136.78 120.68 140.98 120.99 145.15 C 117.71 141.65 114.50 138.08 111.15 134.65 C 112.14 139.89 113.47 145.08 115.55 150.00 L 113.38 150.00 C 112.09 146.69 110.91 143.33 110.12 139.86 C 108.88 133.32 105.27 127.60 103.16 121.34 C 94.38 123.85 85.15 121.69 76.90 118.36 C 81.81 121.77 84.90 126.86 88.44 131.50 C 96.52 137.76 104.44 144.28 112.94 150.00 L 109.04 150.00 C 102.08 145.40 96.11 139.51 89.28 134.77 C 82.75 131.57 77.35 126.60 70.99 123.10 C 73.08 129.57 76.41 135.62 77.60 142.37 C 74.71 140.31 71.99 138.01 69.74 135.26 C 62.67 126.89 55.67 118.11 51.74 107.77 C 51.73 105.91 52.54 104.02 51.86 102.22 C 49.37 95.25 50.78 87.72 49.74 80.51 C 47.55 77.47 44.88 74.57 44.16 70.76 C 43.39 66.65 41.41 62.49 42.69 58.27 C 42.24 56.03 41.05 53.87 41.33 51.54 C 41.74 48.62 41.12 45.53 42.65 42.85 C 42.84 41.28 43.07 39.70 43.35 38.14 C 42.36 34.06 43.58 29.28 46.42 26.17 C 46.94 22.09 45.72 17.56 48.12 13.92 C 48.74 12.39 50.52 12.81 51.80 12.54 C 51.95 15.43 51.96 18.33 52.01 21.23 C 54.18 17.68 56.17 13.99 58.78 10.74 C 61.57 7.41 65.22 4.97 68.93 2.81 C 69.23 3.22 69.82 4.03 70.12 4.43 Z"
     id="path6" />
  <path
     fill="#59453a"
     d=" M 65.94 9.73 C 68.89 7.90 71.77 5.97 74.58 3.93 C 74.81 4.69 75.25 6.22 75.47 6.98 C 80.16 5.75 85.01 5.16 89.63 3.67 C 89.47 5.23 89.33 6.79 89.20 8.35 C 92.78 9.05 96.33 9.92 99.78 11.10 C 99.56 12.95 99.34 14.79 99.12 16.64 C 100.67 17.29 102.21 17.94 103.75 18.60 C 102.17 22.40 100.68 26.24 98.97 30.00 C 98.06 32.03 96.64 33.77 95.27 35.50 C 95.71 32.00 97.16 27.44 93.67 24.97 C 92.44 23.49 90.66 25.78 89.24 26.08 C 88.91 25.52 88.25 24.40 87.92 23.84 C 86.89 24.10 85.86 24.36 84.83 24.62 C 82.15 23.59 79.45 24.07 77.00 25.43 C 75.65 25.46 74.30 25.54 72.96 25.66 C 71.97 26.97 72.54 28.61 72.63 30.08 C 68.73 28.83 65.13 25.79 60.95 25.99 C 61.17 28.14 61.85 30.19 62.44 32.25 C 60.41 30.82 58.44 29.32 56.63 27.62 C 56.19 28.00 55.31 28.75 54.87 29.13 C 51.52 32.67 49.67 37.56 50.26 42.44 C 50.85 47.91 51.47 53.69 48.62 58.70 L 48.49 59.01 C 47.24 58.22 45.99 57.43 44.75 56.65 C 44.28 55.23 43.81 53.82 43.37 52.40 C 43.73 50.33 43.84 48.23 43.79 46.13 C 45.16 42.57 46.09 38.68 44.88 34.94 C 45.44 33.15 46.03 31.38 46.66 29.61 C 49.84 25.35 48.12 19.78 49.37 14.93 C 49.84 17.87 50.01 20.86 50.69 23.76 C 52.15 25.27 53.17 23.00 53.99 21.97 C 56.87 17.13 59.67 12.09 64.11 8.46 C 64.57 8.78 65.48 9.42 65.94 9.73 Z"
     id="path8" />
  <path
     fill="#292325"
     d=" M 89.63 3.67 C 91.40 3.95 92.18 5.45 92.93 6.88 C 96.92 7.24 101.03 6.82 104.90 7.98 C 108.30 9.35 110.77 12.19 113.55 14.46 C 113.38 15.67 113.21 16.89 113.05 18.11 C 116.73 19.44 120.50 20.48 124.31 21.31 C 124.19 22.18 124.06 23.04 123.94 23.91 C 124.62 24.84 125.32 25.77 126.01 26.70 C 125.02 28.11 123.88 29.44 123.25 31.06 C 121.85 38.39 124.72 45.68 124.39 53.01 C 123.15 57.82 120.94 62.32 118.99 66.87 C 118.99 60.58 120.70 54.24 119.16 48.00 C 118.25 44.51 118.77 40.91 118.60 37.36 C 116.51 35.13 114.02 33.30 112.00 30.99 C 111.08 31.17 110.16 31.36 109.24 31.54 C 107.87 29.68 106.23 28.05 104.32 26.73 C 103.34 28.54 102.36 30.35 101.38 32.16 C 100.58 31.44 99.77 30.72 98.97 30.00 C 100.68 26.24 102.17 22.40 103.75 18.60 C 102.21 17.94 100.67 17.29 99.12 16.64 C 99.34 14.79 99.56 12.95 99.78 11.10 C 96.33 9.92 92.78 9.05 89.20 8.35 C 89.33 6.79 89.47 5.23 89.63 3.67 Z"
     id="path10" />
  <path
     d=" M 74.01 27.47 C 77.82 27.75 81.51 24.97 85.16 27.08 C 85.60 26.90 86.46 26.54 86.90 26.36 C 88.83 27.82 91.10 27.83 93.18 26.56 C 94.99 30.68 92.36 34.49 91.31 38.39 C 93.62 38.23 95.68 37.21 97.49 35.83 C 97.58 36.49 97.77 37.82 97.87 38.48 C 101.64 37.07 102.85 32.82 105.99 30.57 C 106.63 31.87 107.28 33.18 107.93 34.48 C 108.70 34.40 110.25 34.24 111.02 34.15 C 112.69 35.77 114.60 37.09 116.69 38.12 C 116.57 41.78 116.53 45.46 117.25 49.06 C 118.45 55.99 116.66 62.97 117.29 69.92 C 117.59 70.35 118.19 71.21 118.49 71.64 C 117.70 80.76 118.30 89.91 118.72 99.03 C 117.95 100.24 117.19 101.47 116.44 102.70 C 114.42 102.71 112.40 102.73 110.39 102.75 C 105.81 98.53 101.41 94.11 96.69 90.05 C 97.99 89.04 99.81 88.03 99.14 86.06 C 98.09 84.11 96.50 82.50 95.58 80.48 C 94.15 75.79 95.70 70.71 94.04 66.06 C 92.05 67.01 92.91 69.30 92.69 70.96 C 92.74 74.02 92.70 77.10 93.30 80.10 C 93.86 82.77 95.83 84.79 97.38 86.93 C 96.25 87.67 95.13 88.41 94.02 89.16 L 95.60 90.28 C 92.26 91.03 88.83 91.26 85.42 91.48 C 86.18 88.36 81.10 88.66 82.78 91.63 C 78.44 92.29 73.77 93.26 70.62 96.58 C 68.77 98.05 67.33 100.41 64.95 100.97 C 60.58 100.75 56.60 98.69 52.47 97.45 C 52.27 91.18 52.83 84.74 51.17 78.63 C 51.90 77.52 52.90 76.46 52.77 75.03 C 53.13 69.67 53.04 64.29 53.04 58.93 C 54.99 56.56 55.64 53.56 56.23 50.63 C 58.02 49.41 58.00 47.52 57.53 45.63 C 58.00 44.35 59.11 43.09 58.58 41.65 C 57.83 38.51 57.64 35.27 57.85 32.05 C 60.13 33.10 62.49 34.23 65.08 33.93 C 64.79 31.89 64.14 29.94 63.24 28.09 C 66.52 30.20 70.55 30.91 73.47 33.62 C 74.69 34.25 75.89 36.05 77.43 35.06 C 77.15 32.27 75.18 29.97 74.01 27.47 Z"
     id="path12"
     fill="#f7c8bc" />
  <path
     sodipodi:type="arc"
     style="fill:#ffffff;stroke:#000000;stroke-width:0;stroke-linejoin:round;stroke-miterlimit:4;stroke-dasharray:none"
     id="path3833"
     sodipodi:cx="132.86931"
     sodipodi:cy="87.384529"
     sodipodi:rx="6.7979641"
     sodipodi:ry="3.1586502"
     d="m 139.66727,87.384529 a 6.7979641,3.1586502 0 1 1 -13.59593,0 6.7979641,3.1586502 0 1 1 13.59593,0 z"
     transform="matrix(0.88080808,0,0,0.90434783,-10.187584,-10.436778)" />
  <path
     sodipodi:type="arc"
     style="fill:#ffffff;fill-rule:evenodd;stroke:#000000;stroke-width:0;stroke-linecap:butt;stroke-linejoin:round;stroke-miterlimit:4;stroke-opacity:1;stroke-dasharray:none"
     id="path3039"
     sodipodi:cx="81.529823"
     sodipodi:cy="91.574295"
     sodipodi:rx="9.199317"
     sodipodi:ry="5.3370085"
     d="m 90.72914,91.574295 a 9.199317,5.3370085 0 1 1 -18.398634,0 9.199317,5.3370085 0 1 1 18.398634,0 z"
     transform="matrix(0.7961702,-0.00769479,0.00604333,-0.52497303,6.1119665,116.94268)" />
  <path
     fill="#292325"
     d=" M 50.26 42.44 C 49.67 37.56 51.52 32.67 54.87 29.13 C 55.45 31.34 55.63 33.62 55.61 35.91 C 55.60 39.23 56.68 42.60 55.57 45.86 C 54.26 49.98 53.80 54.71 50.84 58.04 C 50.29 58.21 49.17 58.54 48.62 58.70 C 51.47 53.69 50.85 47.91 50.26 42.44 Z"
     id="path14" />
  <path
     fill="#040404"
     d=" M 57.50 61.01 C 61.61 60.00 65.73 58.73 69.98 58.57 C 75.67 59.07 81.00 61.94 85.13 65.80 C 84.37 65.95 83.53 67.17 82.79 66.34 C 77.83 62.95 71.82 59.26 65.59 61.32 C 62.98 61.55 59.40 63.90 57.50 61.01 Z"
     id="path16" />
  <path
     fill="#f7c8bc"
     d=" M 43.91 59.57 C 46.48 61.66 47.90 64.54 48.18 67.83 C 48.33 71.10 51.83 73.82 50.09 77.11 C 45.32 72.61 45.37 65.54 43.91 59.57 Z"
     id="path18" />
  <path
     fill="#292325"
     d=" M 48.87 60.29 C 52.81 61.69 50.43 66.90 50.76 69.99 C 49.85 66.82 49.12 63.58 48.87 60.29 Z"
     id="path20" />
  <path
     fill="#040404"
     d=" M 96.63 66.87 C 99.99 62.47 105.73 61.14 111.01 61.57 C 112.87 61.85 116.20 60.81 115.87 63.80 C 111.43 63.91 106.77 63.07 102.54 64.81 C 100.60 65.88 99.10 67.57 97.30 68.85 C 96.61 68.56 95.38 67.47 96.63 66.87 Z"
     id="path22" />
  <path
     d=" M 65.55 66.52 C 70.13 62.92 76.69 64.80 80.84 68.15 C 80.73 68.66 80.49 69.68 80.38 70.19 C 78.78 69.31 77.25 68.31 75.69 67.36 C 75.12 68.81 74.85 70.99 72.95 71.22 C 71.56 71.78 70.32 70.59 69.05 70.21 C 68.99 69.37 68.86 67.68 68.80 66.83 C 67.23 67.78 66.01 69.52 64.19 69.90 C 62.21 68.82 64.89 67.45 65.55 66.52 Z"
     id="path24"
     fill="#040404" />
  <path
     d="m 99.43,68.55 c 1.96,-5.21 8.46,-3.45 12.76,-3.83 0.59,1.53 1.13,3.08 1.33,4.72 -1.15,-0.71 -3.51906,-1.46 -4.61906,-2.23 -0.62,1.56 0.43474,1.862456 -1.82655,4.306043 -1.5,0.11 -1.55712,-0.03417 -3.01712,-0.284172 C 103.87727,70.431871 102.6,68.69 102.42,67.9 c -0.75,0.16 -2.24,0.49 -2.99,0.65 z"
     id="path26"
     inkscape:connector-curvature="0"
     style="fill:#040404"
     sodipodi:nodetypes="cccccccc" />
  <path
     d="m 71.12,69.211189 c 1.24,1.62 3.66,-0.54 2.14,-1.94 -1.23,-1.67 -3.66,0.54 -2.14,1.94 z"
     id="path28"
     style="fill:#285eb5;fill-opacity:1"
     inkscape:connector-curvature="0" />
  <path
     fill="#040404"
     d=" M 92.69 70.96 C 92.91 69.30 92.05 67.01 94.04 66.06 C 95.70 70.71 94.15 75.79 95.58 80.48 C 96.50 82.50 98.09 84.11 99.14 86.06 C 99.81 88.03 97.99 89.04 96.69 90.05 C 96.42 90.11 95.87 90.22 95.60 90.28 L 94.02 89.16 C 95.13 88.41 96.25 87.67 97.38 86.93 C 95.83 84.79 93.86 82.77 93.30 80.10 C 92.70 77.10 92.74 74.02 92.69 70.96 Z"
     id="path30" />
  <path
     fill="#040404"
     d=" M 82.78 91.63 C 81.10 88.66 86.18 88.36 85.42 91.48 C 84.76 91.52 83.44 91.59 82.78 91.63 Z"
     id="path34" />
  <path
     d=" M 95.60 90.28 C 95.87 90.22 96.42 90.11 96.69 90.05 C 101.41 94.11 105.81 98.53 110.39 102.75 C 112.40 102.73 114.42 102.71 116.44 102.70 C 114.59 106.26 111.89 109.26 109.13 112.14 C 106.33 115.10 103.74 118.66 99.76 120.09 C 91.70 121.18 83.63 119.05 76.29 115.81 C 70.16 112.66 63.57 110.32 58.20 105.86 C 55.09 104.08 53.40 100.80 52.47 97.45 C 56.60 98.69 60.58 100.75 64.95 100.97 C 67.33 100.41 68.77 98.05 70.62 96.58 C 73.77 93.26 78.44 92.29 82.78 91.63 C 83.44 91.59 84.76 91.52 85.42 91.48 C 88.83 91.26 92.26 91.03 95.60 90.28 Z"
     id="path36"
     fill="#d5aca1" />
  <path
     fill="#f7c8bc"
     d=" M 73.95 97.90 C 75.80 96.76 77.72 95.46 80.00 95.57 C 86.97 95.44 94.21 95.48 100.68 98.40 C 102.72 100.48 104.25 103.62 103.50 106.57 C 102.43 109.88 98.98 111.18 96.06 112.41 C 94.38 109.84 92.58 106.96 89.18 106.72 C 88.07 108.51 86.94 110.29 85.82 112.07 C 82.23 110.88 78.36 110.02 75.36 107.59 C 73.14 105.50 72.96 102.30 72.62 99.47 L 73.60 99.81 C 81.15 102.55 89.75 104.77 97.53 101.59 C 98.45 101.01 100.75 100.73 99.68 99.24 C 97.66 99.00 95.77 100.05 93.84 100.45 C 87.65 102.11 81.36 100.06 75.45 98.31 L 73.95 97.90 Z"
     id="path38" />
  <path
     fill="#040404"
     d=" M 73.60 99.81 L 75.45 98.31 C 81.36 100.06 87.65 102.11 93.84 100.45 C 95.77 100.05 97.66 99.00 99.68 99.24 C 100.75 100.73 98.45 101.01 97.53 101.59 C 89.75 104.77 81.15 102.55 73.60 99.81 Z"
     id="path40" />
  <path
     fill="#9b8fa8"
     d=" M 53.43 105.53 C 57.99 107.83 61.82 111.33 66.41 113.58 C 74.47 117.20 80.39 124.08 85.83 130.80 C 81.94 127.71 77.89 124.78 73.64 122.20 C 72.28 121.20 70.59 121.62 69.06 121.70 C 69.11 127.20 72.42 131.80 73.84 136.95 C 69.47 131.07 64.29 125.82 60.41 119.58 C 57.64 115.14 54.32 110.83 53.43 105.53 Z"
     id="path42" />
  <path
     fill="#040404"
     d=" M 41.58 117.74 C 45.22 114.58 47.69 110.27 51.57 107.35 C 49.88 114.61 43.02 118.69 38.51 124.10 C 39.76 125.98 40.81 128.07 42.56 129.54 C 46.71 129.86 50.73 128.19 54.82 127.69 C 54.86 132.28 50.75 134.96 47.90 137.94 C 51.34 142.12 54.79 146.32 58.77 150.00 L 55.65 150.00 C 52.12 146.24 48.10 142.69 45.81 137.99 C 46.98 134.94 49.64 132.84 51.79 130.51 C 48.62 131.13 45.40 132.15 42.14 131.77 C 38.45 130.01 37.37 125.71 36.03 122.19 C 28.29 123.26 20.44 123.80 12.81 125.57 C 10.70 126.23 7.86 126.64 7.07 129.06 C 4.41 135.71 4.10 142.97 3.26 150.00 L 1.00 150.00 C 1.27 142.09 2.05 133.98 5.64 126.80 C 6.74 124.90 8.97 124.15 11.00 123.70 C 18.17 122.06 25.51 121.35 32.80 120.48 C 35.79 119.86 39.01 119.50 41.58 117.74 Z"
     id="path44" />
  <path
     fill="#292325"
     d=" M 51.57 107.35 L 51.74 107.77 C 55.67 118.11 62.67 126.89 69.74 135.26 C 71.99 138.01 74.71 140.31 77.60 142.37 C 76.41 135.62 73.08 129.57 70.99 123.10 C 77.35 126.60 82.75 131.57 89.28 134.77 C 96.11 139.51 102.08 145.40 109.04 150.00 L 58.77 150.00 C 54.79 146.32 51.34 142.12 47.90 137.94 C 50.75 134.96 54.86 132.28 54.82 127.69 C 50.73 128.19 46.71 129.86 42.56 129.54 C 40.81 128.07 39.76 125.98 38.51 124.10 C 43.02 118.69 49.88 114.61 51.57 107.35 Z"
     id="path46" />
  <path
     fill="#9b8fa8"
     d=" M 104.83 119.81 C 106.95 117.69 109.01 115.50 110.96 113.23 C 117.00 115.95 119.98 122.19 124.14 126.95 C 126.91 130.14 129.34 133.60 131.30 137.35 C 128.39 134.87 125.52 131.37 121.39 131.30 C 118.10 132.99 118.76 137.38 118.65 140.46 C 115.57 136.28 113.88 130.47 108.42 128.77 C 107.11 125.83 106.00 122.81 104.83 119.81 Z"
     id="path48" />
  <path
     fill="#d5aca1"
     d=" M 76.90 118.36 C 85.15 121.69 94.38 123.85 103.16 121.34 C 105.27 127.60 108.88 133.32 110.12 139.86 C 110.91 143.33 112.09 146.69 113.38 150.00 L 112.94 150.00 C 104.44 144.28 96.52 137.76 88.44 131.50 C 84.90 126.86 81.81 121.77 76.90 118.36 Z"
     id="path50" />
  <path
     fill="#292325"
     d=" M 12.81 125.57 C 20.44 123.80 28.29 123.26 36.03 122.19 C 37.37 125.71 38.45 130.01 42.14 131.77 C 45.40 132.15 48.62 131.13 51.79 130.51 C 49.64 132.84 46.98 134.94 45.81 137.99 C 48.10 142.69 52.12 146.24 55.65 150.00 L 3.26 150.00 C 4.10 142.97 4.41 135.71 7.07 129.06 C 7.86 126.64 10.70 126.23 12.81 125.57 Z"
     id="path52" />
  <path
     fill="#292325"
     d=" M 126.04 125.30 C 131.00 127.51 135.84 130.01 140.98 131.80 C 143.69 132.85 146.85 133.84 148.25 136.64 C 150.29 140.62 151.85 144.82 154.00 148.75 L 154.00 149.52 C 153.90 149.64 153.69 149.88 153.59 150.00 L 115.55 150.00 C 113.47 145.08 112.14 139.89 111.15 134.65 C 114.50 138.08 117.71 141.65 120.99 145.15 C 120.68 140.98 120.80 136.78 121.21 132.62 C 125.36 135.00 129.01 138.11 132.60 141.26 C 133.93 134.96 129.37 130.05 126.04 125.30 Z"
     id="path54" />
  <path
     fill="#a6877f"
     d=" M 153.59 150.00 C 153.69 149.88 153.90 149.64 154.00 149.52 L 154.00 150.00 L 153.59 150.00 Z"
     id="path56" />
  <path
     sodipodi:type="arc"
     style="fill:#f7c8bc;fill-opacity:1;stroke:#000000;stroke-width:0;stroke-linejoin:round;stroke-miterlimit:4;stroke-dasharray:none"
     id="path3839"
     sodipodi:cx="92.537712"
     sodipodi:cy="123.92242"
     sodipodi:rx="1.7510775"
     sodipodi:ry="1.3469827"
     d="m 92.294251,125.25632 a 1.7510775,1.3469827 0 1 1 1.714188,-2.06497"
     transform="matrix(1.0615385,0,0,1.24,-23.690318,-54.418106)"
     sodipodi:start="1.7102831"
     sodipodi:end="5.7094847"
     sodipodi:open="true" />
  <path
     inkscape:connector-curvature="0"
     style="fill:#285eb5;fill-opacity:1"
     id="path6299"
     d="m 104.87388,69.615184 c 1.24,1.62 3.66,-0.54 2.14,-1.94 -1.23,-1.67 -3.66,0.54 -2.14,1.94 z" />
</svg>
