<?xml version="1.0" encoding="UTF-8" standalone="no"?>
<svg
   xmlns:dc="http://purl.org/dc/elements/1.1/"
   xmlns:cc="http://creativecommons.org/ns#"
   xmlns:rdf="http://www.w3.org/1999/02/22-rdf-syntax-ns#"
   xmlns:svg="http://www.w3.org/2000/svg"
   xmlns="http://www.w3.org/2000/svg"
   xmlns:sodipodi="http://sodipodi.sourceforge.net/DTD/sodipodi-0.dtd"
   xmlns:inkscape="http://www.inkscape.org/namespaces/inkscape"
   version="1.1"
   x="0px"
   y="0px"
   viewBox="0 0 50.130794 51.462307"
   enable-background="new 0 0 75 75"
   xml:space="preserve"
   id="svg2"
   inkscape:version="0.48.5 r10040"
   width="100%"
   height="100%"
   sodipodi:docname="customers.svg"><metadata
     id="metadata14"><rdf:RDF><cc:Work
         rdf:about=""><dc:format>image/svg+xml</dc:format><dc:type
           rdf:resource="http://purl.org/dc/dcmitype/StillImage" /><dc:title></dc:title></cc:Work></rdf:RDF></metadata><defs
     id="defs12" /><sodipodi:namedview
     pagecolor="#ffffff"
     bordercolor="#666666"
     borderopacity="1"
     objecttolerance="10"
     gridtolerance="10"
     guidetolerance="10"
     inkscape:pageopacity="0"
     inkscape:pageshadow="2"
     inkscape:window-width="1686"
     inkscape:window-height="1108"
     id="namedview10"
     showgrid="false"
     inkscape:zoom="7.1200939"
     inkscape:cx="14.544799"
     inkscape:cy="1.2297187"
     inkscape:window-x="47"
     inkscape:window-y="0"
     inkscape:window-maximized="0"
     inkscape:current-layer="svg2"
     fit-margin-top="0"
     fit-margin-left="0"
     fit-margin-right="0"
     fit-margin-bottom="0" /><path
     d="m 14.480269,27.86172 c -0.129,0.329 -0.083,0.517 -0.083,0.517 l 0.169,2.441 c -0.084,3.34 -1.546,4.432 -1.546,4.432 L 15.187215,51.453407 8.7358478,51.439095 7.6542688,35.60072 c 0,0 -0.462,-0.233 -1.381,-0.656 -0.917,-0.422 -1.878,-1.608 -2.123,-2.014 -0.24,-0.407 -0.808,-1.545 -2.189,-2.587 -1.37800003,-1.043 -1.51100003,-0.545 -1.87500003,-1.178 -0.366,-0.631 0.551,-1.029 0.551,-1.029 0,0 2.54800003,-0.497 4.70100003,2.189 0,0 0.065,-0.017 0.181,-0.033 l 0.03,-0.102 c -0.026,0.003 -0.041,0.003 -0.041,0.003 0.014,-0.002 0.027,-0.003 0.042,-0.004 l 0.129,-0.435 c 0,0 0.005,-0.068 0.012,-0.176 0.688,-0.014 3.184,0.096 4.237,2.329 0.066,0.106 0.1330002,0.214 0.1980002,0.329 0,0 -0.1980002,-3.129 -4.4340002,-2.666 0.021,-0.337 0.059,-1.051 0.019,-1.391 -0.054,-0.452 -0.25,-0.887 -0.25,-0.887 l -2.182,-5.145 c 0,0 -0.416,-0.867 0.356,-1.273 0.771,-0.406 1.192,0.293 1.192,0.293 0,0 2.312,4.621 2.573,5.193 0.261,0.571 0.609,-0.167 0.609,-0.167 l -0.833,-6.175 c 0,0 -0.24,-1.009 0.843,-1.235 1.083,-0.224 1.178,1.381 1.178,1.381 0,0 0.729,5.316 0.8270002,5.933 0.099,0.616 0.437,0.021 0.437,0.021 0,0 0.815,-5.113 0.894,-5.654 0.082,-0.542 0.25,-1.141 1.05,-1.115 0.8,0.025 0.69,1.75 0.69,1.75 0,0 -0.611,5.189 -0.638,5.578 -0.026,0.39 0.229,0.287 0.229,0.287 0,0 1.937,-3.994 2.095,-4.278 0.16,-0.286 0.471,-0.903 1.257,-0.585 0.785,0.316 0.005,2.051 0.005,2.051 0,0 -1.432,3.382 -1.563,3.709 z m 35.434,-2.71 c -0.664,-0.455 -1.08,0.055 -1.285,0.284 -0.205,0.231 -2.815,3.544 -2.815,3.544 0,0 -0.257,0.042 -0.153,-0.312 0.104,-0.356 1.729,-5.043 1.729,-5.043 0,0 0.452,-1.58 -0.283,-1.768 -0.735,-0.188 -1.014,0.335 -1.202,0.82 -0.181,0.484 -1.98,5.062 -1.98,5.062 0,0 -0.438,0.484 -0.4,-0.105 0.034,-0.592 0.441,-5.674 0.441,-5.674 0,0 0.24,-1.508 -0.811,-1.521 -1.053,-0.011 -1.031,0.974 -1.031,0.974 l -0.489,5.897 c 0,0 -0.475,0.615 -0.6,0.032 -0.125,-0.585 -1.328,-5.343 -1.328,-5.343 0,0 -0.246,-0.736 -1.045,-0.516 -0.799,0.219 -0.59,1.108 -0.59,1.108 l 0.975,5.217 c 0,0 0.094,0.442 0.052,0.873 -0.031,0.316 -0.204,0.945 -0.295,1.262 3.879,0.485 3.438,3.358 3.438,3.358 -0.037,-0.121 -0.078,-0.236 -0.119,-0.349 -0.49,-2.147 -2.548,-2.815 -3.324,-2.993 -0.03,0.106 -0.051,0.175 -0.051,0.175 l -0.209,0.377 c -0.015,-0.002 -0.026,-0.003 -0.043,-0.005 0,0 0.017,0.002 0.043,0.006 l -0.049,0.089 c -0.111,-0.008 -0.176,-0.007 -0.176,-0.007 -1.449,-2.932 -3.913,-2.99 -3.913,-2.99 0,0 -0.934,0.184 -0.724,0.843 0.209,0.663 0.436,0.229 1.502,1.476 1.068,1.248 1.363,2.42 1.504,2.846 0.143,0.426 0.792,1.725 1.559,2.301 0.765,0.579 1.146,0.891 1.146,0.891 l -1.462586,15.476427 5.788431,0.01378 0.718155,-14.720207 c 0,0 1.579,-0.713 2.338,-3.795 l 0.34,-2.298 c 0,0 -0.004,-0.184 0.185,-0.462 0.187,-0.279 2.205,-3.122 2.205,-3.122 0,0 1.079,-1.449 0.414,-1.902 z m -10.822,-18.2460005 c -1.208,-0.662 -1.832,0.273 -2.145,0.702 -0.312,0.428 -4.209,6.5080005 -4.209,6.5080005 0,0 -0.43,0.117 -0.312,-0.506 0.116,-0.625 2.104,-8.8870005 2.104,-8.8870005 0,0 0.506,-2.766 -0.779,-2.962 -1.285,-0.194 -1.676,0.741 -1.909,1.599 -0.234,0.857 -2.533,8.9630005 -2.533,8.9630005 0,0 -0.663,0.897 -0.701,-0.117 -0.038,-1.014 -0.194,-9.7430005 -0.194,-9.7430005 0,0 0.156,-2.61199995 -1.638,-2.45599995 -1.793,0.156 -1.598,1.83299995 -1.598,1.83299995 l 0.155,10.1320005 c 0,0 -0.702,1.129 -1.014,0.156 -0.311,-0.975 -3.156,-8.8860005 -3.156,-8.8860005 0,0 -0.546,-1.209 -1.871,-0.702 -1.325,0.507 -0.819,1.988 -0.819,1.988 l 2.534,8.7300005 c 0,0 0.233,0.741 0.233,1.48 0,0.741 -0.351,2.534 -0.351,2.534 l -0.035,0.081 c 6.907,0.081 6.622,5.158 6.622,5.158 -0.082,-0.195 -0.165,-0.377 -0.252,-0.559 -1.257,-3.792 -5.23,-4.468 -6.376,-4.585 l -0.251,0.582 c -0.024,0 -0.046,-0.001 -0.07,-0.001 0,0 0.024,0.001 0.069,0.004 l -0.069,0.159 c -0.19,0.006 -0.299,0.02 -0.299,0.02 -2.96,-4.756 -7.17,-4.444 -7.17,-4.444 0,0 -1.559,0.468 -1.088,1.559 0.468,1.091 0.779,0.313 2.806,2.26 2.026,1.949 2.728,3.898 3.04,4.599 0.312,0.703 1.637,2.807 3.04,3.663 1.401,0.858 2.104,1.326 2.104,1.326 l -0.716514,24.368587 10.035799,-0.0086 -0.590285,-23.892018 c 0,0 2.573,-1.48 3.352,-6.859 l 0.194,-3.976 c 0,0 -0.038,-0.312 0.232,-0.819 0.274,-0.505 3.235,-5.689 3.235,-5.689 0,0 1.597,-2.6500005 0.39,-3.3130005 z"
     id="path4"
     inkscape:connector-curvature="0"
     sodipodi:nodetypes="ccccccccccccccccccccccccccccccccccccccccccccccccscccccccccccccccccccccccccccccccccccccccccccccsccccccsccscccccccccccccccccccccccc"
     style="fill:#fd8b00;fill-opacity:1" /></svg>