<?xml version="1.0" encoding="UTF-8" standalone="no"?>
<svg
   xmlns:dc="http://purl.org/dc/elements/1.1/"
   xmlns:cc="http://creativecommons.org/ns#"
   xmlns:rdf="http://www.w3.org/1999/02/22-rdf-syntax-ns#"
   xmlns:svg="http://www.w3.org/2000/svg"
   xmlns="http://www.w3.org/2000/svg"
   xmlns:sodipodi="http://sodipodi.sourceforge.net/DTD/sodipodi-0.dtd"
   xmlns:inkscape="http://www.inkscape.org/namespaces/inkscape"
   viewBox="0 0 110.72439 119.95067"
   height="119.95067"
   width="110.72439"
   xml:space="preserve"
   id="svg2"
   version="1.1"
   inkscape:version="0.48.5 r10040"
   sodipodi:docname="github.svg"><sodipodi:namedview
     pagecolor="#ffffff"
     bordercolor="#666666"
     borderopacity="1"
     objecttolerance="10"
     gridtolerance="10"
     guidetolerance="10"
     inkscape:pageopacity="0"
     inkscape:pageshadow="2"
     inkscape:window-width="1339"
     inkscape:window-height="1155"
     id="namedview4018"
     showgrid="false"
     fit-margin-top="0"
     fit-margin-left="0"
     fit-margin-right="0"
     fit-margin-bottom="0"
     inkscape:zoom="2.8320566"
     inkscape:cx="55.949743"
     inkscape:cy="42.530885"
     inkscape:window-x="0"
     inkscape:window-y="0"
     inkscape:window-maximized="0"
     inkscape:current-layer="g12" /><metadata
     id="metadata8"><rdf:RDF><cc:Work
         rdf:about=""><dc:format>image/svg+xml</dc:format><dc:type
           rdf:resource="http://purl.org/dc/dcmitype/StillImage" /><dc:title /></cc:Work></rdf:RDF></metadata><defs
     id="defs6"><clipPath
       id="clipPath20"
       clipPathUnits="userSpaceOnUse"><path
         id="path18"
         d="M 0,4999.88 V 0 h 5309.73 v 4999.88 z"
         inkscape:connector-curvature="0" /></clipPath><clipPath
       clipPathUnits="userSpaceOnUse"
       id="clipPath4587"><rect
         style="fill:#000000;fill-opacity:1;stroke:#000000;stroke-width:0;stroke-linejoin:round;stroke-miterlimit:4;stroke-dasharray:none"
         id="rect4589"
         width="1398.2772"
         height="1112.2659"
         x="2790.9387"
         y="-4880.4229"
         transform="scale(1,-1)" /></clipPath></defs><g
     transform="matrix(1.3333333,0,0,-1.3333333,-406.07894,622.78312)"
     id="g10"><g
       transform="scale(0.1,0.1)"
       id="g12"><g
         id="g4573"
         clip-path="url(#clipPath4587)"><g
           transform="translate(52.965044,1244.6785)"
           id="g14"><path
             sodipodi:nodetypes="cscscccccccsccccccccc"
             inkscape:connector-curvature="0"
             id="rect4551"
             d="m 158.40625,184.5625 c 0,-2.652 0.0937,-11.32042 0.0937,-22.09375 0,-7.512 -2.58075,-12.43883 -5.46875,-14.9375 17.92933,-1.99333 36.78125,-8.79342 36.78125,-39.71875 0,-8.790666 -3.14983,-15.986334 -8.3125,-21.625 0.836,-2.029333 3.60142,-10.190584 -0.78125,-21.28125 0,0 -6.757,-2.167333 -22.125,8.25 -6.43467,-1.784 -13.31358,-2.688083 -20.15625,-2.71875 -6.84267,0.03067 -13.73358,0.93475 -20.15625,2.71875 -15.38667,-10.417333 -22.15625,-8.25 -22.15625,-8.25 -4.372,11.090666 -1.61725,19.251917 -0.78125,21.28125 -5.150666,5.638666 -8.28125,12.834334 -8.28125,21.625 0,30.852 18.8035,37.74525 36.6875,39.78125 -2.30267,2.00933 -4.40233,5.57725 -5.125,10.78125 -4.59467,2.05733 -16.25617,5.6205 -23.4375,-6.6875 0,0 -4.258417,-7.74583 -12.34375,-8.3125 0,0 -7.836583,-0.0911 -0.53125,4.90625 0,0 5.274834,2.47458 8.9375,11.78125 0,0 4.725001,14.37067 27.125,9.5 0.0347,6.728 0.0937,13.08 0.0937,15 z"
             style="fill:#fd8b00;fill-opacity:1;stroke:#000000;stroke-width:0;stroke-linejoin:round;stroke-miterlimit:4;stroke-dasharray:none"
             transform="matrix(7.5000004,0,0,-7.5000004,2398.9975,3911.2525)" /></g><g
           style="fill:#ffffff"
           transform="translate(-15.889535,-15.889559)"
           id="g16"
           clip-path="url(#clipPath20)"><path
             inkscape:connector-curvature="0"
             d="m 3130.93,4068.51 c -1.33,-3.01 -6.05,-3.9 -10.35,-1.84 -4.38,1.97 -6.84,6.06 -5.42,9.07 1.3,3.08 6.03,3.94 10.4,1.88 4.39,-1.97 6.89,-6.1 5.37,-9.11 v 0"
             style="fill:#ffffff;fill-opacity:1;fill-rule:nonzero;stroke:none"
             id="path28" /><path
             inkscape:connector-curvature="0"
             d="m 3155.39,4041.23 c -2.88,-2.67 -8.51,-1.43 -12.33,2.79 -3.95,4.21 -4.69,9.84 -1.77,12.55 2.97,2.66 8.43,1.41 12.39,-2.79 3.95,-4.26 4.72,-9.85 1.71,-12.55 v 0"
             style="fill:#ffffff;fill-opacity:1;fill-rule:nonzero;stroke:none"
             id="path30" /><path
             inkscape:connector-curvature="0"
             d="m 3179.2,4006.45 c -3.7,-2.57 -9.75,-0.16 -13.49,5.21 -3.7,5.37 -3.7,11.81 0.08,14.39 3.75,2.58 9.71,0.25 13.5,-5.07 3.69,-5.46 3.69,-11.9 -0.09,-14.53 v 0"
             style="fill:#ffffff;fill-opacity:1;fill-rule:nonzero;stroke:none"
             id="path32" /><path
             inkscape:connector-curvature="0"
             d="m 3211.82,3972.85 c -3.31,-3.65 -10.36,-2.67 -15.52,2.31 -5.28,4.87 -6.75,11.78 -3.43,15.43 3.35,3.66 10.44,2.63 15.64,-2.31 5.24,-4.86 6.84,-11.82 3.31,-15.43 v 0"
             style="fill:#ffffff;fill-opacity:1;fill-rule:nonzero;stroke:none"
             id="path34" /><path
             inkscape:connector-curvature="0"
             d="m 3256.82,3953.34 c -1.46,-4.73 -8.25,-6.88 -15.09,-4.87 -6.83,2.07 -11.3,7.61 -9.92,12.39 1.42,4.76 8.24,7 15.13,4.85 6.82,-2.06 11.3,-7.56 9.88,-12.37 v 0"
             style="fill:#ffffff;fill-opacity:1;fill-rule:nonzero;stroke:none"
             id="path36" /><path
             inkscape:connector-curvature="0"
             d="m 3306.24,3949.72 c 0.17,-4.98 -5.63,-9.11 -12.81,-9.2 -7.22,-0.16 -13.06,3.87 -13.14,8.77 0,5.03 5.67,9.12 12.89,9.24 7.18,0.14 13.06,-3.86 13.06,-8.81 v 0"
             style="fill:#ffffff;fill-opacity:1;fill-rule:nonzero;stroke:none"
             id="path38" /><path
             inkscape:connector-curvature="0"
             d="m 3352.23,3957.55 c 0.86,-4.86 -4.13,-9.85 -11.26,-11.18 -7.01,-1.28 -13.5,1.72 -14.39,6.54 -0.87,4.98 4.21,9.97 11.21,11.26 7.14,1.24 13.53,-1.68 14.44,-6.62 v 0"
             style="fill:#ffffff;fill-opacity:1;fill-rule:nonzero;stroke:none"
             id="path40" /></g></g></g></g></svg>