<?xml version="1.0" encoding="UTF-8" standalone="no"?>
<svg
   xmlns:dc="http://purl.org/dc/elements/1.1/"
   xmlns:cc="http://creativecommons.org/ns#"
   xmlns:rdf="http://www.w3.org/1999/02/22-rdf-syntax-ns#"
   xmlns:svg="http://www.w3.org/2000/svg"
   xmlns="http://www.w3.org/2000/svg"
   xmlns:sodipodi="http://sodipodi.sourceforge.net/DTD/sodipodi-0.dtd"
   xmlns:inkscape="http://www.inkscape.org/namespaces/inkscape"
   width="1000pt"
   height="1000pt"
   viewBox="0 0 1000 1000"
   version="1.1"
   id="svg3874"
   inkscape:version="0.48.5 r10040"
   sodipodi:docname="ray.svg">
  <metadata
     id="metadata3920">
    <rdf:RDF>
      <cc:Work
         rdf:about="">
        <dc:format>image/svg+xml</dc:format>
        <dc:type
           rdf:resource="http://purl.org/dc/dcmitype/StillImage" />
        <dc:title></dc:title>
      </cc:Work>
    </rdf:RDF>
  </metadata>
  <defs
     id="defs3918" />
  <sodipodi:namedview
     pagecolor="#ffffff"
     bordercolor="#666666"
     borderopacity="1"
     objecttolerance="10"
     gridtolerance="10"
     guidetolerance="10"
     inkscape:pageopacity="0"
     inkscape:pageshadow="2"
     inkscape:window-width="1364"
     inkscape:window-height="1118"
     id="namedview3916"
     showgrid="false"
     inkscape:zoom="0.53400704"
     inkscape:cx="311.33372"
     inkscape:cy="625"
     inkscape:window-x="0"
     inkscape:window-y="0"
     inkscape:window-maximized="0"
     inkscape:current-layer="svg3874" />
  <path
     fill="#f6b8da"
     d=" M 470.91 0.00 L 474.14 0.00 C 477.65 90.66 481.48 181.31 484.99 271.97 C 486.59 307.98 487.76 344.02 489.46 380.02 C 489.88 401.54 491.67 423.03 491.62 444.56 C 489.09 437.38 487.58 429.91 485.67 422.56 C 478.04 391.60 469.88 360.78 462.30 329.80 C 457.53 312.05 453.23 294.18 448.71 276.36 C 427.30 191.99 405.97 107.59 384.57 23.21 C 383.79 20.10 382.79 17.00 382.63 13.78 C 385.60 12.40 388.84 11.76 392.01 11.00 C 403.00 8.46 413.87 5.46 424.85 2.89 C 433.24 0.90 441.91 2.00 450.42 1.24 C 457.24 0.66 464.11 0.85 470.91 0.00 Z"
     id="path3878"
     style="fill:#ffffff;fill-opacity:0.19607843" />
  <path
     fill="#f6b8da"
     d=" M 546.48 2.11 C 559.34 2.32 572.14 4.29 584.99 4.93 C 594.02 5.31 602.42 8.83 611.04 11.19 C 619.75 13.72 628.45 16.31 637.12 19.00 C 631.19 40.20 624.64 61.22 618.37 82.32 C 584.14 197.02 549.77 311.67 515.56 426.37 C 513.82 432.10 512.41 437.97 509.98 443.47 C 509.57 438.62 510.20 433.80 510.63 428.98 C 522.04 290.98 533.53 152.98 544.92 14.98 C 545.29 10.68 545.34 6.31 546.48 2.11 Z"
     id="path3880"
     style="fill:#ffffff;fill-opacity:0.19607843" />
  <path
     fill="#f6b8da"
     d=" M 274.85 50.61 C 287.70 45.67 300.52 40.64 313.35 35.67 C 316.07 41.17 317.97 47.00 320.27 52.68 C 370.20 181.08 420.13 309.49 470.07 437.90 C 471.75 441.85 473.33 445.86 474.10 450.10 C 405.56 345.20 337.07 240.28 268.49 135.41 C 256.19 116.16 243.23 97.34 231.19 77.93 C 239.26 72.35 247.70 67.33 255.78 61.75 C 262.14 58.05 267.83 53.09 274.85 50.61 Z"
     id="path3882"
     style="fill:#ffffff;fill-opacity:0.19607843" />
  <path
     fill="#f6b8da"
     d=" M 705.32 44.25 C 717.94 49.16 730.12 55.24 742.67 60.39 C 749.53 63.06 755.01 68.07 760.99 72.20 C 769.12 77.94 777.14 83.85 785.35 89.48 C 778.38 100.63 770.19 110.97 762.72 121.80 C 740.41 152.80 718.24 183.91 696.04 214.99 C 673.04 246.74 650.52 278.82 627.53 310.58 C 596.76 353.78 565.80 396.84 534.96 439.99 C 532.25 443.87 529.71 447.91 526.32 451.26 C 559.06 375.84 592.35 300.65 625.27 225.31 C 650.01 168.97 674.69 112.62 699.43 56.28 C 701.28 52.23 702.52 47.80 705.32 44.25 Z"
     id="path3884"
     style="fill:#ffffff;fill-opacity:0.19607843" />
  <path
     fill="#f6b8da"
     d=" M 163.91 128.89 C 166.97 126.41 169.74 123.57 173.02 121.37 C 173.73 121.87 174.39 122.41 175.02 123.01 C 267.39 232.28 359.71 341.62 452.11 450.87 C 454.72 453.81 457.29 456.82 459.29 460.22 C 447.78 452.36 437.22 443.18 426.05 434.85 C 320.45 352.52 214.66 270.44 109.13 188.03 C 114.72 180.12 120.96 172.70 126.82 164.99 C 131.30 159.44 135.17 153.32 140.59 148.59 C 148.24 141.88 156.22 135.56 163.91 128.89 Z"
     id="path3886"
     style="fill:#ffffff;fill-opacity:0.19607843" />
  <path
     fill="#f6b8da"
     d=" M 765.93 226.01 C 794.16 195.65 822.65 165.55 850.78 135.09 C 859.09 143.14 867.67 150.90 876.12 158.79 C 879.85 162.74 884.22 166.11 887.36 170.58 C 895.34 182.13 903.57 193.50 911.51 205.08 C 905.55 210.04 899.03 214.26 892.70 218.72 C 781.97 296.29 671.25 373.87 560.55 451.47 C 556.30 454.42 552.24 457.67 547.61 460.01 C 553.82 452.48 560.71 445.52 567.41 438.42 C 571.87 432.87 577.36 428.29 581.88 422.79 C 596.43 407.40 610.75 391.80 625.37 376.47 C 629.80 370.89 635.30 366.31 639.84 360.83 C 681.92 315.94 723.85 270.90 765.93 226.01 Z"
     id="path3888"
     style="fill:#ffffff;fill-opacity:0.19607843" />
  <path
     fill="#f6b8da"
     d=" M 68.25 248.04 C 69.43 248.25 70.55 248.73 71.60 249.31 C 103.04 268.28 134.70 286.88 166.12 305.88 C 191.73 320.83 216.92 336.46 242.53 351.39 C 307.34 390.28 372.27 428.94 437.14 467.71 C 441.31 470.15 445.64 472.38 449.38 475.51 C 440.30 473.02 431.45 469.77 422.59 466.65 C 351.04 442.14 279.53 417.54 208.00 393.00 C 148.37 372.49 88.67 352.16 29.11 331.47 C 34.76 316.73 39.03 301.49 44.92 286.85 C 49.92 277.65 55.78 268.94 60.89 259.79 C 63.27 255.84 65.23 251.57 68.25 248.04 Z"
     id="path3890"
     style="fill:#ffffff;fill-opacity:0.19607843" />
  <path
     fill="#f6b8da"
     d=" M 794.31 345.27 C 843.20 318.90 891.95 292.27 940.92 266.06 C 948.25 279.14 955.29 292.39 962.41 305.60 C 965.56 313.52 967.45 321.91 970.00 330.05 C 972.09 337.33 974.60 344.50 976.22 351.92 C 942.63 361.53 909.23 371.82 875.68 381.60 C 773.40 411.93 671.13 442.27 568.84 472.58 C 562.77 474.26 556.87 476.58 550.64 477.65 C 560.49 471.23 571.22 466.29 581.43 460.48 C 652.40 422.09 723.35 383.66 794.31 345.27 Z"
     id="path3892"
     style="fill:#ffffff;fill-opacity:0.19607843" />
  <path
     fill="#f6b8da"
     d=" M 10.13 401.15 C 54.47 410.18 98.71 419.76 143.01 429.02 C 237.34 448.95 331.70 468.76 426.03 488.73 C 432.22 490.29 438.73 490.67 444.63 493.25 C 427.42 493.90 410.18 493.35 392.97 493.53 C 262.47 493.56 131.97 493.48 1.47 493.57 C 0.94 489.37 -0.45 485.14 0.53 480.91 C 1.59 474.99 1.42 468.89 0.30 463.00 C -0.23 460.31 0.03 457.55 0.59 454.89 C 1.67 449.64 0.74 444.21 1.97 438.98 C 4.71 426.38 7.27 413.73 10.13 401.15 Z"
     id="path3894"
     style="fill:#ffffff;fill-opacity:0.19607843" />
  <path
     fill="#f6b8da"
     d=" M 888.59 439.29 C 923.19 433.36 957.88 427.93 992.45 421.78 C 995.29 435.85 996.94 450.13 1000.00 464.16 L 1000.00 484.23 C 999.03 494.33 999.06 504.49 998.19 514.59 C 880.90 509.55 763.60 504.65 646.31 499.63 C 615.65 498.16 584.97 497.37 554.34 495.40 C 558.84 494.25 563.40 493.35 567.99 492.69 C 674.86 474.91 781.71 457.04 888.59 439.29 Z"
     id="path3896"
     style="fill:#ffffff;fill-opacity:0.19607843" />
  <path
     fill="#f6b8da"
     d=" M 66.41 557.60 C 193.08 541.98 319.75 526.25 446.44 510.71 C 433.62 516.46 419.95 519.99 406.80 524.88 C 279.77 568.55 152.68 612.04 25.69 655.81 C 20.97 641.17 15.47 626.79 10.95 612.09 C 9.36 605.81 9.18 599.30 8.28 592.91 C 7.02 583.79 6.19 574.61 4.73 565.52 C 25.20 562.27 45.86 560.32 66.41 557.60 Z"
     id="path3898"
     style="fill:#ffffff;fill-opacity:0.19607843" />
  <path
     fill="#f6b8da"
     d=" M 554.38 513.93 C 561.36 514.05 568.16 515.76 575.04 516.81 C 713.61 539.87 852.16 563.03 990.73 586.06 C 988.99 599.46 986.19 612.69 984.30 626.07 C 983.30 634.15 979.30 641.36 976.62 648.94 C 973.23 657.86 969.57 666.69 966.22 675.63 C 840.20 626.45 714.29 577.01 588.31 527.75 C 577.07 522.97 565.29 519.44 554.38 513.93 Z"
     id="path3900"
     style="fill:#ffffff;fill-opacity:0.19607843" />
  <path
     fill="#f6b8da"
     d=" M 421.68 542.72 C 432.01 538.04 441.70 531.90 452.43 528.13 C 443.38 536.27 433.34 543.24 423.84 550.85 C 316.76 634.23 209.65 717.58 102.55 800.93 C 95.54 792.72 89.28 783.91 82.50 775.51 C 78.37 770.26 73.80 765.22 71.03 759.06 C 65.63 746.51 58.98 734.55 53.11 722.22 C 65.55 716.41 77.83 710.30 90.10 704.15 C 103.61 698.29 116.39 690.86 129.89 684.98 C 138.67 680.84 147.20 676.20 155.99 672.09 C 164.28 668.52 172.24 664.23 180.34 660.24 C 188.06 656.18 196.20 652.99 203.90 648.88 C 216.91 642.13 230.35 636.24 243.37 629.50 C 251.33 625.30 259.70 621.94 267.68 617.76 C 275.30 614.00 282.80 609.96 290.60 606.57 C 299.88 602.32 308.81 597.38 318.05 593.06 C 330.91 587.50 343.04 580.39 355.89 574.80 C 366.28 569.96 376.31 564.35 386.79 559.70 C 398.52 554.25 409.83 547.92 421.68 542.72 Z"
     id="path3902"
     style="fill:#ffffff;fill-opacity:0.19607843" />
  <path
     fill="#f6b8da"
     d=" M 544.89 529.88 C 554.05 533.77 562.46 539.15 571.30 543.69 C 692.78 609.45 814.29 675.16 935.75 740.96 C 928.93 753.76 922.01 766.51 915.16 779.30 C 910.49 787.01 903.79 793.20 898.19 800.22 C 893.44 806.08 888.32 811.65 883.64 817.57 C 867.93 804.94 852.88 791.50 837.41 778.59 C 744.55 699.80 651.74 620.93 558.86 542.17 C 554.20 538.08 549.27 534.28 544.89 529.88 Z"
     id="path3904"
     style="fill:#ffffff;fill-opacity:0.19607843" />
  <path
     fill="#f6b8da"
     d=" M 459.14 546.04 C 460.65 544.68 462.37 543.61 464.09 542.54 C 461.92 547.05 458.98 551.10 456.18 555.22 C 379.94 671.96 303.68 788.67 227.42 905.39 C 225.89 907.79 224.61 910.42 222.58 912.47 C 220.89 913.35 219.42 911.70 218.01 911.00 C 206.41 903.24 194.52 895.90 183.03 888.01 C 171.78 877.35 161.04 866.14 150.04 855.23 C 253.00 752.10 356.15 649.14 459.14 546.04 Z"
     id="path3906"
     style="fill:#ffffff;fill-opacity:0.19607843" />
  <path
     fill="#f6b8da"
     d=" M 532.02 542.69 C 536.60 545.85 539.61 550.63 543.57 554.46 C 635.46 654.22 727.27 754.04 819.15 853.80 C 823.78 859.13 829.05 863.89 833.23 869.62 C 824.72 878.33 815.23 886.01 806.55 894.54 C 802.72 898.16 798.72 901.67 794.08 904.23 C 782.31 910.97 770.88 918.28 759.06 924.93 C 685.12 800.56 611.17 676.19 537.28 551.79 C 535.42 548.82 533.59 545.82 532.02 542.69 Z"
     id="path3908"
     style="fill:#ffffff;fill-opacity:0.19607843" />
  <path
     fill="#f6b8da"
     d=" M 473.78 563.70 C 475.94 559.21 477.44 554.34 480.70 550.47 C 479.29 558.43 476.81 566.14 474.85 573.98 C 469.50 595.29 464.32 616.64 458.67 637.87 C 433.74 737.31 408.27 836.61 383.31 936.04 C 379.24 950.96 375.70 966.02 371.90 981.01 C 358.68 978.51 345.88 974.21 332.73 971.36 C 324.39 969.68 317.34 964.73 309.65 961.39 C 301.23 957.74 293.16 953.35 284.89 949.37 C 294.93 926.92 306.74 905.29 316.98 882.93 C 321.98 872.96 327.00 863.01 331.94 853.02 C 339.30 836.29 348.43 820.42 355.81 803.70 C 362.53 789.85 369.85 776.29 376.14 762.24 C 381.42 751.54 386.87 740.93 392.16 730.23 C 399.71 713.10 409.07 696.83 416.61 679.70 C 421.27 670.33 425.96 660.98 430.66 651.63 C 434.34 644.54 437.24 637.07 441.01 630.02 C 446.51 618.82 452.43 607.82 457.46 596.39 C 462.80 585.45 468.37 574.61 473.78 563.70 Z"
     id="path3910"
     style="fill:#ffffff;fill-opacity:0.19607843" />
  <path
     fill="#f6b8da"
     d=" M 516.31 551.41 C 518.25 554.70 519.84 558.17 521.26 561.71 C 575.40 685.21 629.63 808.68 683.75 932.20 C 687.57 940.70 691.34 949.23 694.90 957.84 C 681.30 964.02 667.61 969.98 653.90 975.90 C 643.17 979.11 632.00 980.63 621.11 983.21 C 616.29 984.40 611.40 985.29 606.48 985.95 C 576.93 843.51 547.10 701.15 517.46 558.72 C 516.98 556.29 516.60 553.86 516.31 551.41 Z"
     id="path3912"
     style="fill:#ffffff;fill-opacity:0.19607843" />
  <path
     fill="#f6b8da"
     d=" M 497.82 554.64 L 499.09 554.68 C 499.32 564.41 500.50 574.08 501.22 583.77 C 512.47 721.23 524.12 858.67 535.25 996.12 C 522.93 998.51 510.22 997.91 497.83 1000.00 L 482.70 1000.00 C 469.46 997.69 456.07 996.39 442.73 994.81 C 443.43 985.49 444.82 976.25 445.97 966.98 C 463.25 829.53 480.58 692.09 497.82 554.64 Z"
     id="path3914"
     style="fill:#ffffff;fill-opacity:0.19607843" />
</svg>
