<?xml version="1.0" encoding="UTF-8" standalone="no"?>
<svg
   xmlns:dc="http://purl.org/dc/elements/1.1/"
   xmlns:cc="http://creativecommons.org/ns#"
   xmlns:rdf="http://www.w3.org/1999/02/22-rdf-syntax-ns#"
   xmlns:svg="http://www.w3.org/2000/svg"
   xmlns="http://www.w3.org/2000/svg"
   xmlns:sodipodi="http://sodipodi.sourceforge.net/DTD/sodipodi-0.dtd"
   xmlns:inkscape="http://www.inkscape.org/namespaces/inkscape"
   version="1.1"
   x="0px"
   y="0px"
   viewBox="0 0 100 100"
   enable-background="new 0 0 100 100"
   xml:space="preserve"
   id="svg4763"
   inkscape:version="0.48.5 r10040"
   width="100%"
   height="100%"
   sodipodi:docname="squaredicon.svg"><metadata
     id="metadata4895"><rdf:RDF><cc:Work
         rdf:about=""><dc:format>image/svg+xml</dc:format><dc:type
           rdf:resource="http://purl.org/dc/dcmitype/StillImage" /><dc:title></dc:title></cc:Work></rdf:RDF></metadata><defs
     id="defs4893" /><sodipodi:namedview
     pagecolor="#ffffff"
     bordercolor="#666666"
     borderopacity="1"
     objecttolerance="10"
     gridtolerance="10"
     guidetolerance="10"
     inkscape:pageopacity="0"
     inkscape:pageshadow="2"
     inkscape:window-width="1346"
     inkscape:window-height="1062"
     id="namedview4891"
     showgrid="false"
     inkscape:zoom="6.675088"
     inkscape:cx="34.808997"
     inkscape:cy="59.633139"
     inkscape:window-x="0"
     inkscape:window-y="0"
     inkscape:window-maximized="0"
     inkscape:current-layer="svg4763"
     fit-margin-top="0"
     fit-margin-left="0"
     fit-margin-right="0"
     fit-margin-bottom="0" /><rect
     style="fill:#fd8b00;fill-opacity:1;stroke:#000000;stroke-width:0;stroke-linejoin:round;stroke-miterlimit:4;stroke-dasharray:none"
     id="rect4559"
     width="100"
     height="100"
     x="0"
     y="-6.6013979e-07" /><g
     id="g4765"
     transform="translate(4.9583118,2.3096151)"
     style="fill:#ffffff;fill-opacity:1" /><g
     id="g4875"
     style="fill:#ffffff;fill-opacity:1"
     transform="translate(4.9583118,2.3096151)"><path
       d="m 39.477,51.275 c -13.072,0 -23.312,-6 -23.312,-13.664 0,-1.242 1.008,-2.25 2.25,-2.25 1.242,0 2.25,1.008 2.25,2.25 0,4.334 7.726,9.164 18.812,9.164 11.08,0 18.521,-4.739 18.521,-9.164 4.323832,1.817359 0.0084,-0.05101 4.275284,1.797729 C 61.374419,46.398581 52.385,51.275 39.477,51.275 z"
       id="path4877"
       style="fill:#ffffff;fill-opacity:1"
       inkscape:connector-curvature="0"
       sodipodi:nodetypes="sssssccs" /><path
       d="m 39.305,89.824 c -14.197,0 -19.236,-7.281 -19.236,-13.518 L 16.184,37.836 C 16.171,31.12 26.662499,26.075622 37.717499,24.913622 l -0.429865,4.402094 C 28.882634,30.197716 20.673,33.636 20.673,37.611 l 3.885,38.468 c 0.012,5.789 5.657,9.244 14.748,9.244 9.092,0 14.736,-3.449 14.736,-9 L 58.009,37.385 62.411095,39.340108 58.531,76.551 c 0.009,6.002 -5.03,13.273 -19.226,13.273 z"
       id="path4879"
       style="fill:#ffffff;fill-opacity:1"
       inkscape:connector-curvature="0"
       sodipodi:nodetypes="sccccccsccccs" /><path
       d="m 59.05,54.363 c -1.241,0 -2.25,-1.008 -2.25,-2.249 0,-1.242 1.009,-2.25 2.25,-2.25 5.273,0 9.085,-1.469 9.123,-1.484 8.981,-3.476 13.456,-13.594 9.99,-22.56 -3.472,-8.96 -13.588,-13.434 -22.55,-9.968 -4.346,1.677 -7.775,4.948 -9.659,9.208 -1.884,4.258 -2.369527,7.872419 -0.689527,12.215419 -3.740928,2.739162 -0.05636,0.06531 -3.820473,2.746581 -2.112,-5.464 -1.973,-11.424 0.397,-16.783 2.37,-5.359 6.687,-9.473 12.149,-11.585 11.279,-4.362 24,1.266 28.367,12.542 4.363,11.281 -1.266,24.01 -12.547,28.375 -0.164,0.068 -4.58,1.792 -10.76,1.792 z"
       id="path4881"
       style="fill:#ffffff;fill-opacity:1"
       inkscape:connector-curvature="0"
       sodipodi:nodetypes="sssccccccscccs" /><path
       d="m 60.434,17.8 c -0.174,0 -0.347,0.006 -0.537,0.018 -5.75,0.406 -2.76,5.889 -0.771,8.889 0.47,0.706 0.896,0.945 1.263,0.945 0.788,0 1.28,-1.115 1.28,-1.115 1.588,-3.12 3.75,-8.737 -1.235,-8.737 l 0,0 z"
       id="path4883"
       style="fill:#ffffff;fill-opacity:1"
       inkscape:connector-curvature="0" /><path
       d="m 51.109,26.323 c -1.317,0 -2.366,0.798 -2.678,3.062 -0.416,3.021 1.063,3.945 3.045,3.945 1.767,0 3.932,-0.734 5.51,-1.368 2.479,-0.989 0.353,-2.514 0.353,-2.514 -1.691,-1.359 -4.266,-3.125 -6.23,-3.125 l 0,0 z"
       id="path4885"
       style="fill:#ffffff;fill-opacity:1"
       inkscape:connector-curvature="0" /><path
       d="m 67.508,32.165 c -0.453,0 -0.895,0.012 -1.298,0.029 -2.672,0.117 -1.175,2.262 -1.175,2.262 1.324,2.127 3.586,5.161 5.713,5.161 0.945,0 1.872,-0.606 2.675,-2.167 2.335,-4.557 -2.325,-5.285 -5.915,-5.285 l 0,0 z"
       id="path4887"
       style="fill:#ffffff;fill-opacity:1"
       inkscape:connector-curvature="0" /><path
       d="m 70.452,22.094 c -2.121,0 -4.39,2.9 -5.771,4.938 -1.5,2.221 1.118,2.287 1.118,2.287 0.634,0.051 1.345,0.086 2.08,0.086 3.466,0 7.396,-0.828 5.32,-5.039 -0.806,-1.642 -1.758,-2.272 -2.747,-2.272 l 0,0 z"
       id="path4889"
       style="fill:#ffffff;fill-opacity:1"
       inkscape:connector-curvature="0" /></g></svg>