<?xml version="1.0" encoding="UTF-8" standalone="no"?>
<svg
   xmlns:dc="http://purl.org/dc/elements/1.1/"
   xmlns:cc="http://creativecommons.org/ns#"
   xmlns:rdf="http://www.w3.org/1999/02/22-rdf-syntax-ns#"
   xmlns:svg="http://www.w3.org/2000/svg"
   xmlns="http://www.w3.org/2000/svg"
   xmlns:sodipodi="http://sodipodi.sourceforge.net/DTD/sodipodi-0.dtd"
   xmlns:inkscape="http://www.inkscape.org/namespaces/inkscape"
   version="1.1"
   x="0px"
   y="0px"
   viewBox="0 0 44.000001 44.008448"
   enable-background="new 0 0 100 100"
   xml:space="preserve"
   id="svg4763"
   inkscape:version="0.48.5 r10040"
   width="100%"
   height="100%"
   sodipodi:docname="slice.svg"><metadata
     id="metadata4895"><rdf:RDF><cc:Work
         rdf:about=""><dc:format>image/svg+xml</dc:format><dc:type
           rdf:resource="http://purl.org/dc/dcmitype/StillImage" /><dc:title></dc:title></cc:Work></rdf:RDF></metadata><defs
     id="defs4893" /><sodipodi:namedview
     pagecolor="#ffffff"
     bordercolor="#666666"
     borderopacity="1"
     objecttolerance="10"
     gridtolerance="10"
     guidetolerance="10"
     inkscape:pageopacity="0"
     inkscape:pageshadow="2"
     inkscape:window-width="1817"
     inkscape:window-height="1121"
     id="namedview4891"
     showgrid="false"
     inkscape:zoom="3.337544"
     inkscape:cx="21.652842"
     inkscape:cy="20.925018"
     inkscape:window-x="0"
     inkscape:window-y="0"
     inkscape:window-maximized="0"
     inkscape:current-layer="g4875"
     fit-margin-top="0"
     fit-margin-left="0"
     fit-margin-right="0"
     fit-margin-bottom="0" /><g
     id="g4765"
     transform="translate(-39.977504,-10.324605)"
     style="fill:#fd8b00;fill-opacity:1" /><g
     id="g4875"
     style="fill:#fd8b00;fill-opacity:1"
     transform="translate(-39.977504,-10.324605)"><path
       style="fill:#fdffff;fill-opacity:1;stroke:#000000;stroke-width:0;stroke-linejoin:round;stroke-miterlimit:4;stroke-dasharray:none"
       d="m 44.6875,0.15625 c -11.624137,0.58922882 -20.875,10.229431 -20.875,22 0,12.150264 9.849735,22 22,22 12.150265,0 22,-9.849736 22,-22 0,-12.150264 -9.849735,-22 -22,-22 -0.379696,0 -0.750028,-0.0190074 -1.125,0 z M 45.625,4.5 c 9.664983,0 17.5,7.835017 17.5,17.5 0,9.664983 -7.835017,17.5 -17.5,17.5 -9.664983,0 -17.5,-7.835017 -17.5,-17.5 0,-9.664983 7.835017,-17.5 17.5,-17.5 z"
       transform="translate(16.165004,10.176802)"
       id="path5143"
       inkscape:connector-curvature="0" /><path
       d="m 61.255754,17.464029 c -0.174,0 -0.347,0.006 -0.537,0.018 -5.75,0.406 -2.76,5.889 -0.771,8.889 0.47,0.706 0.896,0.945 1.263,0.945 0.788,0 1.28,-1.115 1.28,-1.115 1.588,-3.12 3.75,-8.737 -1.235,-8.737 l 0,0 z"
       id="path4883"
       style="fill:#fdffff;fill-opacity:1"
       inkscape:connector-curvature="0" /><path
       d="m 50.950101,24.945882 c -1.317,0 -2.366,0.798 -2.678,3.062 -0.416,3.021 1.063,3.945 3.045,3.945 1.767,0 3.932,-0.734 5.51,-1.368 2.479,-0.989 0.353,-2.514 0.353,-2.514 -1.691,-1.359 -4.266,-3.125 -6.23,-3.125 l 0,0 z"
       id="path4885"
       style="fill:#fdffff;fill-opacity:1"
       inkscape:connector-curvature="0" /><path
       d="m 68.832153,32.376865 c -0.453,0 -0.895,0.012 -1.298,0.029 -2.672,0.117 -1.175,2.262 -1.175,2.262 1.324,2.127 3.586,5.161 5.713,5.161 0.945,0 1.872,-0.606 2.675,-2.167 2.335,-4.557 -2.325,-5.285 -5.915,-5.285 l 0,0 z"
       id="path4887"
       style="fill:#fdffff;fill-opacity:1"
       inkscape:connector-curvature="0" /><path
       d="m 72.146916,22.35883 c -2.121,0 -4.39,2.9 -5.771,4.938 -1.5,2.221 1.118,2.287 1.118,2.287 0.634,0.051 1.345,0.086 2.08,0.086 3.466,0 7.396,-0.828 5.32,-5.039 -0.806,-1.642 -1.758,-2.272 -2.747,-2.272 l 0,0 z"
       id="path4889"
       style="fill:#fdffff;fill-opacity:1"
       inkscape:connector-curvature="0" /><path
       inkscape:connector-curvature="0"
       style="fill:#fdffff;fill-opacity:1"
       id="path5656"
       d="m 60.628616,37.806653 c 0.228002,-0.391437 0.460838,-0.767331 0.678365,-1.107008 1.445963,-2.249992 2.545995,0.123183 2.545995,0.123183 1.171554,2.214627 2.654736,5.696289 1.584181,7.534233 -0.475634,0.816576 -1.465855,1.31259 -3.218882,1.220786 -5.112958,-0.275938 -3.396566,-4.669068 -1.589659,-7.771194 l 0,0 z" /><path
       inkscape:connector-curvature="0"
       style="fill:#fdffff;fill-opacity:1"
       id="path5658"
       d="m 49.751359,35.745812 c -0.983877,0.875485 -1.237066,2.168969 0.03486,4.067716 1.697455,2.533405 3.416592,2.240512 4.897263,0.922963 1.320054,-1.174626 2.449506,-3.162168 3.206909,-4.68479 1.194516,-2.386775 -1.407488,-2.112767 -1.407488,-2.112767 -2.166682,0.108851 -5.264322,0.501294 -6.731546,1.806878 l 0,0 z" /></g></svg>